<svg width="658" height="58" viewBox="0 0 658 58" fill="none" xmlns="http://www.w3.org/2000/svg">
<path d="M20.208 57C13.36 57 8.4 55.496 5.328 52.488C2.256 49.48 0.72 44.616 0.72 37.896V20.328C0.72 13.416 2.416 8.392 5.808 5.256C9.2 2.056 14 0.455996 20.208 0.455996H52.272C56.688 0.455996 60.048 0.711996 62.352 1.224C64.72 1.672 65.904 2.152 65.904 2.664L62.928 14.664C61.328 14.472 58.192 14.28 53.52 14.088C48.912 13.832 43.088 13.704 36.048 13.704H27.12C24.112 13.704 22.064 14.28 20.976 15.432C19.952 16.52 19.44 18.216 19.44 20.52V36.936C19.44 39.112 19.888 40.808 20.784 42.024C21.744 43.176 23.856 43.752 27.12 43.752H34.896C37.84 43.752 40.496 43.752 42.864 43.752C45.232 43.688 47.312 43.624 49.104 43.56V36.264L45.264 36.36L32.688 37.32V24.072H67.44V52.968L68.4 54.984C68.4 55.496 67.056 55.976 64.368 56.424C61.68 56.808 57.136 57 50.736 57H20.208ZM74.9243 57L103.052 0.552H128.012L156.044 57H135.404L130.7 46.728H100.364L95.0843 57H74.9243ZM105.644 33.48H125.324L116.012 13.032H115.052L105.644 33.48ZM165.484 57V8.232L164.524 0.552H187.756L204.652 34.152L221.932 0.552H243.916V57H225.58V24.648H224.524L220.492 35.016L213.484 51.24H196.012L188.716 35.016L184.78 24.648H183.82V57H165.484ZM259.305 57V0.552H320.937V13.608H278.025V21.576H309.801V34.92H278.025V43.848H319.401L325.161 55.944C325.161 56.2 324.297 56.456 322.569 56.712C320.841 56.904 317.865 57 313.641 57H259.305ZM374.396 57C367.612 57 362.652 55.496 359.516 52.488C356.444 49.416 354.908 44.552 354.908 37.896V19.56C354.908 13.032 356.444 8.232 359.516 5.16C362.588 2.088 367.548 0.552 374.396 0.552H402.427C409.148 0.552 414.044 2.088 417.116 5.16C420.252 8.232 421.82 13.032 421.82 19.56V37.896C421.82 44.552 420.252 49.416 417.116 52.488C413.98 55.496 409.084 57 402.427 57H374.396ZM381.02 43.944H395.9C400.892 43.944 403.388 41.672 403.388 37.128V20.328C403.388 15.848 400.892 13.608 395.9 13.608H381.02C378.46 13.608 376.54 14.12 375.26 15.144C373.98 16.168 373.34 17.896 373.34 20.328V37.128C373.34 39.496 373.98 41.224 375.26 42.312C376.54 43.4 378.46 43.944 381.02 43.944ZM451.92 57L426 0.647999H446.256L460.464 34.632L463.056 42.504H463.92L466.416 34.632L480.912 0.647999H500.688L499.152 6.408L475.056 57H451.92ZM508.399 57V0.552H570.031V13.608H527.119V21.576H558.895V34.92H527.119V43.848H568.495L574.255 55.944C574.255 56.2 573.391 56.456 571.663 56.712C569.935 56.904 566.959 57 562.735 57H508.399ZM646.172 57.96C643.612 57.96 640.764 57.576 637.628 56.808C634.492 55.976 631.388 53.992 628.316 50.856L624.284 46.824C622.364 44.904 620.508 43.336 618.716 42.12C616.988 40.904 615.004 40.008 612.764 39.432C610.524 38.792 607.708 38.472 604.316 38.472H603.548V57H584.828V8.232L583.868 0.455996H628.316C632.412 0.455996 635.708 0.967997 638.204 1.992C640.764 2.952 642.716 4.264 644.06 5.928C645.468 7.528 646.428 9.352 646.94 11.4C647.452 13.448 647.708 15.528 647.708 17.64V19.464C647.708 23.304 646.716 26.76 644.732 29.832C642.812 32.84 639.74 34.984 635.516 36.264C637.116 37.224 638.62 38.216 640.028 39.24C641.5 40.2 643.164 41.224 645.02 42.312C647.132 43.528 649.084 44.424 650.876 45C652.732 45.512 654.268 45.832 655.484 45.96C656.7 46.088 657.404 46.152 657.596 46.152L654.716 57C653.948 57.192 652.764 57.384 651.164 57.576C649.628 57.832 647.964 57.96 646.172 57.96ZM614.684 25.704C616.284 25.704 617.82 25.672 619.292 25.608C620.828 25.544 622.204 25.448 623.42 25.32C625.596 25.064 627.068 24.392 627.836 23.304C628.668 22.152 629.083 20.776 629.083 19.176V18.12C629.083 16.712 628.668 15.624 627.836 14.856C627.068 14.088 625.628 13.704 623.516 13.704H603.548V25.32C605.148 25.384 606.908 25.48 608.828 25.608C610.748 25.672 612.7 25.704 614.684 25.704Z" fill="url(#paint0_linear_514_124)"/>
<path d="M5.328 52.488L7.42688 50.3445L7.42688 50.3445L5.328 52.488ZM5.808 5.256L7.84457 7.45881L7.85567 7.44855L7.86666 7.43818L5.808 5.256ZM62.352 1.224L61.7012 4.15256L61.7476 4.16287L61.7943 4.17171L62.352 1.224ZM65.904 2.664L68.8158 3.38612L68.904 3.03044V2.664H65.904ZM62.928 14.664L62.5706 17.6426L65.2019 17.9584L65.8398 15.3861L62.928 14.664ZM53.52 14.088L53.3536 17.0834L53.3752 17.0846L53.3968 17.0855L53.52 14.088ZM20.976 15.432L18.795 13.3721L18.7914 13.3759L20.976 15.432ZM20.784 42.024L18.3688 43.8036L18.422 43.8757L18.4793 43.9446L20.784 42.024ZM42.864 43.752V46.752H42.9045L42.9451 46.7509L42.864 43.752ZM49.104 43.56L49.2111 46.5581L52.104 46.4548V43.56H49.104ZM49.104 36.264H52.104V33.1881L49.029 33.2649L49.104 36.264ZM45.264 36.36L45.189 33.3609L45.1122 33.3629L45.0357 33.3687L45.264 36.36ZM32.688 37.32H29.688V40.5577L32.9163 40.3113L32.688 37.32ZM32.688 24.072V21.072H29.688V24.072H32.688ZM67.44 24.072H70.44V21.072H67.44V24.072ZM67.44 52.968H64.44V53.6458L64.7314 54.2578L67.44 52.968ZM68.4 54.984H71.4V54.3062L71.1086 53.6942L68.4 54.984ZM64.368 56.424L64.7923 59.3938L64.8268 59.3889L64.8612 59.3832L64.368 56.424ZM20.208 54C13.6976 54 9.68416 52.5547 7.42688 50.3445L3.22913 54.6315C7.11584 58.4373 13.0224 60 20.208 60V54ZM7.42688 50.3445C5.18504 48.1493 3.72 44.2521 3.72 37.896H-2.28C-2.28 44.9799 -0.673036 50.8107 3.22913 54.6315L7.42688 50.3445ZM3.72 37.896V20.328H-2.28V37.896H3.72ZM3.72 20.328C3.72 13.8368 5.3169 9.79571 7.84457 7.45881L3.77143 3.05318C-0.4849 6.98828 -2.28 12.9952 -2.28 20.328H3.72ZM7.86666 7.43818C10.538 4.91807 14.5056 3.456 20.208 3.456V-2.544C13.4944 -2.544 7.86202 -0.806077 3.74934 3.07382L7.86666 7.43818ZM20.208 3.456H52.272V-2.544H20.208V3.456ZM52.272 3.456C56.6234 3.456 59.7218 3.71269 61.7012 4.15256L63.0028 -1.70456C60.3742 -2.2887 56.7526 -2.544 52.272 -2.544V3.456ZM61.7943 4.17171C62.9225 4.38514 63.5769 4.57374 63.8889 4.70022C64.0583 4.76891 63.9527 4.75089 63.7553 4.58556C63.5739 4.43357 62.904 3.79729 62.904 2.664H68.904C68.904 1.27471 68.0861 0.386419 67.6087 -0.0135672C67.1153 -0.42689 66.5657 -0.688917 66.1431 -0.86022C65.2711 -1.21375 64.1495 -1.48914 62.9097 -1.72371L61.7943 4.17171ZM62.9922 1.94187L60.0162 13.9419L65.8398 15.3861L68.8158 3.38612L62.9922 1.94187ZM63.2854 11.6854C61.5502 11.4771 58.2985 11.2818 53.6432 11.0905L53.3968 17.0855C58.0855 17.2782 61.1058 17.4669 62.5706 17.6426L63.2854 11.6854ZM53.6864 11.0926C49.0023 10.8324 43.118 10.704 36.048 10.704V16.704C43.058 16.704 48.8217 16.8316 53.3536 17.0834L53.6864 11.0926ZM36.048 10.704H27.12V16.704H36.048V10.704ZM27.12 10.704C23.9524 10.704 20.7846 11.2654 18.795 13.3721L23.157 17.4919C23.3434 17.2946 24.2716 16.704 27.12 16.704V10.704ZM18.7914 13.3759C17.0216 15.2563 16.44 17.853 16.44 20.52H22.44C22.44 18.579 22.8824 17.7837 23.1606 17.4881L18.7914 13.3759ZM16.44 20.52V36.936H22.44V20.52H16.44ZM16.44 36.936C16.44 39.4806 16.9584 41.8894 18.3688 43.8036L23.1992 40.2444C22.8176 39.7266 22.44 38.7434 22.44 36.936H16.44ZM18.4793 43.9446C19.4957 45.1642 20.9095 45.8354 22.2986 46.2143C23.7045 46.5977 25.3383 46.752 27.12 46.752V40.752C25.6377 40.752 24.5835 40.6183 23.8774 40.4257C23.1545 40.2286 23.0323 40.0358 23.0887 40.1034L18.4793 43.9446ZM27.12 46.752H34.896V40.752H27.12V46.752ZM34.896 46.752C34.9018 46.752 34.9075 46.752 34.9132 46.752C34.919 46.752 34.9247 46.752 34.9305 46.752C34.9362 46.752 34.942 46.752 34.9477 46.752C34.9535 46.752 34.9592 46.752 34.965 46.752C34.9707 46.752 34.9764 46.752 34.9822 46.752C34.9879 46.752 34.9936 46.752 34.9994 46.752C35.0051 46.752 35.0109 46.752 35.0166 46.752C35.0223 46.752 35.0281 46.752 35.0338 46.752C35.0395 46.752 35.0453 46.752 35.051 46.752C35.0567 46.752 35.0624 46.752 35.0682 46.752C35.0739 46.752 35.0796 46.752 35.0854 46.752C35.0911 46.752 35.0968 46.752 35.1025 46.752C35.1083 46.752 35.114 46.752 35.1197 46.752C35.1254 46.752 35.1311 46.752 35.1369 46.752C35.1426 46.752 35.1483 46.752 35.154 46.752C35.1597 46.752 35.1654 46.752 35.1712 46.752C35.1769 46.752 35.1826 46.752 35.1883 46.752C35.194 46.752 35.1997 46.752 35.2054 46.752C35.2111 46.752 35.2169 46.752 35.2226 46.752C35.2283 46.752 35.234 46.752 35.2397 46.752C35.2454 46.752 35.2511 46.752 35.2568 46.752C35.2625 46.752 35.2682 46.752 35.2739 46.752C35.2796 46.752 35.2853 46.752 35.291 46.752C35.2967 46.752 35.3024 46.752 35.3081 46.752C35.3138 46.752 35.3195 46.752 35.3252 46.752C35.3309 46.752 35.3366 46.752 35.3423 46.752C35.348 46.752 35.3537 46.752 35.3594 46.752C35.365 46.752 35.3707 46.752 35.3764 46.752C35.3821 46.752 35.3878 46.752 35.3935 46.752C35.3992 46.752 35.4049 46.752 35.4105 46.752C35.4162 46.752 35.4219 46.752 35.4276 46.752C35.4333 46.752 35.4389 46.752 35.4446 46.752C35.4503 46.752 35.456 46.752 35.4617 46.752C35.4673 46.752 35.473 46.752 35.4787 46.752C35.4844 46.752 35.49 46.752 35.4957 46.752C35.5014 46.752 35.5071 46.752 35.5127 46.752C35.5184 46.752 35.5241 46.752 35.5297 46.752C35.5354 46.752 35.5411 46.752 35.5467 46.752C35.5524 46.752 35.5581 46.752 35.5637 46.752C35.5694 46.752 35.5751 46.752 35.5807 46.752C35.5864 46.752 35.5921 46.752 35.5977 46.752C35.6034 46.752 35.609 46.752 35.6147 46.752C35.6203 46.752 35.626 46.752 35.6317 46.752C35.6373 46.752 35.643 46.752 35.6486 46.752C35.6543 46.752 35.6599 46.752 35.6656 46.752C35.6712 46.752 35.6769 46.752 35.6825 46.752C35.6882 46.752 35.6938 46.752 35.6995 46.752C35.7051 46.752 35.7108 46.752 35.7164 46.752C35.7221 46.752 35.7277 46.752 35.7333 46.752C35.739 46.752 35.7446 46.752 35.7503 46.752C35.7559 46.752 35.7615 46.752 35.7672 46.752C35.7728 46.752 35.7785 46.752 35.7841 46.752C35.7897 46.752 35.7954 46.752 35.801 46.752C35.8066 46.752 35.8123 46.752 35.8179 46.752C35.8235 46.752 35.8292 46.752 35.8348 46.752C35.8404 46.752 35.846 46.752 35.8517 46.752C35.8573 46.752 35.8629 46.752 35.8685 46.752C35.8742 46.752 35.8798 46.752 35.8854 46.752C35.891 46.752 35.8967 46.752 35.9023 46.752C35.9079 46.752 35.9135 46.752 35.9191 46.752C35.9248 46.752 35.9304 46.752 35.936 46.752C35.9416 46.752 35.9472 46.752 35.9528 46.752C35.9584 46.752 35.9641 46.752 35.9697 46.752C35.9753 46.752 35.9809 46.752 35.9865 46.752C35.9921 46.752 35.9977 46.752 36.0033 46.752C36.0089 46.752 36.0145 46.752 36.0201 46.752C36.0258 46.752 36.0314 46.752 36.037 46.752C36.0426 46.752 36.0482 46.752 36.0538 46.752C36.0594 46.752 36.065 46.752 36.0706 46.752C36.0762 46.752 36.0818 46.752 36.0874 46.752C36.0929 46.752 36.0985 46.752 36.1041 46.752C36.1097 46.752 36.1153 46.752 36.1209 46.752C36.1265 46.752 36.1321 46.752 36.1377 46.752C36.1433 46.752 36.1489 46.752 36.1545 46.752C36.16 46.752 36.1656 46.752 36.1712 46.752C36.1768 46.752 36.1824 46.752 36.188 46.752C36.1935 46.752 36.1991 46.752 36.2047 46.752C36.2103 46.752 36.2159 46.752 36.2215 46.752C36.227 46.752 36.2326 46.752 36.2382 46.752C36.2438 46.752 36.2493 46.752 36.2549 46.752C36.2605 46.752 36.2661 46.752 36.2716 46.752C36.2772 46.752 36.2828 46.752 36.2883 46.752C36.2939 46.752 36.2995 46.752 36.305 46.752C36.3106 46.752 36.3162 46.752 36.3217 46.752C36.3273 46.752 36.3329 46.752 36.3384 46.752C36.344 46.752 36.3496 46.752 36.3551 46.752C36.3607 46.752 36.3662 46.752 36.3718 46.752C36.3774 46.752 36.3829 46.752 36.3885 46.752C36.394 46.752 36.3996 46.752 36.4051 46.752C36.4107 46.752 36.4163 46.752 36.4218 46.752C36.4274 46.752 36.4329 46.752 36.4385 46.752C36.444 46.752 36.4496 46.752 36.4551 46.752C36.4607 46.752 36.4662 46.752 36.4717 46.752C36.4773 46.752 36.4828 46.752 36.4884 46.752C36.4939 46.752 36.4995 46.752 36.505 46.752C36.5105 46.752 36.5161 46.752 36.5216 46.752C36.5272 46.752 36.5327 46.752 36.5382 46.752C36.5438 46.752 36.5493 46.752 36.5548 46.752C36.5604 46.752 36.5659 46.752 36.5714 46.752C36.577 46.752 36.5825 46.752 36.588 46.752C36.5936 46.752 36.5991 46.752 36.6046 46.752C36.6102 46.752 36.6157 46.752 36.6212 46.752C36.6267 46.752 36.6323 46.752 36.6378 46.752C36.6433 46.752 36.6488 46.752 36.6544 46.752C36.6599 46.752 36.6654 46.752 36.6709 46.752C36.6764 46.752 36.682 46.752 36.6875 46.752C36.693 46.752 36.6985 46.752 36.704 46.752C36.7095 46.752 36.715 46.752 36.7206 46.752C36.7261 46.752 36.7316 46.752 36.7371 46.752C36.7426 46.752 36.7481 46.752 36.7536 46.752C36.7591 46.752 36.7646 46.752 36.7701 46.752C36.7757 46.752 36.7812 46.752 36.7867 46.752C36.7922 46.752 36.7977 46.752 36.8032 46.752C36.8087 46.752 36.8142 46.752 36.8197 46.752C36.8252 46.752 36.8307 46.752 36.8362 46.752C36.8417 46.752 36.8472 46.752 36.8527 46.752C36.8581 46.752 36.8636 46.752 36.8691 46.752C36.8746 46.752 36.8801 46.752 36.8856 46.752C36.8911 46.752 36.8966 46.752 36.9021 46.752C36.9076 46.752 36.9131 46.752 36.9185 46.752C36.924 46.752 36.9295 46.752 36.935 46.752C36.9405 46.752 36.946 46.752 36.9514 46.752C36.9569 46.752 36.9624 46.752 36.9679 46.752C36.9734 46.752 36.9788 46.752 36.9843 46.752C36.9898 46.752 36.9953 46.752 37.0008 46.752C37.0062 46.752 37.0117 46.752 37.0172 46.752C37.0227 46.752 37.0281 46.752 37.0336 46.752C37.0391 46.752 37.0445 46.752 37.05 46.752C37.0555 46.752 37.0609 46.752 37.0664 46.752C37.0719 46.752 37.0773 46.752 37.0828 46.752C37.0883 46.752 37.0937 46.752 37.0992 46.752C37.1047 46.752 37.1101 46.752 37.1156 46.752C37.121 46.752 37.1265 46.752 37.132 46.752C37.1374 46.752 37.1429 46.752 37.1483 46.752C37.1538 46.752 37.1592 46.752 37.1647 46.752C37.1701 46.752 37.1756 46.752 37.181 46.752C37.1865 46.752 37.1919 46.752 37.1974 46.752C37.2028 46.752 37.2083 46.752 37.2137 46.752C37.2192 46.752 37.2246 46.752 37.2301 46.752C37.2355 46.752 37.241 46.752 37.2464 46.752C37.2518 46.752 37.2573 46.752 37.2627 46.752C37.2682 46.752 37.2736 46.752 37.279 46.752C37.2845 46.752 37.2899 46.752 37.2954 46.752C37.3008 46.752 37.3062 46.752 37.3117 46.752C37.3171 46.752 37.3225 46.752 37.328 46.752C37.3334 46.752 37.3388 46.752 37.3442 46.752C37.3497 46.752 37.3551 46.752 37.3605 46.752C37.366 46.752 37.3714 46.752 37.3768 46.752C37.3822 46.752 37.3877 46.752 37.3931 46.752C37.3985 46.752 37.4039 46.752 37.4093 46.752C37.4148 46.752 37.4202 46.752 37.4256 46.752C37.431 46.752 37.4364 46.752 37.4419 46.752C37.4473 46.752 37.4527 46.752 37.4581 46.752C37.4635 46.752 37.4689 46.752 37.4743 46.752C37.4797 46.752 37.4852 46.752 37.4906 46.752C37.496 46.752 37.5014 46.752 37.5068 46.752C37.5122 46.752 37.5176 46.752 37.523 46.752C37.5284 46.752 37.5338 46.752 37.5392 46.752C37.5446 46.752 37.55 46.752 37.5554 46.752C37.5608 46.752 37.5662 46.752 37.5716 46.752C37.577 46.752 37.5824 46.752 37.5878 46.752C37.5932 46.752 37.5986 46.752 37.604 46.752C37.6094 46.752 37.6148 46.752 37.6202 46.752C37.6256 46.752 37.631 46.752 37.6364 46.752C37.6417 46.752 37.6471 46.752 37.6525 46.752C37.6579 46.752 37.6633 46.752 37.6687 46.752C37.6741 46.752 37.6795 46.752 37.6848 46.752C37.6902 46.752 37.6956 46.752 37.701 46.752C37.7064 46.752 37.7117 46.752 37.7171 46.752C37.7225 46.752 37.7279 46.752 37.7333 46.752C37.7386 46.752 37.744 46.752 37.7494 46.752C37.7548 46.752 37.7601 46.752 37.7655 46.752C37.7709 46.752 37.7762 46.752 37.7816 46.752C37.787 46.752 37.7923 46.752 37.7977 46.752C37.8031 46.752 37.8085 46.752 37.8138 46.752C37.8192 46.752 37.8245 46.752 37.8299 46.752C37.8353 46.752 37.8406 46.752 37.846 46.752C37.8514 46.752 37.8567 46.752 37.8621 46.752C37.8674 46.752 37.8728 46.752 37.8781 46.752C37.8835 46.752 37.8889 46.752 37.8942 46.752C37.8996 46.752 37.9049 46.752 37.9103 46.752C37.9156 46.752 37.921 46.752 37.9263 46.752C37.9317 46.752 37.937 46.752 37.9424 46.752C37.9477 46.752 37.9531 46.752 37.9584 46.752C37.9638 46.752 37.9691 46.752 37.9745 46.752C37.9798 46.752 37.9851 46.752 37.9905 46.752C37.9958 46.752 38.0012 46.752 38.0065 46.752C38.0118 46.752 38.0172 46.752 38.0225 46.752C38.0278 46.752 38.0332 46.752 38.0385 46.752C38.0439 46.752 38.0492 46.752 38.0545 46.752C38.0599 46.752 38.0652 46.752 38.0705 46.752C38.0758 46.752 38.0812 46.752 38.0865 46.752C38.0918 46.752 38.0972 46.752 38.1025 46.752C38.1078 46.752 38.1131 46.752 38.1185 46.752C38.1238 46.752 38.1291 46.752 38.1344 46.752C38.1397 46.752 38.1451 46.752 38.1504 46.752C38.1557 46.752 38.161 46.752 38.1663 46.752C38.1717 46.752 38.177 46.752 38.1823 46.752C38.1876 46.752 38.1929 46.752 38.1982 46.752C38.2035 46.752 38.2089 46.752 38.2142 46.752C38.2195 46.752 38.2248 46.752 38.2301 46.752C38.2354 46.752 38.2407 46.752 38.246 46.752C38.2513 46.752 38.2566 46.752 38.2619 46.752C38.2672 46.752 38.2725 46.752 38.2778 46.752C38.2831 46.752 38.2884 46.752 38.2937 46.752C38.299 46.752 38.3043 46.752 38.3096 46.752C38.3149 46.752 38.3202 46.752 38.3255 46.752C38.3308 46.752 38.3361 46.752 38.3414 46.752C38.3467 46.752 38.352 46.752 38.3573 46.752C38.3626 46.752 38.3679 46.752 38.3732 46.752C38.3784 46.752 38.3837 46.752 38.389 46.752C38.3943 46.752 38.3996 46.752 38.4049 46.752C38.4102 46.752 38.4154 46.752 38.4207 46.752C38.426 46.752 38.4313 46.752 38.4366 46.752C38.4418 46.752 38.4471 46.752 38.4524 46.752C38.4577 46.752 38.463 46.752 38.4682 46.752C38.4735 46.752 38.4788 46.752 38.4841 46.752C38.4893 46.752 38.4946 46.752 38.4999 46.752C38.5051 46.752 38.5104 46.752 38.5157 46.752C38.5209 46.752 38.5262 46.752 38.5315 46.752C38.5367 46.752 38.542 46.752 38.5473 46.752C38.5525 46.752 38.5578 46.752 38.5631 46.752C38.5683 46.752 38.5736 46.752 38.5789 46.752C38.5841 46.752 38.5894 46.752 38.5946 46.752C38.5999 46.752 38.6051 46.752 38.6104 46.752C38.6157 46.752 38.6209 46.752 38.6262 46.752C38.6314 46.752 38.6367 46.752 38.6419 46.752C38.6472 46.752 38.6524 46.752 38.6577 46.752C38.6629 46.752 38.6682 46.752 38.6734 46.752C38.6787 46.752 38.6839 46.752 38.6891 46.752C38.6944 46.752 38.6996 46.752 38.7049 46.752C38.7101 46.752 38.7154 46.752 38.7206 46.752C38.7258 46.752 38.7311 46.752 38.7363 46.752C38.7416 46.752 38.7468 46.752 38.752 46.752C38.7573 46.752 38.7625 46.752 38.7677 46.752C38.773 46.752 38.7782 46.752 38.7834 46.752C38.7887 46.752 38.7939 46.752 38.7991 46.752C38.8044 46.752 38.8096 46.752 38.8148 46.752C38.82 46.752 38.8253 46.752 38.8305 46.752C38.8357 46.752 38.8409 46.752 38.8462 46.752C38.8514 46.752 38.8566 46.752 38.8618 46.752C38.867 46.752 38.8723 46.752 38.8775 46.752C38.8827 46.752 38.8879 46.752 38.8931 46.752C38.8983 46.752 38.9036 46.752 38.9088 46.752C38.914 46.752 38.9192 46.752 38.9244 46.752C38.9296 46.752 38.9348 46.752 38.94 46.752C38.9453 46.752 38.9505 46.752 38.9557 46.752C38.9609 46.752 38.9661 46.752 38.9713 46.752C38.9765 46.752 38.9817 46.752 38.9869 46.752C38.9921 46.752 38.9973 46.752 39.0025 46.752C39.0077 46.752 39.0129 46.752 39.0181 46.752C39.0233 46.752 39.0285 46.752 39.0337 46.752C39.0389 46.752 39.0441 46.752 39.0493 46.752C39.0545 46.752 39.0597 46.752 39.0649 46.752C39.0701 46.752 39.0752 46.752 39.0804 46.752C39.0856 46.752 39.0908 46.752 39.096 46.752C39.1012 46.752 39.1064 46.752 39.1116 46.752C39.1167 46.752 39.1219 46.752 39.1271 46.752C39.1323 46.752 39.1375 46.752 39.1427 46.752C39.1478 46.752 39.153 46.752 39.1582 46.752C39.1634 46.752 39.1686 46.752 39.1737 46.752C39.1789 46.752 39.1841 46.752 39.1893 46.752C39.1944 46.752 39.1996 46.752 39.2048 46.752C39.21 46.752 39.2151 46.752 39.2203 46.752C39.2255 46.752 39.2306 46.752 39.2358 46.752C39.241 46.752 39.2461 46.752 39.2513 46.752C39.2565 46.752 39.2616 46.752 39.2668 46.752C39.272 46.752 39.2771 46.752 39.2823 46.752C39.2874 46.752 39.2926 46.752 39.2978 46.752C39.3029 46.752 39.3081 46.752 39.3132 46.752C39.3184 46.752 39.3235 46.752 39.3287 46.752C39.3339 46.752 39.339 46.752 39.3442 46.752C39.3493 46.752 39.3545 46.752 39.3596 46.752C39.3648 46.752 39.3699 46.752 39.3751 46.752C39.3802 46.752 39.3854 46.752 39.3905 46.752C39.3956 46.752 39.4008 46.752 39.4059 46.752C39.4111 46.752 39.4162 46.752 39.4214 46.752C39.4265 46.752 39.4316 46.752 39.4368 46.752C39.4419 46.752 39.4471 46.752 39.4522 46.752C39.4573 46.752 39.4625 46.752 39.4676 46.752C39.4727 46.752 39.4779 46.752 39.483 46.752C39.4881 46.752 39.4933 46.752 39.4984 46.752C39.5035 46.752 39.5087 46.752 39.5138 46.752C39.5189 46.752 39.524 46.752 39.5292 46.752C39.5343 46.752 39.5394 46.752 39.5445 46.752C39.5497 46.752 39.5548 46.752 39.5599 46.752C39.565 46.752 39.5702 46.752 39.5753 46.752C39.5804 46.752 39.5855 46.752 39.5906 46.752C39.5957 46.752 39.6009 46.752 39.606 46.752C39.6111 46.752 39.6162 46.752 39.6213 46.752C39.6264 46.752 39.6315 46.752 39.6367 46.752C39.6418 46.752 39.6469 46.752 39.652 46.752C39.6571 46.752 39.6622 46.752 39.6673 46.752C39.6724 46.752 39.6775 46.752 39.6826 46.752C39.6877 46.752 39.6928 46.752 39.6979 46.752C39.703 46.752 39.7081 46.752 39.7132 46.752C39.7183 46.752 39.7234 46.752 39.7285 46.752C39.7336 46.752 39.7387 46.752 39.7438 46.752C39.7489 46.752 39.754 46.752 39.7591 46.752C39.7642 46.752 39.7693 46.752 39.7744 46.752C39.7795 46.752 39.7846 46.752 39.7896 46.752C39.7947 46.752 39.7998 46.752 39.8049 46.752C39.81 46.752 39.8151 46.752 39.8202 46.752C39.8252 46.752 39.8303 46.752 39.8354 46.752C39.8405 46.752 39.8456 46.752 39.8507 46.752C39.8557 46.752 39.8608 46.752 39.8659 46.752C39.871 46.752 39.876 46.752 39.8811 46.752C39.8862 46.752 39.8913 46.752 39.8963 46.752C39.9014 46.752 39.9065 46.752 39.9116 46.752C39.9166 46.752 39.9217 46.752 39.9268 46.752C39.9318 46.752 39.9369 46.752 39.942 46.752C39.947 46.752 39.9521 46.752 39.9572 46.752C39.9622 46.752 39.9673 46.752 39.9724 46.752C39.9774 46.752 39.9825 46.752 39.9875 46.752C39.9926 46.752 39.9977 46.752 40.0027 46.752C40.0078 46.752 40.0128 46.752 40.0179 46.752C40.0229 46.752 40.028 46.752 40.0331 46.752C40.0381 46.752 40.0432 46.752 40.0482 46.752C40.0533 46.752 40.0583 46.752 40.0634 46.752C40.0684 46.752 40.0735 46.752 40.0785 46.752C40.0835 46.752 40.0886 46.752 40.0936 46.752C40.0987 46.752 40.1037 46.752 40.1088 46.752C40.1138 46.752 40.1189 46.752 40.1239 46.752C40.1289 46.752 40.134 46.752 40.139 46.752C40.144 46.752 40.1491 46.752 40.1541 46.752C40.1592 46.752 40.1642 46.752 40.1692 46.752C40.1743 46.752 40.1793 46.752 40.1843 46.752C40.1894 46.752 40.1944 46.752 40.1994 46.752C40.2044 46.752 40.2095 46.752 40.2145 46.752C40.2195 46.752 40.2246 46.752 40.2296 46.752C40.2346 46.752 40.2396 46.752 40.2446 46.752C40.2497 46.752 40.2547 46.752 40.2597 46.752C40.2647 46.752 40.2698 46.752 40.2748 46.752C40.2798 46.752 40.2848 46.752 40.2898 46.752C40.2948 46.752 40.2999 46.752 40.3049 46.752C40.3099 46.752 40.3149 46.752 40.3199 46.752C40.3249 46.752 40.3299 46.752 40.3349 46.752C40.3399 46.752 40.345 46.752 40.35 46.752C40.355 46.752 40.36 46.752 40.365 46.752C40.37 46.752 40.375 46.752 40.38 46.752C40.385 46.752 40.39 46.752 40.395 46.752C40.4 46.752 40.405 46.752 40.41 46.752C40.415 46.752 40.42 46.752 40.425 46.752C40.43 46.752 40.435 46.752 40.44 46.752C40.445 46.752 40.45 46.752 40.455 46.752C40.4599 46.752 40.4649 46.752 40.4699 46.752C40.4749 46.752 40.4799 46.752 40.4849 46.752C40.4899 46.752 40.4949 46.752 40.4999 46.752C40.5048 46.752 40.5098 46.752 40.5148 46.752C40.5198 46.752 40.5248 46.752 40.5298 46.752C40.5347 46.752 40.5397 46.752 40.5447 46.752C40.5497 46.752 40.5547 46.752 40.5596 46.752C40.5646 46.752 40.5696 46.752 40.5746 46.752C40.5795 46.752 40.5845 46.752 40.5895 46.752C40.5944 46.752 40.5994 46.752 40.6044 46.752C40.6094 46.752 40.6143 46.752 40.6193 46.752C40.6243 46.752 40.6292 46.752 40.6342 46.752C40.6392 46.752 40.6441 46.752 40.6491 46.752C40.654 46.752 40.659 46.752 40.664 46.752C40.6689 46.752 40.6739 46.752 40.6789 46.752C40.6838 46.752 40.6888 46.752 40.6937 46.752C40.6987 46.752 40.7036 46.752 40.7086 46.752C40.7135 46.752 40.7185 46.752 40.7235 46.752C40.7284 46.752 40.7334 46.752 40.7383 46.752C40.7433 46.752 40.7482 46.752 40.7532 46.752C40.7581 46.752 40.7631 46.752 40.768 46.752C40.7729 46.752 40.7779 46.752 40.7828 46.752C40.7878 46.752 40.7927 46.752 40.7977 46.752C40.8026 46.752 40.8075 46.752 40.8125 46.752C40.8174 46.752 40.8224 46.752 40.8273 46.752C40.8322 46.752 40.8372 46.752 40.8421 46.752C40.847 46.752 40.852 46.752 40.8569 46.752C40.8618 46.752 40.8668 46.752 40.8717 46.752C40.8766 46.752 40.8816 46.752 40.8865 46.752C40.8914 46.752 40.8963 46.752 40.9013 46.752C40.9062 46.752 40.9111 46.752 40.916 46.752C40.921 46.752 40.9259 46.752 40.9308 46.752C40.9357 46.752 40.9407 46.752 40.9456 46.752C40.9505 46.752 40.9554 46.752 40.9603 46.752C40.9652 46.752 40.9702 46.752 40.9751 46.752C40.98 46.752 40.9849 46.752 40.9898 46.752C40.9947 46.752 40.9996 46.752 41.0046 46.752C41.0095 46.752 41.0144 46.752 41.0193 46.752C41.0242 46.752 41.0291 46.752 41.034 46.752C41.0389 46.752 41.0438 46.752 41.0487 46.752C41.0536 46.752 41.0585 46.752 41.0634 46.752C41.0683 46.752 41.0732 46.752 41.0781 46.752C41.083 46.752 41.0879 46.752 41.0928 46.752C41.0977 46.752 41.1026 46.752 41.1075 46.752C41.1124 46.752 41.1173 46.752 41.1222 46.752C41.1271 46.752 41.132 46.752 41.1369 46.752C41.1418 46.752 41.1467 46.752 41.1515 46.752C41.1564 46.752 41.1613 46.752 41.1662 46.752C41.1711 46.752 41.176 46.752 41.1809 46.752C41.1857 46.752 41.1906 46.752 41.1955 46.752C41.2004 46.752 41.2053 46.752 41.2102 46.752C41.215 46.752 41.2199 46.752 41.2248 46.752C41.2297 46.752 41.2345 46.752 41.2394 46.752C41.2443 46.752 41.2492 46.752 41.254 46.752C41.2589 46.752 41.2638 46.752 41.2687 46.752C41.2735 46.752 41.2784 46.752 41.2833 46.752C41.2881 46.752 41.293 46.752 41.2979 46.752C41.3027 46.752 41.3076 46.752 41.3125 46.752C41.3173 46.752 41.3222 46.752 41.3271 46.752C41.3319 46.752 41.3368 46.752 41.3416 46.752C41.3465 46.752 41.3514 46.752 41.3562 46.752C41.3611 46.752 41.3659 46.752 41.3708 46.752C41.3756 46.752 41.3805 46.752 41.3854 46.752C41.3902 46.752 41.3951 46.752 41.3999 46.752C41.4048 46.752 41.4096 46.752 41.4145 46.752C41.4193 46.752 41.4242 46.752 41.429 46.752C41.4339 46.752 41.4387 46.752 41.4435 46.752C41.4484 46.752 41.4532 46.752 41.4581 46.752C41.4629 46.752 41.4678 46.752 41.4726 46.752C41.4774 46.752 41.4823 46.752 41.4871 46.752C41.492 46.752 41.4968 46.752 41.5016 46.752C41.5065 46.752 41.5113 46.752 41.5161 46.752C41.521 46.752 41.5258 46.752 41.5306 46.752C41.5355 46.752 41.5403 46.752 41.5451 46.752C41.5499 46.752 41.5548 46.752 41.5596 46.752C41.5644 46.752 41.5693 46.752 41.5741 46.752C41.5789 46.752 41.5837 46.752 41.5886 46.752C41.5934 46.752 41.5982 46.752 41.603 46.752C41.6078 46.752 41.6127 46.752 41.6175 46.752C41.6223 46.752 41.6271 46.752 41.6319 46.752C41.6367 46.752 41.6416 46.752 41.6464 46.752C41.6512 46.752 41.656 46.752 41.6608 46.752C41.6656 46.752 41.6704 46.752 41.6752 46.752C41.6801 46.752 41.6849 46.752 41.6897 46.752C41.6945 46.752 41.6993 46.752 41.7041 46.752C41.7089 46.752 41.7137 46.752 41.7185 46.752C41.7233 46.752 41.7281 46.752 41.7329 46.752C41.7377 46.752 41.7425 46.752 41.7473 46.752C41.7521 46.752 41.7569 46.752 41.7617 46.752C41.7665 46.752 41.7713 46.752 41.7761 46.752C41.7809 46.752 41.7857 46.752 41.7905 46.752C41.7953 46.752 41.8 46.752 41.8048 46.752C41.8096 46.752 41.8144 46.752 41.8192 46.752C41.824 46.752 41.8288 46.752 41.8336 46.752C41.8383 46.752 41.8431 46.752 41.8479 46.752C41.8527 46.752 41.8575 46.752 41.8623 46.752C41.867 46.752 41.8718 46.752 41.8766 46.752C41.8814 46.752 41.8862 46.752 41.8909 46.752C41.8957 46.752 41.9005 46.752 41.9053 46.752C41.91 46.752 41.9148 46.752 41.9196 46.752C41.9244 46.752 41.9291 46.752 41.9339 46.752C41.9387 46.752 41.9434 46.752 41.9482 46.752C41.953 46.752 41.9577 46.752 41.9625 46.752C41.9673 46.752 41.972 46.752 41.9768 46.752C41.9816 46.752 41.9863 46.752 41.9911 46.752C41.9958 46.752 42.0006 46.752 42.0054 46.752C42.0101 46.752 42.0149 46.752 42.0196 46.752C42.0244 46.752 42.0291 46.752 42.0339 46.752C42.0387 46.752 42.0434 46.752 42.0482 46.752C42.0529 46.752 42.0577 46.752 42.0624 46.752C42.0672 46.752 42.0719 46.752 42.0767 46.752C42.0814 46.752 42.0862 46.752 42.0909 46.752C42.0957 46.752 42.1004 46.752 42.1051 46.752C42.1099 46.752 42.1146 46.752 42.1194 46.752C42.1241 46.752 42.1288 46.752 42.1336 46.752C42.1383 46.752 42.1431 46.752 42.1478 46.752C42.1525 46.752 42.1573 46.752 42.162 46.752C42.1667 46.752 42.1715 46.752 42.1762 46.752C42.1809 46.752 42.1857 46.752 42.1904 46.752C42.1951 46.752 42.1999 46.752 42.2046 46.752C42.2093 46.752 42.2141 46.752 42.2188 46.752C42.2235 46.752 42.2282 46.752 42.233 46.752C42.2377 46.752 42.2424 46.752 42.2471 46.752C42.2518 46.752 42.2566 46.752 42.2613 46.752C42.266 46.752 42.2707 46.752 42.2754 46.752C42.2802 46.752 42.2849 46.752 42.2896 46.752C42.2943 46.752 42.299 46.752 42.3037 46.752C42.3084 46.752 42.3132 46.752 42.3179 46.752C42.3226 46.752 42.3273 46.752 42.332 46.752C42.3367 46.752 42.3414 46.752 42.3461 46.752C42.3508 46.752 42.3555 46.752 42.3602 46.752C42.3649 46.752 42.3696 46.752 42.3743 46.752C42.379 46.752 42.3837 46.752 42.3884 46.752C42.3931 46.752 42.3978 46.752 42.4025 46.752C42.4072 46.752 42.4119 46.752 42.4166 46.752C42.4213 46.752 42.426 46.752 42.4307 46.752C42.4354 46.752 42.4401 46.752 42.4448 46.752C42.4495 46.752 42.4542 46.752 42.4589 46.752C42.4635 46.752 42.4682 46.752 42.4729 46.752C42.4776 46.752 42.4823 46.752 42.487 46.752C42.4917 46.752 42.4963 46.752 42.501 46.752C42.5057 46.752 42.5104 46.752 42.5151 46.752C42.5197 46.752 42.5244 46.752 42.5291 46.752C42.5338 46.752 42.5385 46.752 42.5431 46.752C42.5478 46.752 42.5525 46.752 42.5572 46.752C42.5618 46.752 42.5665 46.752 42.5712 46.752C42.5758 46.752 42.5805 46.752 42.5852 46.752C42.5899 46.752 42.5945 46.752 42.5992 46.752C42.6039 46.752 42.6085 46.752 42.6132 46.752C42.6178 46.752 42.6225 46.752 42.6272 46.752C42.6318 46.752 42.6365 46.752 42.6412 46.752C42.6458 46.752 42.6505 46.752 42.6551 46.752C42.6598 46.752 42.6644 46.752 42.6691 46.752C42.6738 46.752 42.6784 46.752 42.6831 46.752C42.6877 46.752 42.6924 46.752 42.697 46.752C42.7017 46.752 42.7063 46.752 42.711 46.752C42.7156 46.752 42.7203 46.752 42.7249 46.752C42.7296 46.752 42.7342 46.752 42.7389 46.752C42.7435 46.752 42.7481 46.752 42.7528 46.752C42.7574 46.752 42.7621 46.752 42.7667 46.752C42.7714 46.752 42.776 46.752 42.7806 46.752C42.7853 46.752 42.7899 46.752 42.7945 46.752C42.7992 46.752 42.8038 46.752 42.8084 46.752C42.8131 46.752 42.8177 46.752 42.8223 46.752C42.827 46.752 42.8316 46.752 42.8362 46.752C42.8409 46.752 42.8455 46.752 42.8501 46.752C42.8547 46.752 42.8594 46.752 42.864 46.752V40.752C42.8594 40.752 42.8547 40.752 42.8501 40.752C42.8455 40.752 42.8409 40.752 42.8362 40.752C42.8316 40.752 42.827 40.752 42.8223 40.752C42.8177 40.752 42.8131 40.752 42.8084 40.752C42.8038 40.752 42.7992 40.752 42.7945 40.752C42.7899 40.752 42.7853 40.752 42.7806 40.752C42.776 40.752 42.7714 40.752 42.7667 40.752C42.7621 40.752 42.7574 40.752 42.7528 40.752C42.7481 40.752 42.7435 40.752 42.7389 40.752C42.7342 40.752 42.7296 40.752 42.7249 40.752C42.7203 40.752 42.7156 40.752 42.711 40.752C42.7063 40.752 42.7017 40.752 42.697 40.752C42.6924 40.752 42.6877 40.752 42.6831 40.752C42.6784 40.752 42.6738 40.752 42.6691 40.752C42.6644 40.752 42.6598 40.752 42.6551 40.752C42.6505 40.752 42.6458 40.752 42.6412 40.752C42.6365 40.752 42.6318 40.752 42.6272 40.752C42.6225 40.752 42.6178 40.752 42.6132 40.752C42.6085 40.752 42.6039 40.752 42.5992 40.752C42.5945 40.752 42.5899 40.752 42.5852 40.752C42.5805 40.752 42.5758 40.752 42.5712 40.752C42.5665 40.752 42.5618 40.752 42.5572 40.752C42.5525 40.752 42.5478 40.752 42.5431 40.752C42.5385 40.752 42.5338 40.752 42.5291 40.752C42.5244 40.752 42.5197 40.752 42.5151 40.752C42.5104 40.752 42.5057 40.752 42.501 40.752C42.4963 40.752 42.4917 40.752 42.487 40.752C42.4823 40.752 42.4776 40.752 42.4729 40.752C42.4682 40.752 42.4635 40.752 42.4589 40.752C42.4542 40.752 42.4495 40.752 42.4448 40.752C42.4401 40.752 42.4354 40.752 42.4307 40.752C42.426 40.752 42.4213 40.752 42.4166 40.752C42.4119 40.752 42.4072 40.752 42.4025 40.752C42.3978 40.752 42.3931 40.752 42.3884 40.752C42.3837 40.752 42.379 40.752 42.3743 40.752C42.3696 40.752 42.3649 40.752 42.3602 40.752C42.3555 40.752 42.3508 40.752 42.3461 40.752C42.3414 40.752 42.3367 40.752 42.332 40.752C42.3273 40.752 42.3226 40.752 42.3179 40.752C42.3132 40.752 42.3084 40.752 42.3037 40.752C42.299 40.752 42.2943 40.752 42.2896 40.752C42.2849 40.752 42.2802 40.752 42.2754 40.752C42.2707 40.752 42.266 40.752 42.2613 40.752C42.2566 40.752 42.2518 40.752 42.2471 40.752C42.2424 40.752 42.2377 40.752 42.233 40.752C42.2282 40.752 42.2235 40.752 42.2188 40.752C42.2141 40.752 42.2093 40.752 42.2046 40.752C42.1999 40.752 42.1951 40.752 42.1904 40.752C42.1857 40.752 42.1809 40.752 42.1762 40.752C42.1715 40.752 42.1667 40.752 42.162 40.752C42.1573 40.752 42.1525 40.752 42.1478 40.752C42.1431 40.752 42.1383 40.752 42.1336 40.752C42.1288 40.752 42.1241 40.752 42.1194 40.752C42.1146 40.752 42.1099 40.752 42.1051 40.752C42.1004 40.752 42.0957 40.752 42.0909 40.752C42.0862 40.752 42.0814 40.752 42.0767 40.752C42.0719 40.752 42.0672 40.752 42.0624 40.752C42.0577 40.752 42.0529 40.752 42.0482 40.752C42.0434 40.752 42.0387 40.752 42.0339 40.752C42.0291 40.752 42.0244 40.752 42.0196 40.752C42.0149 40.752 42.0101 40.752 42.0054 40.752C42.0006 40.752 41.9958 40.752 41.9911 40.752C41.9863 40.752 41.9816 40.752 41.9768 40.752C41.972 40.752 41.9673 40.752 41.9625 40.752C41.9577 40.752 41.953 40.752 41.9482 40.752C41.9434 40.752 41.9387 40.752 41.9339 40.752C41.9291 40.752 41.9244 40.752 41.9196 40.752C41.9148 40.752 41.91 40.752 41.9053 40.752C41.9005 40.752 41.8957 40.752 41.8909 40.752C41.8862 40.752 41.8814 40.752 41.8766 40.752C41.8718 40.752 41.867 40.752 41.8623 40.752C41.8575 40.752 41.8527 40.752 41.8479 40.752C41.8431 40.752 41.8383 40.752 41.8336 40.752C41.8288 40.752 41.824 40.752 41.8192 40.752C41.8144 40.752 41.8096 40.752 41.8048 40.752C41.8 40.752 41.7953 40.752 41.7905 40.752C41.7857 40.752 41.7809 40.752 41.7761 40.752C41.7713 40.752 41.7665 40.752 41.7617 40.752C41.7569 40.752 41.7521 40.752 41.7473 40.752C41.7425 40.752 41.7377 40.752 41.7329 40.752C41.7281 40.752 41.7233 40.752 41.7185 40.752C41.7137 40.752 41.7089 40.752 41.7041 40.752C41.6993 40.752 41.6945 40.752 41.6897 40.752C41.6849 40.752 41.6801 40.752 41.6752 40.752C41.6704 40.752 41.6656 40.752 41.6608 40.752C41.656 40.752 41.6512 40.752 41.6464 40.752C41.6416 40.752 41.6367 40.752 41.6319 40.752C41.6271 40.752 41.6223 40.752 41.6175 40.752C41.6127 40.752 41.6078 40.752 41.603 40.752C41.5982 40.752 41.5934 40.752 41.5886 40.752C41.5837 40.752 41.5789 40.752 41.5741 40.752C41.5693 40.752 41.5644 40.752 41.5596 40.752C41.5548 40.752 41.5499 40.752 41.5451 40.752C41.5403 40.752 41.5355 40.752 41.5306 40.752C41.5258 40.752 41.521 40.752 41.5161 40.752C41.5113 40.752 41.5065 40.752 41.5016 40.752C41.4968 40.752 41.492 40.752 41.4871 40.752C41.4823 40.752 41.4774 40.752 41.4726 40.752C41.4678 40.752 41.4629 40.752 41.4581 40.752C41.4532 40.752 41.4484 40.752 41.4435 40.752C41.4387 40.752 41.4339 40.752 41.429 40.752C41.4242 40.752 41.4193 40.752 41.4145 40.752C41.4096 40.752 41.4048 40.752 41.3999 40.752C41.3951 40.752 41.3902 40.752 41.3854 40.752C41.3805 40.752 41.3756 40.752 41.3708 40.752C41.3659 40.752 41.3611 40.752 41.3562 40.752C41.3514 40.752 41.3465 40.752 41.3416 40.752C41.3368 40.752 41.3319 40.752 41.3271 40.752C41.3222 40.752 41.3173 40.752 41.3125 40.752C41.3076 40.752 41.3027 40.752 41.2979 40.752C41.293 40.752 41.2881 40.752 41.2833 40.752C41.2784 40.752 41.2735 40.752 41.2687 40.752C41.2638 40.752 41.2589 40.752 41.254 40.752C41.2492 40.752 41.2443 40.752 41.2394 40.752C41.2345 40.752 41.2297 40.752 41.2248 40.752C41.2199 40.752 41.215 40.752 41.2102 40.752C41.2053 40.752 41.2004 40.752 41.1955 40.752C41.1906 40.752 41.1857 40.752 41.1809 40.752C41.176 40.752 41.1711 40.752 41.1662 40.752C41.1613 40.752 41.1564 40.752 41.1515 40.752C41.1467 40.752 41.1418 40.752 41.1369 40.752C41.132 40.752 41.1271 40.752 41.1222 40.752C41.1173 40.752 41.1124 40.752 41.1075 40.752C41.1026 40.752 41.0977 40.752 41.0928 40.752C41.0879 40.752 41.083 40.752 41.0781 40.752C41.0732 40.752 41.0683 40.752 41.0634 40.752C41.0585 40.752 41.0536 40.752 41.0487 40.752C41.0438 40.752 41.0389 40.752 41.034 40.752C41.0291 40.752 41.0242 40.752 41.0193 40.752C41.0144 40.752 41.0095 40.752 41.0046 40.752C40.9996 40.752 40.9947 40.752 40.9898 40.752C40.9849 40.752 40.98 40.752 40.9751 40.752C40.9702 40.752 40.9652 40.752 40.9603 40.752C40.9554 40.752 40.9505 40.752 40.9456 40.752C40.9407 40.752 40.9357 40.752 40.9308 40.752C40.9259 40.752 40.921 40.752 40.916 40.752C40.9111 40.752 40.9062 40.752 40.9013 40.752C40.8963 40.752 40.8914 40.752 40.8865 40.752C40.8816 40.752 40.8766 40.752 40.8717 40.752C40.8668 40.752 40.8618 40.752 40.8569 40.752C40.852 40.752 40.847 40.752 40.8421 40.752C40.8372 40.752 40.8322 40.752 40.8273 40.752C40.8224 40.752 40.8174 40.752 40.8125 40.752C40.8075 40.752 40.8026 40.752 40.7977 40.752C40.7927 40.752 40.7878 40.752 40.7828 40.752C40.7779 40.752 40.7729 40.752 40.768 40.752C40.7631 40.752 40.7581 40.752 40.7532 40.752C40.7482 40.752 40.7433 40.752 40.7383 40.752C40.7334 40.752 40.7284 40.752 40.7235 40.752C40.7185 40.752 40.7135 40.752 40.7086 40.752C40.7036 40.752 40.6987 40.752 40.6937 40.752C40.6888 40.752 40.6838 40.752 40.6789 40.752C40.6739 40.752 40.6689 40.752 40.664 40.752C40.659 40.752 40.654 40.752 40.6491 40.752C40.6441 40.752 40.6392 40.752 40.6342 40.752C40.6292 40.752 40.6243 40.752 40.6193 40.752C40.6143 40.752 40.6094 40.752 40.6044 40.752C40.5994 40.752 40.5944 40.752 40.5895 40.752C40.5845 40.752 40.5795 40.752 40.5746 40.752C40.5696 40.752 40.5646 40.752 40.5596 40.752C40.5547 40.752 40.5497 40.752 40.5447 40.752C40.5397 40.752 40.5347 40.752 40.5298 40.752C40.5248 40.752 40.5198 40.752 40.5148 40.752C40.5098 40.752 40.5048 40.752 40.4999 40.752C40.4949 40.752 40.4899 40.752 40.4849 40.752C40.4799 40.752 40.4749 40.752 40.4699 40.752C40.4649 40.752 40.4599 40.752 40.455 40.752C40.45 40.752 40.445 40.752 40.44 40.752C40.435 40.752 40.43 40.752 40.425 40.752C40.42 40.752 40.415 40.752 40.41 40.752C40.405 40.752 40.4 40.752 40.395 40.752C40.39 40.752 40.385 40.752 40.38 40.752C40.375 40.752 40.37 40.752 40.365 40.752C40.36 40.752 40.355 40.752 40.35 40.752C40.345 40.752 40.3399 40.752 40.3349 40.752C40.3299 40.752 40.3249 40.752 40.3199 40.752C40.3149 40.752 40.3099 40.752 40.3049 40.752C40.2999 40.752 40.2948 40.752 40.2898 40.752C40.2848 40.752 40.2798 40.752 40.2748 40.752C40.2698 40.752 40.2647 40.752 40.2597 40.752C40.2547 40.752 40.2497 40.752 40.2446 40.752C40.2396 40.752 40.2346 40.752 40.2296 40.752C40.2246 40.752 40.2195 40.752 40.2145 40.752C40.2095 40.752 40.2044 40.752 40.1994 40.752C40.1944 40.752 40.1894 40.752 40.1843 40.752C40.1793 40.752 40.1743 40.752 40.1692 40.752C40.1642 40.752 40.1592 40.752 40.1541 40.752C40.1491 40.752 40.144 40.752 40.139 40.752C40.134 40.752 40.1289 40.752 40.1239 40.752C40.1189 40.752 40.1138 40.752 40.1088 40.752C40.1037 40.752 40.0987 40.752 40.0936 40.752C40.0886 40.752 40.0835 40.752 40.0785 40.752C40.0735 40.752 40.0684 40.752 40.0634 40.752C40.0583 40.752 40.0533 40.752 40.0482 40.752C40.0432 40.752 40.0381 40.752 40.0331 40.752C40.028 40.752 40.0229 40.752 40.0179 40.752C40.0128 40.752 40.0078 40.752 40.0027 40.752C39.9977 40.752 39.9926 40.752 39.9875 40.752C39.9825 40.752 39.9774 40.752 39.9724 40.752C39.9673 40.752 39.9622 40.752 39.9572 40.752C39.9521 40.752 39.947 40.752 39.942 40.752C39.9369 40.752 39.9318 40.752 39.9268 40.752C39.9217 40.752 39.9166 40.752 39.9116 40.752C39.9065 40.752 39.9014 40.752 39.8963 40.752C39.8913 40.752 39.8862 40.752 39.8811 40.752C39.876 40.752 39.871 40.752 39.8659 40.752C39.8608 40.752 39.8557 40.752 39.8507 40.752C39.8456 40.752 39.8405 40.752 39.8354 40.752C39.8303 40.752 39.8252 40.752 39.8202 40.752C39.8151 40.752 39.81 40.752 39.8049 40.752C39.7998 40.752 39.7947 40.752 39.7896 40.752C39.7846 40.752 39.7795 40.752 39.7744 40.752C39.7693 40.752 39.7642 40.752 39.7591 40.752C39.754 40.752 39.7489 40.752 39.7438 40.752C39.7387 40.752 39.7336 40.752 39.7285 40.752C39.7234 40.752 39.7183 40.752 39.7132 40.752C39.7081 40.752 39.703 40.752 39.6979 40.752C39.6928 40.752 39.6877 40.752 39.6826 40.752C39.6775 40.752 39.6724 40.752 39.6673 40.752C39.6622 40.752 39.6571 40.752 39.652 40.752C39.6469 40.752 39.6418 40.752 39.6367 40.752C39.6315 40.752 39.6264 40.752 39.6213 40.752C39.6162 40.752 39.6111 40.752 39.606 40.752C39.6009 40.752 39.5957 40.752 39.5906 40.752C39.5855 40.752 39.5804 40.752 39.5753 40.752C39.5702 40.752 39.565 40.752 39.5599 40.752C39.5548 40.752 39.5497 40.752 39.5445 40.752C39.5394 40.752 39.5343 40.752 39.5292 40.752C39.524 40.752 39.5189 40.752 39.5138 40.752C39.5087 40.752 39.5035 40.752 39.4984 40.752C39.4933 40.752 39.4881 40.752 39.483 40.752C39.4779 40.752 39.4727 40.752 39.4676 40.752C39.4625 40.752 39.4573 40.752 39.4522 40.752C39.4471 40.752 39.4419 40.752 39.4368 40.752C39.4316 40.752 39.4265 40.752 39.4214 40.752C39.4162 40.752 39.4111 40.752 39.4059 40.752C39.4008 40.752 39.3956 40.752 39.3905 40.752C39.3854 40.752 39.3802 40.752 39.3751 40.752C39.3699 40.752 39.3648 40.752 39.3596 40.752C39.3545 40.752 39.3493 40.752 39.3442 40.752C39.339 40.752 39.3339 40.752 39.3287 40.752C39.3235 40.752 39.3184 40.752 39.3132 40.752C39.3081 40.752 39.3029 40.752 39.2978 40.752C39.2926 40.752 39.2874 40.752 39.2823 40.752C39.2771 40.752 39.272 40.752 39.2668 40.752C39.2616 40.752 39.2565 40.752 39.2513 40.752C39.2461 40.752 39.241 40.752 39.2358 40.752C39.2306 40.752 39.2255 40.752 39.2203 40.752C39.2151 40.752 39.21 40.752 39.2048 40.752C39.1996 40.752 39.1944 40.752 39.1893 40.752C39.1841 40.752 39.1789 40.752 39.1737 40.752C39.1686 40.752 39.1634 40.752 39.1582 40.752C39.153 40.752 39.1478 40.752 39.1427 40.752C39.1375 40.752 39.1323 40.752 39.1271 40.752C39.1219 40.752 39.1167 40.752 39.1116 40.752C39.1064 40.752 39.1012 40.752 39.096 40.752C39.0908 40.752 39.0856 40.752 39.0804 40.752C39.0752 40.752 39.0701 40.752 39.0649 40.752C39.0597 40.752 39.0545 40.752 39.0493 40.752C39.0441 40.752 39.0389 40.752 39.0337 40.752C39.0285 40.752 39.0233 40.752 39.0181 40.752C39.0129 40.752 39.0077 40.752 39.0025 40.752C38.9973 40.752 38.9921 40.752 38.9869 40.752C38.9817 40.752 38.9765 40.752 38.9713 40.752C38.9661 40.752 38.9609 40.752 38.9557 40.752C38.9505 40.752 38.9453 40.752 38.94 40.752C38.9348 40.752 38.9296 40.752 38.9244 40.752C38.9192 40.752 38.914 40.752 38.9088 40.752C38.9036 40.752 38.8983 40.752 38.8931 40.752C38.8879 40.752 38.8827 40.752 38.8775 40.752C38.8723 40.752 38.867 40.752 38.8618 40.752C38.8566 40.752 38.8514 40.752 38.8462 40.752C38.8409 40.752 38.8357 40.752 38.8305 40.752C38.8253 40.752 38.82 40.752 38.8148 40.752C38.8096 40.752 38.8044 40.752 38.7991 40.752C38.7939 40.752 38.7887 40.752 38.7834 40.752C38.7782 40.752 38.773 40.752 38.7677 40.752C38.7625 40.752 38.7573 40.752 38.752 40.752C38.7468 40.752 38.7416 40.752 38.7363 40.752C38.7311 40.752 38.7258 40.752 38.7206 40.752C38.7154 40.752 38.7101 40.752 38.7049 40.752C38.6996 40.752 38.6944 40.752 38.6891 40.752C38.6839 40.752 38.6787 40.752 38.6734 40.752C38.6682 40.752 38.6629 40.752 38.6577 40.752C38.6524 40.752 38.6472 40.752 38.6419 40.752C38.6367 40.752 38.6314 40.752 38.6262 40.752C38.6209 40.752 38.6157 40.752 38.6104 40.752C38.6051 40.752 38.5999 40.752 38.5946 40.752C38.5894 40.752 38.5841 40.752 38.5789 40.752C38.5736 40.752 38.5683 40.752 38.5631 40.752C38.5578 40.752 38.5525 40.752 38.5473 40.752C38.542 40.752 38.5367 40.752 38.5315 40.752C38.5262 40.752 38.5209 40.752 38.5157 40.752C38.5104 40.752 38.5051 40.752 38.4999 40.752C38.4946 40.752 38.4893 40.752 38.4841 40.752C38.4788 40.752 38.4735 40.752 38.4682 40.752C38.463 40.752 38.4577 40.752 38.4524 40.752C38.4471 40.752 38.4418 40.752 38.4366 40.752C38.4313 40.752 38.426 40.752 38.4207 40.752C38.4154 40.752 38.4102 40.752 38.4049 40.752C38.3996 40.752 38.3943 40.752 38.389 40.752C38.3837 40.752 38.3784 40.752 38.3732 40.752C38.3679 40.752 38.3626 40.752 38.3573 40.752C38.352 40.752 38.3467 40.752 38.3414 40.752C38.3361 40.752 38.3308 40.752 38.3255 40.752C38.3202 40.752 38.3149 40.752 38.3096 40.752C38.3043 40.752 38.299 40.752 38.2937 40.752C38.2884 40.752 38.2831 40.752 38.2778 40.752C38.2725 40.752 38.2672 40.752 38.2619 40.752C38.2566 40.752 38.2513 40.752 38.246 40.752C38.2407 40.752 38.2354 40.752 38.2301 40.752C38.2248 40.752 38.2195 40.752 38.2142 40.752C38.2089 40.752 38.2035 40.752 38.1982 40.752C38.1929 40.752 38.1876 40.752 38.1823 40.752C38.177 40.752 38.1717 40.752 38.1663 40.752C38.161 40.752 38.1557 40.752 38.1504 40.752C38.1451 40.752 38.1397 40.752 38.1344 40.752C38.1291 40.752 38.1238 40.752 38.1185 40.752C38.1131 40.752 38.1078 40.752 38.1025 40.752C38.0972 40.752 38.0918 40.752 38.0865 40.752C38.0812 40.752 38.0758 40.752 38.0705 40.752C38.0652 40.752 38.0599 40.752 38.0545 40.752C38.0492 40.752 38.0439 40.752 38.0385 40.752C38.0332 40.752 38.0278 40.752 38.0225 40.752C38.0172 40.752 38.0118 40.752 38.0065 40.752C38.0012 40.752 37.9958 40.752 37.9905 40.752C37.9851 40.752 37.9798 40.752 37.9745 40.752C37.9691 40.752 37.9638 40.752 37.9584 40.752C37.9531 40.752 37.9477 40.752 37.9424 40.752C37.937 40.752 37.9317 40.752 37.9263 40.752C37.921 40.752 37.9156 40.752 37.9103 40.752C37.9049 40.752 37.8996 40.752 37.8942 40.752C37.8889 40.752 37.8835 40.752 37.8781 40.752C37.8728 40.752 37.8674 40.752 37.8621 40.752C37.8567 40.752 37.8514 40.752 37.846 40.752C37.8406 40.752 37.8353 40.752 37.8299 40.752C37.8245 40.752 37.8192 40.752 37.8138 40.752C37.8085 40.752 37.8031 40.752 37.7977 40.752C37.7923 40.752 37.787 40.752 37.7816 40.752C37.7762 40.752 37.7709 40.752 37.7655 40.752C37.7601 40.752 37.7548 40.752 37.7494 40.752C37.744 40.752 37.7386 40.752 37.7333 40.752C37.7279 40.752 37.7225 40.752 37.7171 40.752C37.7117 40.752 37.7064 40.752 37.701 40.752C37.6956 40.752 37.6902 40.752 37.6848 40.752C37.6795 40.752 37.6741 40.752 37.6687 40.752C37.6633 40.752 37.6579 40.752 37.6525 40.752C37.6471 40.752 37.6417 40.752 37.6364 40.752C37.631 40.752 37.6256 40.752 37.6202 40.752C37.6148 40.752 37.6094 40.752 37.604 40.752C37.5986 40.752 37.5932 40.752 37.5878 40.752C37.5824 40.752 37.577 40.752 37.5716 40.752C37.5662 40.752 37.5608 40.752 37.5554 40.752C37.55 40.752 37.5446 40.752 37.5392 40.752C37.5338 40.752 37.5284 40.752 37.523 40.752C37.5176 40.752 37.5122 40.752 37.5068 40.752C37.5014 40.752 37.496 40.752 37.4906 40.752C37.4852 40.752 37.4797 40.752 37.4743 40.752C37.4689 40.752 37.4635 40.752 37.4581 40.752C37.4527 40.752 37.4473 40.752 37.4419 40.752C37.4364 40.752 37.431 40.752 37.4256 40.752C37.4202 40.752 37.4148 40.752 37.4093 40.752C37.4039 40.752 37.3985 40.752 37.3931 40.752C37.3877 40.752 37.3822 40.752 37.3768 40.752C37.3714 40.752 37.366 40.752 37.3605 40.752C37.3551 40.752 37.3497 40.752 37.3442 40.752C37.3388 40.752 37.3334 40.752 37.328 40.752C37.3225 40.752 37.3171 40.752 37.3117 40.752C37.3062 40.752 37.3008 40.752 37.2954 40.752C37.2899 40.752 37.2845 40.752 37.279 40.752C37.2736 40.752 37.2682 40.752 37.2627 40.752C37.2573 40.752 37.2518 40.752 37.2464 40.752C37.241 40.752 37.2355 40.752 37.2301 40.752C37.2246 40.752 37.2192 40.752 37.2137 40.752C37.2083 40.752 37.2028 40.752 37.1974 40.752C37.1919 40.752 37.1865 40.752 37.181 40.752C37.1756 40.752 37.1701 40.752 37.1647 40.752C37.1592 40.752 37.1538 40.752 37.1483 40.752C37.1429 40.752 37.1374 40.752 37.132 40.752C37.1265 40.752 37.121 40.752 37.1156 40.752C37.1101 40.752 37.1047 40.752 37.0992 40.752C37.0937 40.752 37.0883 40.752 37.0828 40.752C37.0773 40.752 37.0719 40.752 37.0664 40.752C37.0609 40.752 37.0555 40.752 37.05 40.752C37.0445 40.752 37.0391 40.752 37.0336 40.752C37.0281 40.752 37.0227 40.752 37.0172 40.752C37.0117 40.752 37.0062 40.752 37.0008 40.752C36.9953 40.752 36.9898 40.752 36.9843 40.752C36.9788 40.752 36.9734 40.752 36.9679 40.752C36.9624 40.752 36.9569 40.752 36.9514 40.752C36.946 40.752 36.9405 40.752 36.935 40.752C36.9295 40.752 36.924 40.752 36.9185 40.752C36.9131 40.752 36.9076 40.752 36.9021 40.752C36.8966 40.752 36.8911 40.752 36.8856 40.752C36.8801 40.752 36.8746 40.752 36.8691 40.752C36.8636 40.752 36.8581 40.752 36.8527 40.752C36.8472 40.752 36.8417 40.752 36.8362 40.752C36.8307 40.752 36.8252 40.752 36.8197 40.752C36.8142 40.752 36.8087 40.752 36.8032 40.752C36.7977 40.752 36.7922 40.752 36.7867 40.752C36.7812 40.752 36.7757 40.752 36.7701 40.752C36.7646 40.752 36.7591 40.752 36.7536 40.752C36.7481 40.752 36.7426 40.752 36.7371 40.752C36.7316 40.752 36.7261 40.752 36.7206 40.752C36.715 40.752 36.7095 40.752 36.704 40.752C36.6985 40.752 36.693 40.752 36.6875 40.752C36.682 40.752 36.6764 40.752 36.6709 40.752C36.6654 40.752 36.6599 40.752 36.6544 40.752C36.6488 40.752 36.6433 40.752 36.6378 40.752C36.6323 40.752 36.6267 40.752 36.6212 40.752C36.6157 40.752 36.6102 40.752 36.6046 40.752C36.5991 40.752 36.5936 40.752 36.588 40.752C36.5825 40.752 36.577 40.752 36.5714 40.752C36.5659 40.752 36.5604 40.752 36.5548 40.752C36.5493 40.752 36.5438 40.752 36.5382 40.752C36.5327 40.752 36.5272 40.752 36.5216 40.752C36.5161 40.752 36.5105 40.752 36.505 40.752C36.4995 40.752 36.4939 40.752 36.4884 40.752C36.4828 40.752 36.4773 40.752 36.4717 40.752C36.4662 40.752 36.4607 40.752 36.4551 40.752C36.4496 40.752 36.444 40.752 36.4385 40.752C36.4329 40.752 36.4274 40.752 36.4218 40.752C36.4163 40.752 36.4107 40.752 36.4051 40.752C36.3996 40.752 36.394 40.752 36.3885 40.752C36.3829 40.752 36.3774 40.752 36.3718 40.752C36.3662 40.752 36.3607 40.752 36.3551 40.752C36.3496 40.752 36.344 40.752 36.3384 40.752C36.3329 40.752 36.3273 40.752 36.3217 40.752C36.3162 40.752 36.3106 40.752 36.305 40.752C36.2995 40.752 36.2939 40.752 36.2883 40.752C36.2828 40.752 36.2772 40.752 36.2716 40.752C36.2661 40.752 36.2605 40.752 36.2549 40.752C36.2493 40.752 36.2438 40.752 36.2382 40.752C36.2326 40.752 36.227 40.752 36.2215 40.752C36.2159 40.752 36.2103 40.752 36.2047 40.752C36.1991 40.752 36.1935 40.752 36.188 40.752C36.1824 40.752 36.1768 40.752 36.1712 40.752C36.1656 40.752 36.16 40.752 36.1545 40.752C36.1489 40.752 36.1433 40.752 36.1377 40.752C36.1321 40.752 36.1265 40.752 36.1209 40.752C36.1153 40.752 36.1097 40.752 36.1041 40.752C36.0985 40.752 36.0929 40.752 36.0874 40.752C36.0818 40.752 36.0762 40.752 36.0706 40.752C36.065 40.752 36.0594 40.752 36.0538 40.752C36.0482 40.752 36.0426 40.752 36.037 40.752C36.0314 40.752 36.0258 40.752 36.0201 40.752C36.0145 40.752 36.0089 40.752 36.0033 40.752C35.9977 40.752 35.9921 40.752 35.9865 40.752C35.9809 40.752 35.9753 40.752 35.9697 40.752C35.9641 40.752 35.9584 40.752 35.9528 40.752C35.9472 40.752 35.9416 40.752 35.936 40.752C35.9304 40.752 35.9248 40.752 35.9191 40.752C35.9135 40.752 35.9079 40.752 35.9023 40.752C35.8967 40.752 35.891 40.752 35.8854 40.752C35.8798 40.752 35.8742 40.752 35.8685 40.752C35.8629 40.752 35.8573 40.752 35.8517 40.752C35.846 40.752 35.8404 40.752 35.8348 40.752C35.8292 40.752 35.8235 40.752 35.8179 40.752C35.8123 40.752 35.8066 40.752 35.801 40.752C35.7954 40.752 35.7897 40.752 35.7841 40.752C35.7785 40.752 35.7728 40.752 35.7672 40.752C35.7615 40.752 35.7559 40.752 35.7503 40.752C35.7446 40.752 35.739 40.752 35.7333 40.752C35.7277 40.752 35.7221 40.752 35.7164 40.752C35.7108 40.752 35.7051 40.752 35.6995 40.752C35.6938 40.752 35.6882 40.752 35.6825 40.752C35.6769 40.752 35.6712 40.752 35.6656 40.752C35.6599 40.752 35.6543 40.752 35.6486 40.752C35.643 40.752 35.6373 40.752 35.6317 40.752C35.626 40.752 35.6203 40.752 35.6147 40.752C35.609 40.752 35.6034 40.752 35.5977 40.752C35.5921 40.752 35.5864 40.752 35.5807 40.752C35.5751 40.752 35.5694 40.752 35.5637 40.752C35.5581 40.752 35.5524 40.752 35.5467 40.752C35.5411 40.752 35.5354 40.752 35.5297 40.752C35.5241 40.752 35.5184 40.752 35.5127 40.752C35.5071 40.752 35.5014 40.752 35.4957 40.752C35.49 40.752 35.4844 40.752 35.4787 40.752C35.473 40.752 35.4673 40.752 35.4617 40.752C35.456 40.752 35.4503 40.752 35.4446 40.752C35.4389 40.752 35.4333 40.752 35.4276 40.752C35.4219 40.752 35.4162 40.752 35.4105 40.752C35.4049 40.752 35.3992 40.752 35.3935 40.752C35.3878 40.752 35.3821 40.752 35.3764 40.752C35.3707 40.752 35.365 40.752 35.3594 40.752C35.3537 40.752 35.348 40.752 35.3423 40.752C35.3366 40.752 35.3309 40.752 35.3252 40.752C35.3195 40.752 35.3138 40.752 35.3081 40.752C35.3024 40.752 35.2967 40.752 35.291 40.752C35.2853 40.752 35.2796 40.752 35.2739 40.752C35.2682 40.752 35.2625 40.752 35.2568 40.752C35.2511 40.752 35.2454 40.752 35.2397 40.752C35.234 40.752 35.2283 40.752 35.2226 40.752C35.2169 40.752 35.2111 40.752 35.2054 40.752C35.1997 40.752 35.194 40.752 35.1883 40.752C35.1826 40.752 35.1769 40.752 35.1712 40.752C35.1654 40.752 35.1597 40.752 35.154 40.752C35.1483 40.752 35.1426 40.752 35.1369 40.752C35.1311 40.752 35.1254 40.752 35.1197 40.752C35.114 40.752 35.1083 40.752 35.1025 40.752C35.0968 40.752 35.0911 40.752 35.0854 40.752C35.0796 40.752 35.0739 40.752 35.0682 40.752C35.0624 40.752 35.0567 40.752 35.051 40.752C35.0453 40.752 35.0395 40.752 35.0338 40.752C35.0281 40.752 35.0223 40.752 35.0166 40.752C35.0109 40.752 35.0051 40.752 34.9994 40.752C34.9936 40.752 34.9879 40.752 34.9822 40.752C34.9764 40.752 34.9707 40.752 34.965 40.752C34.9592 40.752 34.9535 40.752 34.9477 40.752C34.942 40.752 34.9362 40.752 34.9305 40.752C34.9247 40.752 34.919 40.752 34.9132 40.752C34.9075 40.752 34.9018 40.752 34.896 40.752V46.752ZM42.9451 46.7509C45.3192 46.6867 47.4082 46.6225 49.2111 46.5581L48.9969 40.5619C47.2158 40.6255 45.1448 40.6893 42.7829 40.7531L42.9451 46.7509ZM52.104 43.56V36.264H46.104V43.56H52.104ZM49.029 33.2649L45.189 33.3609L45.339 39.3591L49.179 39.2631L49.029 33.2649ZM45.0357 33.3687L32.4597 34.3287L32.9163 40.3113L45.4923 39.3513L45.0357 33.3687ZM35.688 37.32V24.072H29.688V37.32H35.688ZM32.688 27.072H67.44V21.072H32.688V27.072ZM64.44 24.072V52.968H70.44V24.072H64.44ZM64.7314 54.2578L65.6914 56.2738L71.1086 53.6942L70.1486 51.6782L64.7314 54.2578ZM65.4 54.984C65.4 53.6853 66.2535 53.0317 66.3664 52.9483C66.5435 52.8176 66.6087 52.8222 66.383 52.9028C65.9675 53.0512 65.1709 53.2488 63.8748 53.4648L64.8612 59.3832C66.2532 59.1512 67.4725 58.8848 68.401 58.5532C68.8473 58.3938 69.4165 58.1544 69.9296 57.7757C70.3786 57.4443 71.4 56.5387 71.4 54.984H65.4ZM63.9437 53.4542C61.4872 53.8051 57.1325 54 50.736 54V60C57.1395 60 61.8728 59.8109 64.7923 59.3938L63.9437 53.4542ZM50.736 54H20.208V60H50.736V54ZM74.9243 57L72.2391 55.662L70.0775 60H74.9243V57ZM103.052 0.552V-2.448H101.195L100.367 -0.785986L103.052 0.552ZM128.012 0.552L130.699 -0.782324L129.872 -2.448H128.012V0.552ZM156.044 57V60H160.884L158.731 55.6657L156.044 57ZM135.404 57L132.677 58.2491L133.478 60H135.404V57ZM130.7 46.728L133.428 45.4789L132.626 43.728H130.7V46.728ZM100.364 46.728V43.728H98.5332L97.6961 45.3565L100.364 46.728ZM95.0843 57V60H96.9153L97.7524 58.3715L95.0843 57ZM105.644 33.48L102.919 32.2261L100.962 36.48H105.644V33.48ZM125.324 33.48V36.48H129.987L128.054 32.2367L125.324 33.48ZM116.012 13.032L118.742 11.7887L117.942 10.032H116.012V13.032ZM115.052 13.032V10.032H113.13L112.327 11.7781L115.052 13.032ZM77.6094 58.338L105.737 1.88999L100.367 -0.785986L72.2391 55.662L77.6094 58.338ZM103.052 3.552H128.012V-2.448H103.052V3.552ZM125.325 1.88632L153.357 58.3343L158.731 55.6657L130.699 -0.782324L125.325 1.88632ZM156.044 54H135.404V60H156.044V54ZM138.132 55.7509L133.428 45.4789L127.973 47.9771L132.677 58.2491L138.132 55.7509ZM130.7 43.728H100.364V49.728H130.7V43.728ZM97.6961 45.3565L92.4161 55.6285L97.7524 58.3715L103.032 48.0995L97.6961 45.3565ZM95.0843 54H74.9243V60H95.0843V54ZM105.644 36.48H125.324V30.48H105.644V36.48ZM128.054 32.2367L118.742 11.7887L113.282 14.2753L122.594 34.7233L128.054 32.2367ZM116.012 10.032H115.052V16.032H116.012V10.032ZM112.327 11.7781L102.919 32.2261L108.37 34.7339L117.778 14.2859L112.327 11.7781ZM165.484 57H162.484V60H165.484V57ZM165.484 8.232H168.484V8.04523L168.461 7.85989L165.484 8.232ZM164.524 0.552V-2.448H161.125L161.547 0.924104L164.524 0.552ZM187.756 0.552L190.436 -0.795763L189.605 -2.448H187.756V0.552ZM204.652 34.152L201.972 35.4998L204.622 40.77L207.32 35.524L204.652 34.152ZM221.932 0.552V-2.448H220.101L219.264 -0.820044L221.932 0.552ZM243.916 0.552H246.916V-2.448H243.916V0.552ZM243.916 57V60H246.916V57H243.916ZM225.58 57H222.58V60H225.58V57ZM225.58 24.648H228.58V21.648H225.58V24.648ZM224.524 24.648V21.648H222.472L221.728 23.5607L224.524 24.648ZM220.492 35.016L223.246 36.2056L223.268 36.1549L223.288 36.1033L220.492 35.016ZM213.484 51.24V54.24H215.456L216.238 52.4296L213.484 51.24ZM196.012 51.24L193.276 52.4704L194.071 54.24H196.012V51.24ZM188.716 35.016L185.911 36.0807L185.943 36.1646L185.98 36.2464L188.716 35.016ZM184.78 24.648L187.584 23.5833L186.85 21.648H184.78V24.648ZM183.82 24.648V21.648H180.82V24.648H183.82ZM183.82 57V60H186.82V57H183.82ZM168.484 57V8.232H162.484V57H168.484ZM168.461 7.85989L167.501 0.179896L161.547 0.924104L162.507 8.6041L168.461 7.85989ZM164.524 3.552H187.756V-2.448H164.524V3.552ZM185.076 1.89976L201.972 35.4998L207.332 32.8042L190.436 -0.795763L185.076 1.89976ZM207.32 35.524L224.6 1.92404L219.264 -0.820044L201.984 32.78L207.32 35.524ZM221.932 3.552H243.916V-2.448H221.932V3.552ZM240.916 0.552V57H246.916V0.552H240.916ZM243.916 54H225.58V60H243.916V54ZM228.58 57V24.648H222.58V57H228.58ZM225.58 21.648H224.524V27.648H225.58V21.648ZM221.728 23.5607L217.696 33.9287L223.288 36.1033L227.32 25.7353L221.728 23.5607ZM217.738 33.8264L210.73 50.0504L216.238 52.4296L223.246 36.2056L217.738 33.8264ZM213.484 48.24H196.012V54.24H213.484V48.24ZM198.748 50.0096L191.452 33.7856L185.98 36.2464L193.276 52.4704L198.748 50.0096ZM191.52 33.9513L187.584 23.5833L181.975 25.7127L185.911 36.0807L191.52 33.9513ZM184.78 21.648H183.82V27.648H184.78V21.648ZM180.82 24.648V57H186.82V24.648H180.82ZM183.82 54H165.484V60H183.82V54ZM259.305 57H256.305V60H259.305V57ZM259.305 0.552V-2.448H256.305V0.552H259.305ZM320.937 0.552H323.937V-2.448H320.937V0.552ZM320.937 13.608V16.608H323.937V13.608H320.937ZM278.025 13.608V10.608H275.025V13.608H278.025ZM278.025 21.576H275.025V24.576H278.025V21.576ZM309.801 21.576H312.801V18.576H309.801V21.576ZM309.801 34.92V37.92H312.801V34.92H309.801ZM278.025 34.92V31.92H275.025V34.92H278.025ZM278.025 43.848H275.025V46.848H278.025V43.848ZM319.401 43.848L322.11 42.5582L321.295 40.848H319.401V43.848ZM325.161 55.944H328.161V55.2662L327.87 54.6542L325.161 55.944ZM322.569 56.712L322.9 59.6937L322.955 59.6876L323.009 59.6796L322.569 56.712ZM262.305 57V0.552H256.305V57H262.305ZM259.305 3.552H320.937V-2.448H259.305V3.552ZM317.937 0.552V13.608H323.937V0.552H317.937ZM320.937 10.608H278.025V16.608H320.937V10.608ZM275.025 13.608V21.576H281.025V13.608H275.025ZM278.025 24.576H309.801V18.576H278.025V24.576ZM306.801 21.576V34.92H312.801V21.576H306.801ZM309.801 31.92H278.025V37.92H309.801V31.92ZM275.025 34.92V43.848H281.025V34.92H275.025ZM278.025 46.848H319.401V40.848H278.025V46.848ZM316.692 45.1378L322.452 57.2338L327.87 54.6542L322.11 42.5582L316.692 45.1378ZM322.161 55.944C322.161 55.074 322.541 54.4452 322.828 54.1054C323.097 53.7866 323.364 53.6175 323.47 53.5551C323.679 53.4309 323.795 53.4117 323.661 53.4516C323.437 53.518 322.958 53.6217 322.129 53.7444L323.009 59.6796C323.908 59.5463 324.725 59.394 325.365 59.2044C325.663 59.1163 326.103 58.9691 326.528 58.7169C326.712 58.6084 328.161 57.7703 328.161 55.944H322.161ZM322.238 53.7303C320.692 53.902 317.866 54 313.641 54V60C317.864 60 320.99 59.906 322.9 59.6937L322.238 53.7303ZM313.641 54H259.305V60H313.641V54ZM359.516 52.488L357.394 54.6093L357.416 54.6314L357.439 54.653L359.516 52.488ZM359.516 5.16L357.394 3.03868L357.394 3.03868L359.516 5.16ZM417.116 5.16L414.994 7.28132L415.005 7.29225L415.016 7.30307L417.116 5.16ZM417.116 52.488L419.192 54.653L419.204 54.6421L419.215 54.6311L417.116 52.488ZM375.26 15.144L373.385 12.8014L373.385 12.8014L375.26 15.144ZM375.26 42.312L373.317 44.5978L373.317 44.5978L375.26 42.312ZM374.396 54C367.966 54 363.926 52.5619 361.592 50.323L357.439 54.653C361.377 58.4301 367.257 60 374.396 60V54ZM361.637 50.3667C359.365 48.0949 357.908 44.1711 357.908 37.896H351.908C351.908 44.9329 353.522 50.7371 357.394 54.6093L361.637 50.3667ZM357.908 37.896V19.56H351.908V37.896H357.908ZM357.908 19.56C357.908 13.4327 359.356 9.56235 361.637 7.28132L357.394 3.03868C353.531 6.90164 351.908 12.6313 351.908 19.56H357.908ZM361.637 7.28132C363.895 5.02285 367.899 3.552 374.396 3.552V-2.448C367.196 -2.448 361.28 -0.846849 357.394 3.03868L361.637 7.28132ZM374.396 3.552H402.427V-2.448H374.396V3.552ZM402.427 3.552C408.776 3.552 412.727 5.01406 414.994 7.28132L419.237 3.03868C415.36 -0.838066 409.519 -2.448 402.427 -2.448V3.552ZM415.016 7.30307C417.347 9.58609 418.82 13.4477 418.82 19.56H424.82C424.82 12.6163 423.156 6.87791 419.215 3.01692L415.016 7.30307ZM418.82 19.56V37.896H424.82V19.56H418.82ZM418.82 37.896C418.82 44.1565 417.337 48.0713 415.016 50.3449L419.215 54.6311C423.166 50.7607 424.82 44.9475 424.82 37.896H418.82ZM415.039 50.323C412.696 52.5704 408.71 54 402.427 54V60C409.457 60 415.263 58.4216 419.192 54.653L415.039 50.323ZM402.427 54H374.396V60H402.427V54ZM381.02 46.944H395.9V40.944H381.02V46.944ZM395.9 46.944C398.792 46.944 401.521 46.2919 403.535 44.4585C405.603 42.5765 406.388 39.9389 406.388 37.128H400.388C400.388 38.8611 399.924 39.6315 399.496 40.0215C399.014 40.4601 397.999 40.944 395.9 40.944V46.944ZM406.388 37.128V20.328H400.388V37.128H406.388ZM406.388 20.328C406.388 17.5366 405.595 14.9181 403.519 13.0553C401.505 11.2478 398.783 10.608 395.9 10.608V16.608C398.008 16.608 399.03 17.0882 399.512 17.5207C399.932 17.8979 400.388 18.6394 400.388 20.328H406.388ZM395.9 10.608H381.02V16.608H395.9V10.608ZM381.02 10.608C378.139 10.608 375.423 11.171 373.385 12.8014L377.134 17.4866C377.656 17.069 378.78 16.608 381.02 16.608V10.608ZM373.385 12.8014C371.102 14.628 370.34 17.4384 370.34 20.328H376.34C376.34 18.3536 376.857 17.708 377.134 17.4866L373.385 12.8014ZM370.34 20.328V37.128H376.34V20.328H370.34ZM370.34 37.128C370.34 40.0014 371.125 42.7351 373.317 44.5978L377.202 40.0262C376.834 39.7129 376.34 38.9906 376.34 37.128H370.34ZM373.317 44.5978C375.36 46.3351 378.105 46.944 381.02 46.944V40.944C378.814 40.944 377.719 40.4649 377.202 40.0262L373.317 44.5978ZM451.92 57L449.194 58.2536L449.998 60H451.92V57ZM426 0.647999V-2.352H421.318L423.274 1.90164L426 0.647999ZM446.256 0.647999L449.024 -0.509178L448.253 -2.352H446.256V0.647999ZM460.464 34.632L463.314 33.6937L463.277 33.5827L463.232 33.4748L460.464 34.632ZM463.056 42.504L460.206 43.4423L460.885 45.504H463.056V42.504ZM463.92 42.504V45.504H466.116L466.78 43.4107L463.92 42.504ZM466.416 34.632L463.657 33.4549L463.6 33.5877L463.556 33.7253L466.416 34.632ZM480.912 0.647999V-2.352H478.93L478.153 -0.529053L480.912 0.647999ZM500.688 0.647999L503.587 1.42099L504.593 -2.352H500.688V0.647999ZM499.152 6.408L501.86 7.698L501.979 7.44826L502.051 7.18099L499.152 6.408ZM475.056 57V60H476.95L477.764 58.29L475.056 57ZM454.646 55.7464L428.726 -0.605641L423.274 1.90164L449.194 58.2536L454.646 55.7464ZM426 3.648H446.256V-2.352H426V3.648ZM443.488 1.80518L457.696 35.7892L463.232 33.4748L449.024 -0.509178L443.488 1.80518ZM457.614 35.5703L460.206 43.4423L465.906 41.5657L463.314 33.6937L457.614 35.5703ZM463.056 45.504H463.92V39.504H463.056V45.504ZM466.78 43.4107L469.276 35.5387L463.556 33.7253L461.06 41.5973L466.78 43.4107ZM469.175 35.8091L483.671 1.82505L478.153 -0.529053L463.657 33.4549L469.175 35.8091ZM480.912 3.648H500.688V-2.352H480.912V3.648ZM497.789 -0.124991L496.253 5.63501L502.051 7.18099L503.587 1.42099L497.789 -0.124991ZM496.444 5.118L472.348 55.71L477.764 58.29L501.86 7.698L496.444 5.118ZM475.056 54H451.92V60H475.056V54ZM508.399 57H505.399V60H508.399V57ZM508.399 0.552V-2.448H505.399V0.552H508.399ZM570.031 0.552H573.031V-2.448H570.031V0.552ZM570.031 13.608V16.608H573.031V13.608H570.031ZM527.119 13.608V10.608H524.119V13.608H527.119ZM527.119 21.576H524.119V24.576H527.119V21.576ZM558.895 21.576H561.895V18.576H558.895V21.576ZM558.895 34.92V37.92H561.895V34.92H558.895ZM527.119 34.92V31.92H524.119V34.92H527.119ZM527.119 43.848H524.119V46.848H527.119V43.848ZM568.495 43.848L571.203 42.5582L570.389 40.848H568.495V43.848ZM574.255 55.944H577.255V55.2662L576.963 54.6542L574.255 55.944ZM571.663 56.712L571.994 59.6937L572.048 59.6876L572.102 59.6796L571.663 56.712ZM511.399 57V0.552H505.399V57H511.399ZM508.399 3.552H570.031V-2.448H508.399V3.552ZM567.031 0.552V13.608H573.031V0.552H567.031ZM570.031 10.608H527.119V16.608H570.031V10.608ZM524.119 13.608V21.576H530.119V13.608H524.119ZM527.119 24.576H558.895V18.576H527.119V24.576ZM555.895 21.576V34.92H561.895V21.576H555.895ZM558.895 31.92H527.119V37.92H558.895V31.92ZM524.119 34.92V43.848H530.119V34.92H524.119ZM527.119 46.848H568.495V40.848H527.119V46.848ZM565.786 45.1378L571.546 57.2338L576.963 54.6542L571.203 42.5582L565.786 45.1378ZM571.255 55.944C571.255 55.074 571.635 54.4452 571.921 54.1054C572.19 53.7866 572.458 53.6175 572.563 53.5551C572.773 53.4309 572.889 53.4117 572.754 53.4516C572.531 53.518 572.051 53.6217 571.223 53.7444L572.102 59.6796C573.002 59.5463 573.819 59.394 574.459 59.2044C574.756 59.1163 575.197 58.9691 575.622 58.7169C575.805 58.6084 577.255 57.7703 577.255 55.944H571.255ZM571.331 53.7303C569.786 53.902 566.96 54 562.735 54V60C566.958 60 570.083 59.906 571.994 59.6937L571.331 53.7303ZM562.735 54H508.399V60H562.735V54ZM637.628 56.808L636.858 59.7077L636.886 59.7151L636.914 59.7219L637.628 56.808ZM628.316 50.856L630.459 48.7567L630.448 48.7456L630.437 48.7347L628.316 50.856ZM624.284 46.824L626.405 44.7027L626.405 44.7027L624.284 46.824ZM618.716 42.12L616.989 44.5734L617.01 44.5881L617.031 44.6024L618.716 42.12ZM612.764 39.432L611.939 42.3166L611.978 42.3275L612.016 42.3375L612.764 39.432ZM603.548 38.472V35.472H600.548V38.472H603.548ZM603.548 57V60H606.548V57H603.548ZM584.828 57H581.828V60H584.828V57ZM584.828 8.232H587.828V8.04751L587.805 7.86442L584.828 8.232ZM583.868 0.455996V-2.544H580.474L580.89 0.823575L583.868 0.455996ZM638.204 1.992L637.065 4.7675L637.107 4.7849L637.15 4.80099L638.204 1.992ZM644.06 5.928L641.726 7.81301L641.765 7.86231L641.807 7.90988L644.06 5.928ZM644.732 29.832L642.211 28.2044L642.207 28.2111L642.203 28.2179L644.732 29.832ZM635.516 36.264L634.645 33.3929L628.17 35.3552L633.972 38.8365L635.516 36.264ZM640.028 39.24L638.263 41.6662L638.325 41.7111L638.389 41.7528L640.028 39.24ZM645.02 42.312L643.502 44.9001L643.512 44.906L643.523 44.9119L645.02 42.312ZM650.876 45L649.957 47.8561L650.017 47.8753L650.078 47.892L650.876 45ZM655.484 45.96L655.169 48.9435L655.169 48.9435L655.484 45.96ZM657.596 46.152L660.495 46.9218L661.496 43.152H657.596V46.152ZM654.716 57L655.443 59.9104L657.161 59.481L657.615 57.7698L654.716 57ZM651.164 57.576L650.806 54.5974L650.738 54.6055L650.67 54.6168L651.164 57.576ZM619.292 25.608L619.167 22.6106L619.161 22.6108L619.292 25.608ZM623.42 25.32L623.734 28.3035L623.752 28.3016L623.77 28.2995L623.42 25.32ZM627.836 23.304L625.403 21.5475L625.394 21.5607L625.385 21.5739L627.836 23.304ZM627.836 14.856L625.714 16.9773L625.757 17.0197L625.801 17.0604L627.836 14.856ZM603.548 13.704V10.704H600.548V13.704H603.548ZM603.548 25.32H600.548V28.2024L603.428 28.3176L603.548 25.32ZM608.828 25.608L608.628 28.6014L608.678 28.6047L608.728 28.6063L608.828 25.608ZM646.172 54.96C643.905 54.96 641.301 54.619 638.341 53.8941L636.914 59.7219C640.226 60.533 643.318 60.96 646.172 60.96V54.96ZM638.397 53.9083C635.935 53.2552 633.282 51.6384 630.459 48.7567L626.172 52.9553C629.493 56.3456 633.048 58.6968 636.858 59.7077L638.397 53.9083ZM630.437 48.7347L626.405 44.7027L622.162 48.9453L626.194 52.9773L630.437 48.7347ZM626.405 44.7027C624.383 42.6809 622.382 40.9826 620.4 39.6376L617.031 44.6024C618.633 45.6894 620.344 47.1271 622.162 48.9453L626.405 44.7027ZM620.442 39.6666C618.391 38.2231 616.068 37.1843 613.511 36.5265L612.016 42.3375C613.939 42.8317 615.584 43.5849 616.989 44.5734L620.442 39.6666ZM613.588 36.5474C610.988 35.8047 607.872 35.472 604.316 35.472V41.472C607.543 41.472 610.059 41.7793 611.939 42.3166L613.588 36.5474ZM604.316 35.472H603.548V41.472H604.316V35.472ZM600.548 38.472V57H606.548V38.472H600.548ZM603.548 54H584.828V60H603.548V54ZM587.828 57V8.232H581.828V57H587.828ZM587.805 7.86442L586.845 0.0884161L580.89 0.823575L581.85 8.59958L587.805 7.86442ZM583.868 3.456H628.316V-2.544H583.868V3.456ZM628.316 3.456C632.203 3.456 635.067 3.94802 637.065 4.7675L639.342 -0.783506C636.348 -2.01203 632.62 -2.544 628.316 -2.544V3.456ZM637.15 4.80099C639.346 5.62429 640.8 6.66665 641.726 7.81301L646.393 4.04299C644.631 1.86135 642.181 0.279707 639.257 -0.816989L637.15 4.80099ZM641.807 7.90988C642.902 9.15393 643.634 10.5489 644.029 12.1276L649.85 10.6724C649.221 8.15512 648.033 5.90207 646.312 3.94611L641.807 7.90988ZM644.029 12.1276C644.482 13.9375 644.708 15.7732 644.708 17.64H650.708C650.708 15.2828 650.421 12.9585 649.85 10.6724L644.029 12.1276ZM644.708 17.64V19.464H650.708V17.64H644.708ZM644.708 19.464C644.708 22.757 643.866 25.6424 642.211 28.2044L647.252 31.4596C649.565 27.8776 650.708 23.851 650.708 19.464H644.708ZM642.203 28.2179C640.753 30.4892 638.352 32.2696 634.645 33.3929L636.386 39.1351C641.127 37.6984 644.87 35.1908 647.26 31.4461L642.203 28.2179ZM633.972 38.8365C635.502 39.7542 636.931 40.6977 638.263 41.6662L641.792 36.8138C640.308 35.7343 638.729 34.6938 637.059 33.6915L633.972 38.8365ZM638.389 41.7528C639.908 42.7439 641.614 43.7931 643.502 44.9001L646.537 39.7239C644.713 38.6549 643.091 37.6561 641.666 36.7272L638.389 41.7528ZM643.523 44.9119C645.767 46.2043 647.915 47.1996 649.957 47.8561L651.794 42.1439C650.252 41.6484 648.496 40.8517 646.516 39.7121L643.523 44.9119ZM650.078 47.892C652.013 48.4259 653.725 48.7914 655.169 48.9435L655.798 42.9765C654.81 42.8725 653.45 42.5981 651.673 42.108L650.078 47.892ZM655.169 48.9435C656.282 49.0606 657.201 49.152 657.596 49.152V43.152C657.665 43.152 657.679 43.1554 657.569 43.1476C657.484 43.1415 657.361 43.1314 657.195 43.1163C656.864 43.0862 656.4 43.0399 655.798 42.9765L655.169 48.9435ZM654.696 45.3822L651.816 56.2302L657.615 57.7698L660.495 46.9218L654.696 45.3822ZM653.988 54.0896C653.411 54.2338 652.381 54.4083 650.806 54.5974L651.521 60.5546C653.146 60.3597 654.484 60.1502 655.443 59.9104L653.988 54.0896ZM650.67 54.6168C649.319 54.842 647.822 54.96 646.172 54.96V60.96C648.105 60.96 649.936 60.822 651.657 60.5352L650.67 54.6168ZM614.684 28.704C616.323 28.704 617.903 28.6712 619.422 28.6052L619.161 22.6108C617.736 22.6728 616.244 22.704 614.684 22.704V28.704ZM619.416 28.6054C621 28.5394 622.441 28.4396 623.734 28.3035L623.105 22.3365C621.966 22.4564 620.655 22.5486 619.167 22.6106L619.416 28.6054ZM623.77 28.2995C626.264 28.006 628.787 27.1576 630.286 25.0341L625.385 21.5739C625.348 21.6264 624.927 22.122 623.069 22.3405L623.77 28.2995ZM630.268 25.0605C631.515 23.3339 632.083 21.3237 632.083 19.176H626.083C626.083 20.2283 625.82 20.9701 625.403 21.5475L630.268 25.0605ZM632.083 19.176V18.12H626.083V19.176H632.083ZM632.083 18.12C632.083 16.0932 631.462 14.1205 629.87 12.6516L625.801 17.0604C625.873 17.1275 626.083 17.3308 626.083 18.12H632.083ZM629.957 12.7347C628.287 11.0652 625.762 10.704 623.516 10.704V16.704C624.41 16.704 625.019 16.7874 625.407 16.8907C625.798 16.9952 625.817 17.0802 625.714 16.9773L629.957 12.7347ZM623.516 10.704H603.548V16.704H623.516V10.704ZM600.548 13.704V25.32H606.548V13.704H600.548ZM603.428 28.3176C604.996 28.3804 606.729 28.4748 608.628 28.6014L609.027 22.6146C607.086 22.4852 605.299 22.3876 603.667 22.3224L603.428 28.3176ZM608.728 28.6063C610.682 28.6715 612.667 28.704 614.684 28.704V22.704C612.732 22.704 610.813 22.6725 608.927 22.6097L608.728 28.6063Z" fill="black"/>
<defs>
<linearGradient id="paint0_linear_514_124" x1="326.5" y1="-29" x2="326.5" y2="86" gradientUnits="userSpaceOnUse">
<stop stop-color="#F7A12F"/>
<stop offset="1" stop-color="#F7A12F"/>
</linearGradient>
</defs>
</svg>
