<svg width="185" height="64" viewBox="0 0 185 64" fill="none" xmlns="http://www.w3.org/2000/svg">
<rect x="1.5" y="1.5" width="182" height="61" rx="4.5" fill="#F7A12F" stroke="black" stroke-width="3" stroke-linejoin="round"/>
<path d="M44.92 18H52.32C54.7733 18 56.5867 18.6267 57.76 19.88C58.9333 21.1067 59.52 22.96 59.52 25.44C59.52 27.3067 59.16 28.9333 58.44 30.32C57.72 31.7067 56.6933 32.6667 55.36 33.2L60.92 46H57.48L52.04 33.72H48.36V46H44.92V18ZM51.28 31.08C52.8 31.08 53.9733 30.56 54.8 29.52C55.6533 28.4533 56.08 27.0933 56.08 25.44C56.08 23.8667 55.6667 22.68 54.84 21.88C54.04 21.0533 52.8533 20.64 51.28 20.64H48.44V31.08H51.28ZM64.6466 46V18H76.8466V20.72H68.1666V29.68H75.2066V32.4H68.1666V43.28H77.2466V46H64.6466ZM81.7559 18H88.8359C93.7159 18 96.1559 20.48 96.1559 25.44C96.1559 28.0267 95.4493 30.0533 94.0359 31.52C92.6493 32.96 90.6626 33.68 88.0759 33.68H85.2759V46H81.7559V18ZM87.8359 31.04C89.3559 31.04 90.5293 30.52 91.3559 29.48C92.2093 28.44 92.6359 27.0933 92.6359 25.44C92.6359 23.8667 92.2226 22.68 91.3959 21.88C90.5959 21.0533 89.4093 20.64 87.8359 20.64H85.2759V31.04H87.8359ZM99.8809 46V18H103.401V43.36H111.601V46H99.8809ZM112.917 46L119.237 18H124.557L130.637 46H127.357L125.397 37.76H118.117L116.317 46H112.917ZM118.717 35.04H124.797L121.917 20.64H121.637L118.717 35.04ZM134.626 46V34.88L128.986 18H132.506L136.506 31.24L140.586 18H144.106L138.146 34.88V46H134.626Z" fill="white"/>
</svg>
