<svg width="680" height="480" viewBox="0 0 680 480" fill="none" xmlns="http://www.w3.org/2000/svg">
<rect x="1.5" y="1.5" width="677" height="477" rx="1.5" fill="#D0D0D0" stroke="black" stroke-width="3"/>
<path d="M191.104 67C187.68 67 185.2 66.248 183.664 64.744C182.128 63.24 181.36 60.808 181.36 57.448V48.664C181.36 45.208 182.208 42.696 183.904 41.128C185.6 39.528 188 38.728 191.104 38.728H207.136C209.344 38.728 211.024 38.856 212.176 39.112C213.36 39.336 213.952 39.576 213.952 39.832L212.464 45.832C211.664 45.736 210.096 45.64 207.76 45.544C205.456 45.416 202.544 45.352 199.024 45.352H194.56C193.056 45.352 192.032 45.64 191.488 46.216C190.976 46.76 190.72 47.608 190.72 48.76V56.968C190.72 58.056 190.944 58.904 191.392 59.512C191.872 60.088 192.928 60.376 194.56 60.376H198.448C199.92 60.376 201.248 60.376 202.432 60.376C203.616 60.344 204.656 60.312 205.552 60.28V56.632L203.632 56.68L197.344 57.16V50.536H214.72V64.984L215.2 65.992C215.2 66.248 214.528 66.488 213.184 66.712C211.84 66.904 209.568 67 206.368 67H191.104ZM218.462 67L232.526 38.776H245.006L259.022 67H248.702L246.35 61.864H231.182L228.542 67H218.462ZM233.822 55.24H243.662L239.006 45.016H238.526L233.822 55.24ZM263.742 67V42.616L263.262 38.776H274.878L283.326 55.576L291.966 38.776H302.958V67H293.79V50.824H293.262L291.246 56.008L287.742 64.12H279.006L275.358 56.008L273.39 50.824H272.91V67H263.742ZM310.653 67V38.776H341.469V45.304H320.013V49.288H335.901V55.96H320.013V60.424H340.701L343.581 66.472C343.581 66.6 343.149 66.728 342.285 66.856C341.421 66.952 339.933 67 337.821 67H310.653ZM368.198 67C364.806 67 362.326 66.248 360.758 64.744C359.222 63.208 358.454 60.776 358.454 57.448V48.28C358.454 45.016 359.222 42.616 360.758 41.08C362.294 39.544 364.774 38.776 368.198 38.776H382.214C385.574 38.776 388.022 39.544 389.558 41.08C391.126 42.616 391.91 45.016 391.91 48.28V57.448C391.91 60.776 391.126 63.208 389.558 64.744C387.99 66.248 385.542 67 382.214 67H368.198ZM371.51 60.472H378.95C381.446 60.472 382.694 59.336 382.694 57.064V48.664C382.694 46.424 381.446 45.304 378.95 45.304H371.51C370.23 45.304 369.27 45.56 368.63 46.072C367.99 46.584 367.67 47.448 367.67 48.664V57.064C367.67 58.248 367.99 59.112 368.63 59.656C369.27 60.2 370.23 60.472 371.51 60.472ZM406.96 67L394 38.824H404.128L411.232 55.816L412.528 59.752H412.96L414.208 55.816L421.456 38.824H431.344L430.576 41.704L418.528 67H406.96ZM435.199 67V38.776H466.015V45.304H444.559V49.288H460.447V55.96H444.559V60.424H465.247L468.127 66.472C468.127 66.6 467.695 66.728 466.831 66.856C465.967 66.952 464.479 67 462.367 67H435.199ZM504.086 67.48C502.806 67.48 501.382 67.288 499.814 66.904C498.246 66.488 496.694 65.496 495.158 63.928L493.142 61.912C492.182 60.952 491.254 60.168 490.358 59.56C489.494 58.952 488.502 58.504 487.382 58.216C486.262 57.896 484.854 57.736 483.158 57.736H482.774V67H473.414V42.616L472.934 38.728H495.158C497.206 38.728 498.854 38.984 500.102 39.496C501.382 39.976 502.358 40.632 503.03 41.464C503.734 42.264 504.214 43.176 504.47 44.2C504.726 45.224 504.854 46.264 504.854 47.32V48.232C504.854 50.152 504.358 51.88 503.366 53.416C502.406 54.92 500.87 55.992 498.758 56.632C499.558 57.112 500.31 57.608 501.014 58.12C501.75 58.6 502.582 59.112 503.51 59.656C504.566 60.264 505.542 60.712 506.438 61C507.366 61.256 508.134 61.416 508.742 61.48C509.35 61.544 509.702 61.576 509.798 61.576L508.358 67C507.974 67.096 507.382 67.192 506.582 67.288C505.814 67.416 504.982 67.48 504.086 67.48ZM488.342 51.352C489.142 51.352 489.91 51.336 490.646 51.304C491.414 51.272 492.102 51.224 492.71 51.16C493.798 51.032 494.534 50.696 494.918 50.152C495.334 49.576 495.542 48.888 495.542 48.088V47.56C495.542 46.856 495.334 46.312 494.918 45.928C494.534 45.544 493.814 45.352 492.758 45.352H482.774V51.16C483.574 51.192 484.454 51.24 485.414 51.304C486.374 51.336 487.35 51.352 488.342 51.352Z" fill="url(#paint0_linear_513_86)"/>
<path d="M183.664 64.744L184.364 64.0295L184.364 64.0295L183.664 64.744ZM183.904 41.128L184.583 41.8623L184.59 41.8554L183.904 41.128ZM212.176 39.112L211.959 40.0882L211.975 40.0916L211.99 40.0946L212.176 39.112ZM213.952 39.832L214.923 40.0727L214.952 39.9541V39.832H213.952ZM212.464 45.832L212.345 46.8249L213.222 46.9301L213.435 46.0727L212.464 45.832ZM207.76 45.544L207.705 46.5425L207.712 46.5429L207.719 46.5432L207.76 45.544ZM191.488 46.216L190.761 45.5294L190.76 45.5306L191.488 46.216ZM191.392 59.512L190.587 60.1052L190.605 60.1292L190.624 60.1522L191.392 59.512ZM202.432 60.376V61.376H202.446L202.459 61.3756L202.432 60.376ZM205.552 60.28L205.588 61.2794L206.552 61.2449V60.28H205.552ZM205.552 56.632H206.552V55.6067L205.527 55.6323L205.552 56.632ZM203.632 56.68L203.607 55.6803L203.581 55.681L203.556 55.6829L203.632 56.68ZM197.344 57.16H196.344V58.2392L197.42 58.1571L197.344 57.16ZM197.344 50.536V49.536H196.344V50.536H197.344ZM214.72 50.536H215.72V49.536H214.72V50.536ZM214.72 64.984H213.72V65.2099L213.817 65.4139L214.72 64.984ZM215.2 65.992H216.2V65.7661L216.103 65.5621L215.2 65.992ZM213.184 66.712L213.325 67.7019L213.337 67.7003L213.348 67.6984L213.184 66.712ZM191.104 66C187.793 66 185.628 65.2676 184.364 64.0295L182.964 65.4585C184.772 67.2284 187.567 68 191.104 68V66ZM184.364 64.0295C183.104 62.7964 182.36 60.6867 182.36 57.448H180.36C180.36 60.9293 181.152 63.6836 182.964 65.4585L184.364 64.0295ZM182.36 57.448V48.664H180.36V57.448H182.36ZM182.36 48.664C182.36 45.3483 183.175 43.1639 184.583 41.8623L183.225 40.3937C181.241 42.2281 180.36 45.0677 180.36 48.664H182.36ZM184.59 41.8554C186.046 40.482 188.169 39.728 191.104 39.728V37.728C187.831 37.728 185.154 38.574 183.218 40.4006L184.59 41.8554ZM191.104 39.728H207.136V37.728H191.104V39.728ZM207.136 39.728C209.322 39.728 210.915 39.8562 211.959 40.0882L212.393 38.1358C211.133 37.8558 209.366 37.728 207.136 37.728V39.728ZM211.99 40.0946C212.563 40.203 212.93 40.3046 213.132 40.3867C213.238 40.4296 213.24 40.444 213.199 40.4095C213.163 40.3795 212.952 40.1884 212.952 39.832H214.952C214.952 39.3476 214.667 39.0305 214.483 38.8765C214.294 38.718 214.074 38.6104 213.884 38.5333C213.494 38.3754 212.973 38.245 212.362 38.1294L211.99 40.0946ZM212.981 39.5913L211.493 45.5913L213.435 46.0727L214.923 40.0727L212.981 39.5913ZM212.583 44.8391C211.738 44.7377 210.131 44.6406 207.801 44.5448L207.719 46.5432C210.061 46.6394 211.59 46.7343 212.345 46.8249L212.583 44.8391ZM207.815 44.5455C205.486 44.4161 202.554 44.352 199.024 44.352V46.352C202.534 46.352 205.426 46.4159 207.705 46.5425L207.815 44.5455ZM199.024 44.352H194.56V46.352H199.024V44.352ZM194.56 44.352C193.003 44.352 191.606 44.6351 190.761 45.5294L192.215 46.9026C192.458 46.6449 193.109 46.352 194.56 46.352V44.352ZM190.76 45.5306C189.999 46.3388 189.72 47.487 189.72 48.76H191.72C191.72 47.729 191.953 47.1812 192.216 46.9014L190.76 45.5306ZM189.72 48.76V56.968H191.72V48.76H189.72ZM189.72 56.968C189.72 58.1789 189.967 59.2645 190.587 60.1052L192.197 58.9188C191.921 58.5435 191.72 57.9331 191.72 56.968H189.72ZM190.624 60.1522C191.043 60.6547 191.642 60.9505 192.281 61.1248C192.926 61.3006 193.694 61.376 194.56 61.376V59.376C193.794 59.376 193.218 59.3074 192.807 59.1952C192.39 59.0815 192.221 58.9453 192.16 58.8718L190.624 60.1522ZM194.56 61.376H198.448V59.376H194.56V61.376ZM198.448 61.376C198.451 61.376 198.454 61.376 198.457 61.376C198.459 61.376 198.462 61.376 198.465 61.376C198.468 61.376 198.471 61.376 198.474 61.376C198.477 61.376 198.48 61.376 198.482 61.376C198.485 61.376 198.488 61.376 198.491 61.376C198.494 61.376 198.497 61.376 198.5 61.376C198.503 61.376 198.505 61.376 198.508 61.376C198.511 61.376 198.514 61.376 198.517 61.376C198.52 61.376 198.523 61.376 198.525 61.376C198.528 61.376 198.531 61.376 198.534 61.376C198.537 61.376 198.54 61.376 198.543 61.376C198.546 61.376 198.548 61.376 198.551 61.376C198.554 61.376 198.557 61.376 198.56 61.376C198.563 61.376 198.566 61.376 198.568 61.376C198.571 61.376 198.574 61.376 198.577 61.376C198.58 61.376 198.583 61.376 198.586 61.376C198.588 61.376 198.591 61.376 198.594 61.376C198.597 61.376 198.6 61.376 198.603 61.376C198.606 61.376 198.608 61.376 198.611 61.376C198.614 61.376 198.617 61.376 198.62 61.376C198.623 61.376 198.626 61.376 198.628 61.376C198.631 61.376 198.634 61.376 198.637 61.376C198.64 61.376 198.643 61.376 198.646 61.376C198.648 61.376 198.651 61.376 198.654 61.376C198.657 61.376 198.66 61.376 198.663 61.376C198.665 61.376 198.668 61.376 198.671 61.376C198.674 61.376 198.677 61.376 198.68 61.376C198.683 61.376 198.685 61.376 198.688 61.376C198.691 61.376 198.694 61.376 198.697 61.376C198.7 61.376 198.702 61.376 198.705 61.376C198.708 61.376 198.711 61.376 198.714 61.376C198.717 61.376 198.719 61.376 198.722 61.376C198.725 61.376 198.728 61.376 198.731 61.376C198.734 61.376 198.737 61.376 198.739 61.376C198.742 61.376 198.745 61.376 198.748 61.376C198.751 61.376 198.754 61.376 198.756 61.376C198.759 61.376 198.762 61.376 198.765 61.376C198.768 61.376 198.771 61.376 198.773 61.376C198.776 61.376 198.779 61.376 198.782 61.376C198.785 61.376 198.788 61.376 198.79 61.376C198.793 61.376 198.796 61.376 198.799 61.376C198.802 61.376 198.805 61.376 198.807 61.376C198.81 61.376 198.813 61.376 198.816 61.376C198.819 61.376 198.821 61.376 198.824 61.376C198.827 61.376 198.83 61.376 198.833 61.376C198.836 61.376 198.838 61.376 198.841 61.376C198.844 61.376 198.847 61.376 198.85 61.376C198.853 61.376 198.855 61.376 198.858 61.376C198.861 61.376 198.864 61.376 198.867 61.376C198.869 61.376 198.872 61.376 198.875 61.376C198.878 61.376 198.881 61.376 198.884 61.376C198.886 61.376 198.889 61.376 198.892 61.376C198.895 61.376 198.898 61.376 198.9 61.376C198.903 61.376 198.906 61.376 198.909 61.376C198.912 61.376 198.915 61.376 198.917 61.376C198.92 61.376 198.923 61.376 198.926 61.376C198.929 61.376 198.931 61.376 198.934 61.376C198.937 61.376 198.94 61.376 198.943 61.376C198.946 61.376 198.948 61.376 198.951 61.376C198.954 61.376 198.957 61.376 198.96 61.376C198.962 61.376 198.965 61.376 198.968 61.376C198.971 61.376 198.974 61.376 198.976 61.376C198.979 61.376 198.982 61.376 198.985 61.376C198.988 61.376 198.99 61.376 198.993 61.376C198.996 61.376 198.999 61.376 199.002 61.376C199.004 61.376 199.007 61.376 199.01 61.376C199.013 61.376 199.016 61.376 199.018 61.376C199.021 61.376 199.024 61.376 199.027 61.376C199.03 61.376 199.032 61.376 199.035 61.376C199.038 61.376 199.041 61.376 199.044 61.376C199.046 61.376 199.049 61.376 199.052 61.376C199.055 61.376 199.058 61.376 199.06 61.376C199.063 61.376 199.066 61.376 199.069 61.376C199.072 61.376 199.074 61.376 199.077 61.376C199.08 61.376 199.083 61.376 199.086 61.376C199.088 61.376 199.091 61.376 199.094 61.376C199.097 61.376 199.1 61.376 199.102 61.376C199.105 61.376 199.108 61.376 199.111 61.376C199.114 61.376 199.116 61.376 199.119 61.376C199.122 61.376 199.125 61.376 199.127 61.376C199.13 61.376 199.133 61.376 199.136 61.376C199.139 61.376 199.141 61.376 199.144 61.376C199.147 61.376 199.15 61.376 199.153 61.376C199.155 61.376 199.158 61.376 199.161 61.376C199.164 61.376 199.166 61.376 199.169 61.376C199.172 61.376 199.175 61.376 199.178 61.376C199.18 61.376 199.183 61.376 199.186 61.376C199.189 61.376 199.191 61.376 199.194 61.376C199.197 61.376 199.2 61.376 199.203 61.376C199.205 61.376 199.208 61.376 199.211 61.376C199.214 61.376 199.216 61.376 199.219 61.376C199.222 61.376 199.225 61.376 199.228 61.376C199.23 61.376 199.233 61.376 199.236 61.376C199.239 61.376 199.241 61.376 199.244 61.376C199.247 61.376 199.25 61.376 199.253 61.376C199.255 61.376 199.258 61.376 199.261 61.376C199.264 61.376 199.266 61.376 199.269 61.376C199.272 61.376 199.275 61.376 199.277 61.376C199.28 61.376 199.283 61.376 199.286 61.376C199.288 61.376 199.291 61.376 199.294 61.376C199.297 61.376 199.3 61.376 199.302 61.376C199.305 61.376 199.308 61.376 199.311 61.376C199.313 61.376 199.316 61.376 199.319 61.376C199.322 61.376 199.324 61.376 199.327 61.376C199.33 61.376 199.333 61.376 199.335 61.376C199.338 61.376 199.341 61.376 199.344 61.376C199.346 61.376 199.349 61.376 199.352 61.376C199.355 61.376 199.358 61.376 199.36 61.376C199.363 61.376 199.366 61.376 199.369 61.376C199.371 61.376 199.374 61.376 199.377 61.376C199.38 61.376 199.382 61.376 199.385 61.376C199.388 61.376 199.391 61.376 199.393 61.376C199.396 61.376 199.399 61.376 199.402 61.376C199.404 61.376 199.407 61.376 199.41 61.376C199.413 61.376 199.415 61.376 199.418 61.376C199.421 61.376 199.424 61.376 199.426 61.376C199.429 61.376 199.432 61.376 199.435 61.376C199.437 61.376 199.44 61.376 199.443 61.376C199.446 61.376 199.448 61.376 199.451 61.376C199.454 61.376 199.457 61.376 199.459 61.376C199.462 61.376 199.465 61.376 199.467 61.376C199.47 61.376 199.473 61.376 199.476 61.376C199.478 61.376 199.481 61.376 199.484 61.376C199.487 61.376 199.489 61.376 199.492 61.376C199.495 61.376 199.498 61.376 199.5 61.376C199.503 61.376 199.506 61.376 199.509 61.376C199.511 61.376 199.514 61.376 199.517 61.376C199.52 61.376 199.522 61.376 199.525 61.376C199.528 61.376 199.53 61.376 199.533 61.376C199.536 61.376 199.539 61.376 199.541 61.376C199.544 61.376 199.547 61.376 199.55 61.376C199.552 61.376 199.555 61.376 199.558 61.376C199.561 61.376 199.563 61.376 199.566 61.376C199.569 61.376 199.571 61.376 199.574 61.376C199.577 61.376 199.58 61.376 199.582 61.376C199.585 61.376 199.588 61.376 199.591 61.376C199.593 61.376 199.596 61.376 199.599 61.376C199.601 61.376 199.604 61.376 199.607 61.376C199.61 61.376 199.612 61.376 199.615 61.376C199.618 61.376 199.62 61.376 199.623 61.376C199.626 61.376 199.629 61.376 199.631 61.376C199.634 61.376 199.637 61.376 199.64 61.376C199.642 61.376 199.645 61.376 199.648 61.376C199.65 61.376 199.653 61.376 199.656 61.376C199.659 61.376 199.661 61.376 199.664 61.376C199.667 61.376 199.669 61.376 199.672 61.376C199.675 61.376 199.678 61.376 199.68 61.376C199.683 61.376 199.686 61.376 199.688 61.376C199.691 61.376 199.694 61.376 199.697 61.376C199.699 61.376 199.702 61.376 199.705 61.376C199.707 61.376 199.71 61.376 199.713 61.376C199.716 61.376 199.718 61.376 199.721 61.376C199.724 61.376 199.726 61.376 199.729 61.376C199.732 61.376 199.734 61.376 199.737 61.376C199.74 61.376 199.743 61.376 199.745 61.376C199.748 61.376 199.751 61.376 199.753 61.376C199.756 61.376 199.759 61.376 199.762 61.376C199.764 61.376 199.767 61.376 199.77 61.376C199.772 61.376 199.775 61.376 199.778 61.376C199.78 61.376 199.783 61.376 199.786 61.376C199.789 61.376 199.791 61.376 199.794 61.376C199.797 61.376 199.799 61.376 199.802 61.376C199.805 61.376 199.807 61.376 199.81 61.376C199.813 61.376 199.815 61.376 199.818 61.376C199.821 61.376 199.824 61.376 199.826 61.376C199.829 61.376 199.832 61.376 199.834 61.376C199.837 61.376 199.84 61.376 199.842 61.376C199.845 61.376 199.848 61.376 199.85 61.376C199.853 61.376 199.856 61.376 199.859 61.376C199.861 61.376 199.864 61.376 199.867 61.376C199.869 61.376 199.872 61.376 199.875 61.376C199.877 61.376 199.88 61.376 199.883 61.376C199.885 61.376 199.888 61.376 199.891 61.376C199.893 61.376 199.896 61.376 199.899 61.376C199.902 61.376 199.904 61.376 199.907 61.376C199.91 61.376 199.912 61.376 199.915 61.376C199.918 61.376 199.92 61.376 199.923 61.376C199.926 61.376 199.928 61.376 199.931 61.376C199.934 61.376 199.936 61.376 199.939 61.376C199.942 61.376 199.944 61.376 199.947 61.376C199.95 61.376 199.952 61.376 199.955 61.376C199.958 61.376 199.96 61.376 199.963 61.376C199.966 61.376 199.969 61.376 199.971 61.376C199.974 61.376 199.977 61.376 199.979 61.376C199.982 61.376 199.985 61.376 199.987 61.376C199.99 61.376 199.993 61.376 199.995 61.376C199.998 61.376 200.001 61.376 200.003 61.376C200.006 61.376 200.009 61.376 200.011 61.376C200.014 61.376 200.017 61.376 200.019 61.376C200.022 61.376 200.025 61.376 200.027 61.376C200.03 61.376 200.033 61.376 200.035 61.376C200.038 61.376 200.041 61.376 200.043 61.376C200.046 61.376 200.049 61.376 200.051 61.376C200.054 61.376 200.057 61.376 200.059 61.376C200.062 61.376 200.065 61.376 200.067 61.376C200.07 61.376 200.073 61.376 200.075 61.376C200.078 61.376 200.081 61.376 200.083 61.376C200.086 61.376 200.088 61.376 200.091 61.376C200.094 61.376 200.096 61.376 200.099 61.376C200.102 61.376 200.104 61.376 200.107 61.376C200.11 61.376 200.112 61.376 200.115 61.376C200.118 61.376 200.12 61.376 200.123 61.376C200.126 61.376 200.128 61.376 200.131 61.376C200.134 61.376 200.136 61.376 200.139 61.376C200.142 61.376 200.144 61.376 200.147 61.376C200.15 61.376 200.152 61.376 200.155 61.376C200.157 61.376 200.16 61.376 200.163 61.376C200.165 61.376 200.168 61.376 200.171 61.376C200.173 61.376 200.176 61.376 200.179 61.376C200.181 61.376 200.184 61.376 200.187 61.376C200.189 61.376 200.192 61.376 200.195 61.376C200.197 61.376 200.2 61.376 200.202 61.376C200.205 61.376 200.208 61.376 200.21 61.376C200.213 61.376 200.216 61.376 200.218 61.376C200.221 61.376 200.224 61.376 200.226 61.376C200.229 61.376 200.231 61.376 200.234 61.376C200.237 61.376 200.239 61.376 200.242 61.376C200.245 61.376 200.247 61.376 200.25 61.376C200.253 61.376 200.255 61.376 200.258 61.376C200.26 61.376 200.263 61.376 200.266 61.376C200.268 61.376 200.271 61.376 200.274 61.376C200.276 61.376 200.279 61.376 200.282 61.376C200.284 61.376 200.287 61.376 200.289 61.376C200.292 61.376 200.295 61.376 200.297 61.376C200.3 61.376 200.303 61.376 200.305 61.376C200.308 61.376 200.31 61.376 200.313 61.376C200.316 61.376 200.318 61.376 200.321 61.376C200.324 61.376 200.326 61.376 200.329 61.376C200.331 61.376 200.334 61.376 200.337 61.376C200.339 61.376 200.342 61.376 200.345 61.376C200.347 61.376 200.35 61.376 200.352 61.376C200.355 61.376 200.358 61.376 200.36 61.376C200.363 61.376 200.366 61.376 200.368 61.376C200.371 61.376 200.373 61.376 200.376 61.376C200.379 61.376 200.381 61.376 200.384 61.376C200.386 61.376 200.389 61.376 200.392 61.376C200.394 61.376 200.397 61.376 200.4 61.376C200.402 61.376 200.405 61.376 200.407 61.376C200.41 61.376 200.413 61.376 200.415 61.376C200.418 61.376 200.42 61.376 200.423 61.376C200.426 61.376 200.428 61.376 200.431 61.376C200.434 61.376 200.436 61.376 200.439 61.376C200.441 61.376 200.444 61.376 200.447 61.376C200.449 61.376 200.452 61.376 200.454 61.376C200.457 61.376 200.46 61.376 200.462 61.376C200.465 61.376 200.467 61.376 200.47 61.376C200.473 61.376 200.475 61.376 200.478 61.376C200.48 61.376 200.483 61.376 200.486 61.376C200.488 61.376 200.491 61.376 200.493 61.376C200.496 61.376 200.499 61.376 200.501 61.376C200.504 61.376 200.506 61.376 200.509 61.376C200.512 61.376 200.514 61.376 200.517 61.376C200.519 61.376 200.522 61.376 200.525 61.376C200.527 61.376 200.53 61.376 200.532 61.376C200.535 61.376 200.538 61.376 200.54 61.376C200.543 61.376 200.545 61.376 200.548 61.376C200.551 61.376 200.553 61.376 200.556 61.376C200.558 61.376 200.561 61.376 200.564 61.376C200.566 61.376 200.569 61.376 200.571 61.376C200.574 61.376 200.577 61.376 200.579 61.376C200.582 61.376 200.584 61.376 200.587 61.376C200.589 61.376 200.592 61.376 200.595 61.376C200.597 61.376 200.6 61.376 200.602 61.376C200.605 61.376 200.608 61.376 200.61 61.376C200.613 61.376 200.615 61.376 200.618 61.376C200.62 61.376 200.623 61.376 200.626 61.376C200.628 61.376 200.631 61.376 200.633 61.376C200.636 61.376 200.639 61.376 200.641 61.376C200.644 61.376 200.646 61.376 200.649 61.376C200.651 61.376 200.654 61.376 200.657 61.376C200.659 61.376 200.662 61.376 200.664 61.376C200.667 61.376 200.67 61.376 200.672 61.376C200.675 61.376 200.677 61.376 200.68 61.376C200.682 61.376 200.685 61.376 200.688 61.376C200.69 61.376 200.693 61.376 200.695 61.376C200.698 61.376 200.7 61.376 200.703 61.376C200.706 61.376 200.708 61.376 200.711 61.376C200.713 61.376 200.716 61.376 200.718 61.376C200.721 61.376 200.724 61.376 200.726 61.376C200.729 61.376 200.731 61.376 200.734 61.376C200.736 61.376 200.739 61.376 200.742 61.376C200.744 61.376 200.747 61.376 200.749 61.376C200.752 61.376 200.754 61.376 200.757 61.376C200.759 61.376 200.762 61.376 200.765 61.376C200.767 61.376 200.77 61.376 200.772 61.376C200.775 61.376 200.777 61.376 200.78 61.376C200.783 61.376 200.785 61.376 200.788 61.376C200.79 61.376 200.793 61.376 200.795 61.376C200.798 61.376 200.8 61.376 200.803 61.376C200.806 61.376 200.808 61.376 200.811 61.376C200.813 61.376 200.816 61.376 200.818 61.376C200.821 61.376 200.823 61.376 200.826 61.376C200.829 61.376 200.831 61.376 200.834 61.376C200.836 61.376 200.839 61.376 200.841 61.376C200.844 61.376 200.846 61.376 200.849 61.376C200.852 61.376 200.854 61.376 200.857 61.376C200.859 61.376 200.862 61.376 200.864 61.376C200.867 61.376 200.869 61.376 200.872 61.376C200.874 61.376 200.877 61.376 200.88 61.376C200.882 61.376 200.885 61.376 200.887 61.376C200.89 61.376 200.892 61.376 200.895 61.376C200.897 61.376 200.9 61.376 200.902 61.376C200.905 61.376 200.908 61.376 200.91 61.376C200.913 61.376 200.915 61.376 200.918 61.376C200.92 61.376 200.923 61.376 200.925 61.376C200.928 61.376 200.93 61.376 200.933 61.376C200.935 61.376 200.938 61.376 200.941 61.376C200.943 61.376 200.946 61.376 200.948 61.376C200.951 61.376 200.953 61.376 200.956 61.376C200.958 61.376 200.961 61.376 200.963 61.376C200.966 61.376 200.968 61.376 200.971 61.376C200.974 61.376 200.976 61.376 200.979 61.376C200.981 61.376 200.984 61.376 200.986 61.376C200.989 61.376 200.991 61.376 200.994 61.376C200.996 61.376 200.999 61.376 201.001 61.376C201.004 61.376 201.006 61.376 201.009 61.376C201.011 61.376 201.014 61.376 201.017 61.376C201.019 61.376 201.022 61.376 201.024 61.376C201.027 61.376 201.029 61.376 201.032 61.376C201.034 61.376 201.037 61.376 201.039 61.376C201.042 61.376 201.044 61.376 201.047 61.376C201.049 61.376 201.052 61.376 201.054 61.376C201.057 61.376 201.059 61.376 201.062 61.376C201.064 61.376 201.067 61.376 201.07 61.376C201.072 61.376 201.075 61.376 201.077 61.376C201.08 61.376 201.082 61.376 201.085 61.376C201.087 61.376 201.09 61.376 201.092 61.376C201.095 61.376 201.097 61.376 201.1 61.376C201.102 61.376 201.105 61.376 201.107 61.376C201.11 61.376 201.112 61.376 201.115 61.376C201.117 61.376 201.12 61.376 201.122 61.376C201.125 61.376 201.127 61.376 201.13 61.376C201.132 61.376 201.135 61.376 201.137 61.376C201.14 61.376 201.142 61.376 201.145 61.376C201.147 61.376 201.15 61.376 201.152 61.376C201.155 61.376 201.157 61.376 201.16 61.376C201.162 61.376 201.165 61.376 201.167 61.376C201.17 61.376 201.172 61.376 201.175 61.376C201.177 61.376 201.18 61.376 201.182 61.376C201.185 61.376 201.187 61.376 201.19 61.376C201.192 61.376 201.195 61.376 201.198 61.376C201.2 61.376 201.203 61.376 201.205 61.376C201.207 61.376 201.21 61.376 201.212 61.376C201.215 61.376 201.217 61.376 201.22 61.376C201.222 61.376 201.225 61.376 201.227 61.376C201.23 61.376 201.232 61.376 201.235 61.376C201.237 61.376 201.24 61.376 201.242 61.376C201.245 61.376 201.247 61.376 201.25 61.376C201.252 61.376 201.255 61.376 201.257 61.376C201.26 61.376 201.262 61.376 201.265 61.376C201.267 61.376 201.27 61.376 201.272 61.376C201.275 61.376 201.277 61.376 201.28 61.376C201.282 61.376 201.285 61.376 201.287 61.376C201.29 61.376 201.292 61.376 201.295 61.376C201.297 61.376 201.3 61.376 201.302 61.376C201.305 61.376 201.307 61.376 201.31 61.376C201.312 61.376 201.315 61.376 201.317 61.376C201.32 61.376 201.322 61.376 201.325 61.376C201.327 61.376 201.33 61.376 201.332 61.376C201.334 61.376 201.337 61.376 201.339 61.376C201.342 61.376 201.344 61.376 201.347 61.376C201.349 61.376 201.352 61.376 201.354 61.376C201.357 61.376 201.359 61.376 201.362 61.376C201.364 61.376 201.367 61.376 201.369 61.376C201.372 61.376 201.374 61.376 201.377 61.376C201.379 61.376 201.382 61.376 201.384 61.376C201.386 61.376 201.389 61.376 201.391 61.376C201.394 61.376 201.396 61.376 201.399 61.376C201.401 61.376 201.404 61.376 201.406 61.376C201.409 61.376 201.411 61.376 201.414 61.376C201.416 61.376 201.419 61.376 201.421 61.376C201.424 61.376 201.426 61.376 201.428 61.376C201.431 61.376 201.433 61.376 201.436 61.376C201.438 61.376 201.441 61.376 201.443 61.376C201.446 61.376 201.448 61.376 201.451 61.376C201.453 61.376 201.456 61.376 201.458 61.376C201.46 61.376 201.463 61.376 201.465 61.376C201.468 61.376 201.47 61.376 201.473 61.376C201.475 61.376 201.478 61.376 201.48 61.376C201.483 61.376 201.485 61.376 201.488 61.376C201.49 61.376 201.492 61.376 201.495 61.376C201.497 61.376 201.5 61.376 201.502 61.376C201.505 61.376 201.507 61.376 201.51 61.376C201.512 61.376 201.515 61.376 201.517 61.376C201.519 61.376 201.522 61.376 201.524 61.376C201.527 61.376 201.529 61.376 201.532 61.376C201.534 61.376 201.537 61.376 201.539 61.376C201.542 61.376 201.544 61.376 201.546 61.376C201.549 61.376 201.551 61.376 201.554 61.376C201.556 61.376 201.559 61.376 201.561 61.376C201.564 61.376 201.566 61.376 201.568 61.376C201.571 61.376 201.573 61.376 201.576 61.376C201.578 61.376 201.581 61.376 201.583 61.376C201.586 61.376 201.588 61.376 201.59 61.376C201.593 61.376 201.595 61.376 201.598 61.376C201.6 61.376 201.603 61.376 201.605 61.376C201.608 61.376 201.61 61.376 201.612 61.376C201.615 61.376 201.617 61.376 201.62 61.376C201.622 61.376 201.625 61.376 201.627 61.376C201.629 61.376 201.632 61.376 201.634 61.376C201.637 61.376 201.639 61.376 201.642 61.376C201.644 61.376 201.647 61.376 201.649 61.376C201.651 61.376 201.654 61.376 201.656 61.376C201.659 61.376 201.661 61.376 201.664 61.376C201.666 61.376 201.668 61.376 201.671 61.376C201.673 61.376 201.676 61.376 201.678 61.376C201.681 61.376 201.683 61.376 201.685 61.376C201.688 61.376 201.69 61.376 201.693 61.376C201.695 61.376 201.698 61.376 201.7 61.376C201.702 61.376 201.705 61.376 201.707 61.376C201.71 61.376 201.712 61.376 201.715 61.376C201.717 61.376 201.719 61.376 201.722 61.376C201.724 61.376 201.727 61.376 201.729 61.376C201.731 61.376 201.734 61.376 201.736 61.376C201.739 61.376 201.741 61.376 201.744 61.376C201.746 61.376 201.748 61.376 201.751 61.376C201.753 61.376 201.756 61.376 201.758 61.376C201.76 61.376 201.763 61.376 201.765 61.376C201.768 61.376 201.77 61.376 201.773 61.376C201.775 61.376 201.777 61.376 201.78 61.376C201.782 61.376 201.785 61.376 201.787 61.376C201.789 61.376 201.792 61.376 201.794 61.376C201.797 61.376 201.799 61.376 201.802 61.376C201.804 61.376 201.806 61.376 201.809 61.376C201.811 61.376 201.814 61.376 201.816 61.376C201.818 61.376 201.821 61.376 201.823 61.376C201.826 61.376 201.828 61.376 201.83 61.376C201.833 61.376 201.835 61.376 201.838 61.376C201.84 61.376 201.842 61.376 201.845 61.376C201.847 61.376 201.85 61.376 201.852 61.376C201.854 61.376 201.857 61.376 201.859 61.376C201.862 61.376 201.864 61.376 201.866 61.376C201.869 61.376 201.871 61.376 201.874 61.376C201.876 61.376 201.878 61.376 201.881 61.376C201.883 61.376 201.886 61.376 201.888 61.376C201.89 61.376 201.893 61.376 201.895 61.376C201.898 61.376 201.9 61.376 201.902 61.376C201.905 61.376 201.907 61.376 201.91 61.376C201.912 61.376 201.914 61.376 201.917 61.376C201.919 61.376 201.922 61.376 201.924 61.376C201.926 61.376 201.929 61.376 201.931 61.376C201.934 61.376 201.936 61.376 201.938 61.376C201.941 61.376 201.943 61.376 201.945 61.376C201.948 61.376 201.95 61.376 201.953 61.376C201.955 61.376 201.957 61.376 201.96 61.376C201.962 61.376 201.965 61.376 201.967 61.376C201.969 61.376 201.972 61.376 201.974 61.376C201.976 61.376 201.979 61.376 201.981 61.376C201.984 61.376 201.986 61.376 201.988 61.376C201.991 61.376 201.993 61.376 201.996 61.376C201.998 61.376 202 61.376 202.003 61.376C202.005 61.376 202.007 61.376 202.01 61.376C202.012 61.376 202.015 61.376 202.017 61.376C202.019 61.376 202.022 61.376 202.024 61.376C202.026 61.376 202.029 61.376 202.031 61.376C202.034 61.376 202.036 61.376 202.038 61.376C202.041 61.376 202.043 61.376 202.045 61.376C202.048 61.376 202.05 61.376 202.053 61.376C202.055 61.376 202.057 61.376 202.06 61.376C202.062 61.376 202.064 61.376 202.067 61.376C202.069 61.376 202.072 61.376 202.074 61.376C202.076 61.376 202.079 61.376 202.081 61.376C202.083 61.376 202.086 61.376 202.088 61.376C202.09 61.376 202.093 61.376 202.095 61.376C202.098 61.376 202.1 61.376 202.102 61.376C202.105 61.376 202.107 61.376 202.109 61.376C202.112 61.376 202.114 61.376 202.116 61.376C202.119 61.376 202.121 61.376 202.124 61.376C202.126 61.376 202.128 61.376 202.131 61.376C202.133 61.376 202.135 61.376 202.138 61.376C202.14 61.376 202.142 61.376 202.145 61.376C202.147 61.376 202.15 61.376 202.152 61.376C202.154 61.376 202.157 61.376 202.159 61.376C202.161 61.376 202.164 61.376 202.166 61.376C202.168 61.376 202.171 61.376 202.173 61.376C202.175 61.376 202.178 61.376 202.18 61.376C202.182 61.376 202.185 61.376 202.187 61.376C202.19 61.376 202.192 61.376 202.194 61.376C202.197 61.376 202.199 61.376 202.201 61.376C202.204 61.376 202.206 61.376 202.208 61.376C202.211 61.376 202.213 61.376 202.215 61.376C202.218 61.376 202.22 61.376 202.222 61.376C202.225 61.376 202.227 61.376 202.229 61.376C202.232 61.376 202.234 61.376 202.236 61.376C202.239 61.376 202.241 61.376 202.243 61.376C202.246 61.376 202.248 61.376 202.251 61.376C202.253 61.376 202.255 61.376 202.258 61.376C202.26 61.376 202.262 61.376 202.265 61.376C202.267 61.376 202.269 61.376 202.272 61.376C202.274 61.376 202.276 61.376 202.279 61.376C202.281 61.376 202.283 61.376 202.286 61.376C202.288 61.376 202.29 61.376 202.293 61.376C202.295 61.376 202.297 61.376 202.3 61.376C202.302 61.376 202.304 61.376 202.307 61.376C202.309 61.376 202.311 61.376 202.314 61.376C202.316 61.376 202.318 61.376 202.321 61.376C202.323 61.376 202.325 61.376 202.328 61.376C202.33 61.376 202.332 61.376 202.335 61.376C202.337 61.376 202.339 61.376 202.342 61.376C202.344 61.376 202.346 61.376 202.349 61.376C202.351 61.376 202.353 61.376 202.355 61.376C202.358 61.376 202.36 61.376 202.362 61.376C202.365 61.376 202.367 61.376 202.369 61.376C202.372 61.376 202.374 61.376 202.376 61.376C202.379 61.376 202.381 61.376 202.383 61.376C202.386 61.376 202.388 61.376 202.39 61.376C202.393 61.376 202.395 61.376 202.397 61.376C202.4 61.376 202.402 61.376 202.404 61.376C202.407 61.376 202.409 61.376 202.411 61.376C202.413 61.376 202.416 61.376 202.418 61.376C202.42 61.376 202.423 61.376 202.425 61.376C202.427 61.376 202.43 61.376 202.432 61.376V59.376C202.43 59.376 202.427 59.376 202.425 59.376C202.423 59.376 202.42 59.376 202.418 59.376C202.416 59.376 202.413 59.376 202.411 59.376C202.409 59.376 202.407 59.376 202.404 59.376C202.402 59.376 202.4 59.376 202.397 59.376C202.395 59.376 202.393 59.376 202.39 59.376C202.388 59.376 202.386 59.376 202.383 59.376C202.381 59.376 202.379 59.376 202.376 59.376C202.374 59.376 202.372 59.376 202.369 59.376C202.367 59.376 202.365 59.376 202.362 59.376C202.36 59.376 202.358 59.376 202.355 59.376C202.353 59.376 202.351 59.376 202.349 59.376C202.346 59.376 202.344 59.376 202.342 59.376C202.339 59.376 202.337 59.376 202.335 59.376C202.332 59.376 202.33 59.376 202.328 59.376C202.325 59.376 202.323 59.376 202.321 59.376C202.318 59.376 202.316 59.376 202.314 59.376C202.311 59.376 202.309 59.376 202.307 59.376C202.304 59.376 202.302 59.376 202.3 59.376C202.297 59.376 202.295 59.376 202.293 59.376C202.29 59.376 202.288 59.376 202.286 59.376C202.283 59.376 202.281 59.376 202.279 59.376C202.276 59.376 202.274 59.376 202.272 59.376C202.269 59.376 202.267 59.376 202.265 59.376C202.262 59.376 202.26 59.376 202.258 59.376C202.255 59.376 202.253 59.376 202.251 59.376C202.248 59.376 202.246 59.376 202.243 59.376C202.241 59.376 202.239 59.376 202.236 59.376C202.234 59.376 202.232 59.376 202.229 59.376C202.227 59.376 202.225 59.376 202.222 59.376C202.22 59.376 202.218 59.376 202.215 59.376C202.213 59.376 202.211 59.376 202.208 59.376C202.206 59.376 202.204 59.376 202.201 59.376C202.199 59.376 202.197 59.376 202.194 59.376C202.192 59.376 202.19 59.376 202.187 59.376C202.185 59.376 202.182 59.376 202.18 59.376C202.178 59.376 202.175 59.376 202.173 59.376C202.171 59.376 202.168 59.376 202.166 59.376C202.164 59.376 202.161 59.376 202.159 59.376C202.157 59.376 202.154 59.376 202.152 59.376C202.15 59.376 202.147 59.376 202.145 59.376C202.142 59.376 202.14 59.376 202.138 59.376C202.135 59.376 202.133 59.376 202.131 59.376C202.128 59.376 202.126 59.376 202.124 59.376C202.121 59.376 202.119 59.376 202.116 59.376C202.114 59.376 202.112 59.376 202.109 59.376C202.107 59.376 202.105 59.376 202.102 59.376C202.1 59.376 202.098 59.376 202.095 59.376C202.093 59.376 202.09 59.376 202.088 59.376C202.086 59.376 202.083 59.376 202.081 59.376C202.079 59.376 202.076 59.376 202.074 59.376C202.072 59.376 202.069 59.376 202.067 59.376C202.064 59.376 202.062 59.376 202.06 59.376C202.057 59.376 202.055 59.376 202.053 59.376C202.05 59.376 202.048 59.376 202.045 59.376C202.043 59.376 202.041 59.376 202.038 59.376C202.036 59.376 202.034 59.376 202.031 59.376C202.029 59.376 202.026 59.376 202.024 59.376C202.022 59.376 202.019 59.376 202.017 59.376C202.015 59.376 202.012 59.376 202.01 59.376C202.007 59.376 202.005 59.376 202.003 59.376C202 59.376 201.998 59.376 201.996 59.376C201.993 59.376 201.991 59.376 201.988 59.376C201.986 59.376 201.984 59.376 201.981 59.376C201.979 59.376 201.976 59.376 201.974 59.376C201.972 59.376 201.969 59.376 201.967 59.376C201.965 59.376 201.962 59.376 201.96 59.376C201.957 59.376 201.955 59.376 201.953 59.376C201.95 59.376 201.948 59.376 201.945 59.376C201.943 59.376 201.941 59.376 201.938 59.376C201.936 59.376 201.934 59.376 201.931 59.376C201.929 59.376 201.926 59.376 201.924 59.376C201.922 59.376 201.919 59.376 201.917 59.376C201.914 59.376 201.912 59.376 201.91 59.376C201.907 59.376 201.905 59.376 201.902 59.376C201.9 59.376 201.898 59.376 201.895 59.376C201.893 59.376 201.89 59.376 201.888 59.376C201.886 59.376 201.883 59.376 201.881 59.376C201.878 59.376 201.876 59.376 201.874 59.376C201.871 59.376 201.869 59.376 201.866 59.376C201.864 59.376 201.862 59.376 201.859 59.376C201.857 59.376 201.854 59.376 201.852 59.376C201.85 59.376 201.847 59.376 201.845 59.376C201.842 59.376 201.84 59.376 201.838 59.376C201.835 59.376 201.833 59.376 201.83 59.376C201.828 59.376 201.826 59.376 201.823 59.376C201.821 59.376 201.818 59.376 201.816 59.376C201.814 59.376 201.811 59.376 201.809 59.376C201.806 59.376 201.804 59.376 201.802 59.376C201.799 59.376 201.797 59.376 201.794 59.376C201.792 59.376 201.789 59.376 201.787 59.376C201.785 59.376 201.782 59.376 201.78 59.376C201.777 59.376 201.775 59.376 201.773 59.376C201.77 59.376 201.768 59.376 201.765 59.376C201.763 59.376 201.76 59.376 201.758 59.376C201.756 59.376 201.753 59.376 201.751 59.376C201.748 59.376 201.746 59.376 201.744 59.376C201.741 59.376 201.739 59.376 201.736 59.376C201.734 59.376 201.731 59.376 201.729 59.376C201.727 59.376 201.724 59.376 201.722 59.376C201.719 59.376 201.717 59.376 201.715 59.376C201.712 59.376 201.71 59.376 201.707 59.376C201.705 59.376 201.702 59.376 201.7 59.376C201.698 59.376 201.695 59.376 201.693 59.376C201.69 59.376 201.688 59.376 201.685 59.376C201.683 59.376 201.681 59.376 201.678 59.376C201.676 59.376 201.673 59.376 201.671 59.376C201.668 59.376 201.666 59.376 201.664 59.376C201.661 59.376 201.659 59.376 201.656 59.376C201.654 59.376 201.651 59.376 201.649 59.376C201.647 59.376 201.644 59.376 201.642 59.376C201.639 59.376 201.637 59.376 201.634 59.376C201.632 59.376 201.629 59.376 201.627 59.376C201.625 59.376 201.622 59.376 201.62 59.376C201.617 59.376 201.615 59.376 201.612 59.376C201.61 59.376 201.608 59.376 201.605 59.376C201.603 59.376 201.6 59.376 201.598 59.376C201.595 59.376 201.593 59.376 201.59 59.376C201.588 59.376 201.586 59.376 201.583 59.376C201.581 59.376 201.578 59.376 201.576 59.376C201.573 59.376 201.571 59.376 201.568 59.376C201.566 59.376 201.564 59.376 201.561 59.376C201.559 59.376 201.556 59.376 201.554 59.376C201.551 59.376 201.549 59.376 201.546 59.376C201.544 59.376 201.542 59.376 201.539 59.376C201.537 59.376 201.534 59.376 201.532 59.376C201.529 59.376 201.527 59.376 201.524 59.376C201.522 59.376 201.519 59.376 201.517 59.376C201.515 59.376 201.512 59.376 201.51 59.376C201.507 59.376 201.505 59.376 201.502 59.376C201.5 59.376 201.497 59.376 201.495 59.376C201.492 59.376 201.49 59.376 201.488 59.376C201.485 59.376 201.483 59.376 201.48 59.376C201.478 59.376 201.475 59.376 201.473 59.376C201.47 59.376 201.468 59.376 201.465 59.376C201.463 59.376 201.46 59.376 201.458 59.376C201.456 59.376 201.453 59.376 201.451 59.376C201.448 59.376 201.446 59.376 201.443 59.376C201.441 59.376 201.438 59.376 201.436 59.376C201.433 59.376 201.431 59.376 201.428 59.376C201.426 59.376 201.424 59.376 201.421 59.376C201.419 59.376 201.416 59.376 201.414 59.376C201.411 59.376 201.409 59.376 201.406 59.376C201.404 59.376 201.401 59.376 201.399 59.376C201.396 59.376 201.394 59.376 201.391 59.376C201.389 59.376 201.386 59.376 201.384 59.376C201.382 59.376 201.379 59.376 201.377 59.376C201.374 59.376 201.372 59.376 201.369 59.376C201.367 59.376 201.364 59.376 201.362 59.376C201.359 59.376 201.357 59.376 201.354 59.376C201.352 59.376 201.349 59.376 201.347 59.376C201.344 59.376 201.342 59.376 201.339 59.376C201.337 59.376 201.334 59.376 201.332 59.376C201.33 59.376 201.327 59.376 201.325 59.376C201.322 59.376 201.32 59.376 201.317 59.376C201.315 59.376 201.312 59.376 201.31 59.376C201.307 59.376 201.305 59.376 201.302 59.376C201.3 59.376 201.297 59.376 201.295 59.376C201.292 59.376 201.29 59.376 201.287 59.376C201.285 59.376 201.282 59.376 201.28 59.376C201.277 59.376 201.275 59.376 201.272 59.376C201.27 59.376 201.267 59.376 201.265 59.376C201.262 59.376 201.26 59.376 201.257 59.376C201.255 59.376 201.252 59.376 201.25 59.376C201.247 59.376 201.245 59.376 201.242 59.376C201.24 59.376 201.237 59.376 201.235 59.376C201.232 59.376 201.23 59.376 201.227 59.376C201.225 59.376 201.222 59.376 201.22 59.376C201.217 59.376 201.215 59.376 201.212 59.376C201.21 59.376 201.207 59.376 201.205 59.376C201.203 59.376 201.2 59.376 201.198 59.376C201.195 59.376 201.192 59.376 201.19 59.376C201.187 59.376 201.185 59.376 201.182 59.376C201.18 59.376 201.177 59.376 201.175 59.376C201.172 59.376 201.17 59.376 201.167 59.376C201.165 59.376 201.162 59.376 201.16 59.376C201.157 59.376 201.155 59.376 201.152 59.376C201.15 59.376 201.147 59.376 201.145 59.376C201.142 59.376 201.14 59.376 201.137 59.376C201.135 59.376 201.132 59.376 201.13 59.376C201.127 59.376 201.125 59.376 201.122 59.376C201.12 59.376 201.117 59.376 201.115 59.376C201.112 59.376 201.11 59.376 201.107 59.376C201.105 59.376 201.102 59.376 201.1 59.376C201.097 59.376 201.095 59.376 201.092 59.376C201.09 59.376 201.087 59.376 201.085 59.376C201.082 59.376 201.08 59.376 201.077 59.376C201.075 59.376 201.072 59.376 201.07 59.376C201.067 59.376 201.064 59.376 201.062 59.376C201.059 59.376 201.057 59.376 201.054 59.376C201.052 59.376 201.049 59.376 201.047 59.376C201.044 59.376 201.042 59.376 201.039 59.376C201.037 59.376 201.034 59.376 201.032 59.376C201.029 59.376 201.027 59.376 201.024 59.376C201.022 59.376 201.019 59.376 201.017 59.376C201.014 59.376 201.011 59.376 201.009 59.376C201.006 59.376 201.004 59.376 201.001 59.376C200.999 59.376 200.996 59.376 200.994 59.376C200.991 59.376 200.989 59.376 200.986 59.376C200.984 59.376 200.981 59.376 200.979 59.376C200.976 59.376 200.974 59.376 200.971 59.376C200.968 59.376 200.966 59.376 200.963 59.376C200.961 59.376 200.958 59.376 200.956 59.376C200.953 59.376 200.951 59.376 200.948 59.376C200.946 59.376 200.943 59.376 200.941 59.376C200.938 59.376 200.935 59.376 200.933 59.376C200.93 59.376 200.928 59.376 200.925 59.376C200.923 59.376 200.92 59.376 200.918 59.376C200.915 59.376 200.913 59.376 200.91 59.376C200.908 59.376 200.905 59.376 200.902 59.376C200.9 59.376 200.897 59.376 200.895 59.376C200.892 59.376 200.89 59.376 200.887 59.376C200.885 59.376 200.882 59.376 200.88 59.376C200.877 59.376 200.874 59.376 200.872 59.376C200.869 59.376 200.867 59.376 200.864 59.376C200.862 59.376 200.859 59.376 200.857 59.376C200.854 59.376 200.852 59.376 200.849 59.376C200.846 59.376 200.844 59.376 200.841 59.376C200.839 59.376 200.836 59.376 200.834 59.376C200.831 59.376 200.829 59.376 200.826 59.376C200.823 59.376 200.821 59.376 200.818 59.376C200.816 59.376 200.813 59.376 200.811 59.376C200.808 59.376 200.806 59.376 200.803 59.376C200.8 59.376 200.798 59.376 200.795 59.376C200.793 59.376 200.79 59.376 200.788 59.376C200.785 59.376 200.783 59.376 200.78 59.376C200.777 59.376 200.775 59.376 200.772 59.376C200.77 59.376 200.767 59.376 200.765 59.376C200.762 59.376 200.759 59.376 200.757 59.376C200.754 59.376 200.752 59.376 200.749 59.376C200.747 59.376 200.744 59.376 200.742 59.376C200.739 59.376 200.736 59.376 200.734 59.376C200.731 59.376 200.729 59.376 200.726 59.376C200.724 59.376 200.721 59.376 200.718 59.376C200.716 59.376 200.713 59.376 200.711 59.376C200.708 59.376 200.706 59.376 200.703 59.376C200.7 59.376 200.698 59.376 200.695 59.376C200.693 59.376 200.69 59.376 200.688 59.376C200.685 59.376 200.682 59.376 200.68 59.376C200.677 59.376 200.675 59.376 200.672 59.376C200.67 59.376 200.667 59.376 200.664 59.376C200.662 59.376 200.659 59.376 200.657 59.376C200.654 59.376 200.651 59.376 200.649 59.376C200.646 59.376 200.644 59.376 200.641 59.376C200.639 59.376 200.636 59.376 200.633 59.376C200.631 59.376 200.628 59.376 200.626 59.376C200.623 59.376 200.62 59.376 200.618 59.376C200.615 59.376 200.613 59.376 200.61 59.376C200.608 59.376 200.605 59.376 200.602 59.376C200.6 59.376 200.597 59.376 200.595 59.376C200.592 59.376 200.589 59.376 200.587 59.376C200.584 59.376 200.582 59.376 200.579 59.376C200.577 59.376 200.574 59.376 200.571 59.376C200.569 59.376 200.566 59.376 200.564 59.376C200.561 59.376 200.558 59.376 200.556 59.376C200.553 59.376 200.551 59.376 200.548 59.376C200.545 59.376 200.543 59.376 200.54 59.376C200.538 59.376 200.535 59.376 200.532 59.376C200.53 59.376 200.527 59.376 200.525 59.376C200.522 59.376 200.519 59.376 200.517 59.376C200.514 59.376 200.512 59.376 200.509 59.376C200.506 59.376 200.504 59.376 200.501 59.376C200.499 59.376 200.496 59.376 200.493 59.376C200.491 59.376 200.488 59.376 200.486 59.376C200.483 59.376 200.48 59.376 200.478 59.376C200.475 59.376 200.473 59.376 200.47 59.376C200.467 59.376 200.465 59.376 200.462 59.376C200.46 59.376 200.457 59.376 200.454 59.376C200.452 59.376 200.449 59.376 200.447 59.376C200.444 59.376 200.441 59.376 200.439 59.376C200.436 59.376 200.434 59.376 200.431 59.376C200.428 59.376 200.426 59.376 200.423 59.376C200.42 59.376 200.418 59.376 200.415 59.376C200.413 59.376 200.41 59.376 200.407 59.376C200.405 59.376 200.402 59.376 200.4 59.376C200.397 59.376 200.394 59.376 200.392 59.376C200.389 59.376 200.386 59.376 200.384 59.376C200.381 59.376 200.379 59.376 200.376 59.376C200.373 59.376 200.371 59.376 200.368 59.376C200.366 59.376 200.363 59.376 200.36 59.376C200.358 59.376 200.355 59.376 200.352 59.376C200.35 59.376 200.347 59.376 200.345 59.376C200.342 59.376 200.339 59.376 200.337 59.376C200.334 59.376 200.331 59.376 200.329 59.376C200.326 59.376 200.324 59.376 200.321 59.376C200.318 59.376 200.316 59.376 200.313 59.376C200.31 59.376 200.308 59.376 200.305 59.376C200.303 59.376 200.3 59.376 200.297 59.376C200.295 59.376 200.292 59.376 200.289 59.376C200.287 59.376 200.284 59.376 200.282 59.376C200.279 59.376 200.276 59.376 200.274 59.376C200.271 59.376 200.268 59.376 200.266 59.376C200.263 59.376 200.26 59.376 200.258 59.376C200.255 59.376 200.253 59.376 200.25 59.376C200.247 59.376 200.245 59.376 200.242 59.376C200.239 59.376 200.237 59.376 200.234 59.376C200.231 59.376 200.229 59.376 200.226 59.376C200.224 59.376 200.221 59.376 200.218 59.376C200.216 59.376 200.213 59.376 200.21 59.376C200.208 59.376 200.205 59.376 200.202 59.376C200.2 59.376 200.197 59.376 200.195 59.376C200.192 59.376 200.189 59.376 200.187 59.376C200.184 59.376 200.181 59.376 200.179 59.376C200.176 59.376 200.173 59.376 200.171 59.376C200.168 59.376 200.165 59.376 200.163 59.376C200.16 59.376 200.157 59.376 200.155 59.376C200.152 59.376 200.15 59.376 200.147 59.376C200.144 59.376 200.142 59.376 200.139 59.376C200.136 59.376 200.134 59.376 200.131 59.376C200.128 59.376 200.126 59.376 200.123 59.376C200.12 59.376 200.118 59.376 200.115 59.376C200.112 59.376 200.11 59.376 200.107 59.376C200.104 59.376 200.102 59.376 200.099 59.376C200.096 59.376 200.094 59.376 200.091 59.376C200.088 59.376 200.086 59.376 200.083 59.376C200.081 59.376 200.078 59.376 200.075 59.376C200.073 59.376 200.07 59.376 200.067 59.376C200.065 59.376 200.062 59.376 200.059 59.376C200.057 59.376 200.054 59.376 200.051 59.376C200.049 59.376 200.046 59.376 200.043 59.376C200.041 59.376 200.038 59.376 200.035 59.376C200.033 59.376 200.03 59.376 200.027 59.376C200.025 59.376 200.022 59.376 200.019 59.376C200.017 59.376 200.014 59.376 200.011 59.376C200.009 59.376 200.006 59.376 200.003 59.376C200.001 59.376 199.998 59.376 199.995 59.376C199.993 59.376 199.99 59.376 199.987 59.376C199.985 59.376 199.982 59.376 199.979 59.376C199.977 59.376 199.974 59.376 199.971 59.376C199.969 59.376 199.966 59.376 199.963 59.376C199.96 59.376 199.958 59.376 199.955 59.376C199.952 59.376 199.95 59.376 199.947 59.376C199.944 59.376 199.942 59.376 199.939 59.376C199.936 59.376 199.934 59.376 199.931 59.376C199.928 59.376 199.926 59.376 199.923 59.376C199.92 59.376 199.918 59.376 199.915 59.376C199.912 59.376 199.91 59.376 199.907 59.376C199.904 59.376 199.902 59.376 199.899 59.376C199.896 59.376 199.893 59.376 199.891 59.376C199.888 59.376 199.885 59.376 199.883 59.376C199.88 59.376 199.877 59.376 199.875 59.376C199.872 59.376 199.869 59.376 199.867 59.376C199.864 59.376 199.861 59.376 199.859 59.376C199.856 59.376 199.853 59.376 199.85 59.376C199.848 59.376 199.845 59.376 199.842 59.376C199.84 59.376 199.837 59.376 199.834 59.376C199.832 59.376 199.829 59.376 199.826 59.376C199.824 59.376 199.821 59.376 199.818 59.376C199.815 59.376 199.813 59.376 199.81 59.376C199.807 59.376 199.805 59.376 199.802 59.376C199.799 59.376 199.797 59.376 199.794 59.376C199.791 59.376 199.789 59.376 199.786 59.376C199.783 59.376 199.78 59.376 199.778 59.376C199.775 59.376 199.772 59.376 199.77 59.376C199.767 59.376 199.764 59.376 199.762 59.376C199.759 59.376 199.756 59.376 199.753 59.376C199.751 59.376 199.748 59.376 199.745 59.376C199.743 59.376 199.74 59.376 199.737 59.376C199.734 59.376 199.732 59.376 199.729 59.376C199.726 59.376 199.724 59.376 199.721 59.376C199.718 59.376 199.716 59.376 199.713 59.376C199.71 59.376 199.707 59.376 199.705 59.376C199.702 59.376 199.699 59.376 199.697 59.376C199.694 59.376 199.691 59.376 199.688 59.376C199.686 59.376 199.683 59.376 199.68 59.376C199.678 59.376 199.675 59.376 199.672 59.376C199.669 59.376 199.667 59.376 199.664 59.376C199.661 59.376 199.659 59.376 199.656 59.376C199.653 59.376 199.65 59.376 199.648 59.376C199.645 59.376 199.642 59.376 199.64 59.376C199.637 59.376 199.634 59.376 199.631 59.376C199.629 59.376 199.626 59.376 199.623 59.376C199.62 59.376 199.618 59.376 199.615 59.376C199.612 59.376 199.61 59.376 199.607 59.376C199.604 59.376 199.601 59.376 199.599 59.376C199.596 59.376 199.593 59.376 199.591 59.376C199.588 59.376 199.585 59.376 199.582 59.376C199.58 59.376 199.577 59.376 199.574 59.376C199.571 59.376 199.569 59.376 199.566 59.376C199.563 59.376 199.561 59.376 199.558 59.376C199.555 59.376 199.552 59.376 199.55 59.376C199.547 59.376 199.544 59.376 199.541 59.376C199.539 59.376 199.536 59.376 199.533 59.376C199.53 59.376 199.528 59.376 199.525 59.376C199.522 59.376 199.52 59.376 199.517 59.376C199.514 59.376 199.511 59.376 199.509 59.376C199.506 59.376 199.503 59.376 199.5 59.376C199.498 59.376 199.495 59.376 199.492 59.376C199.489 59.376 199.487 59.376 199.484 59.376C199.481 59.376 199.478 59.376 199.476 59.376C199.473 59.376 199.47 59.376 199.467 59.376C199.465 59.376 199.462 59.376 199.459 59.376C199.457 59.376 199.454 59.376 199.451 59.376C199.448 59.376 199.446 59.376 199.443 59.376C199.44 59.376 199.437 59.376 199.435 59.376C199.432 59.376 199.429 59.376 199.426 59.376C199.424 59.376 199.421 59.376 199.418 59.376C199.415 59.376 199.413 59.376 199.41 59.376C199.407 59.376 199.404 59.376 199.402 59.376C199.399 59.376 199.396 59.376 199.393 59.376C199.391 59.376 199.388 59.376 199.385 59.376C199.382 59.376 199.38 59.376 199.377 59.376C199.374 59.376 199.371 59.376 199.369 59.376C199.366 59.376 199.363 59.376 199.36 59.376C199.358 59.376 199.355 59.376 199.352 59.376C199.349 59.376 199.346 59.376 199.344 59.376C199.341 59.376 199.338 59.376 199.335 59.376C199.333 59.376 199.33 59.376 199.327 59.376C199.324 59.376 199.322 59.376 199.319 59.376C199.316 59.376 199.313 59.376 199.311 59.376C199.308 59.376 199.305 59.376 199.302 59.376C199.3 59.376 199.297 59.376 199.294 59.376C199.291 59.376 199.288 59.376 199.286 59.376C199.283 59.376 199.28 59.376 199.277 59.376C199.275 59.376 199.272 59.376 199.269 59.376C199.266 59.376 199.264 59.376 199.261 59.376C199.258 59.376 199.255 59.376 199.253 59.376C199.25 59.376 199.247 59.376 199.244 59.376C199.241 59.376 199.239 59.376 199.236 59.376C199.233 59.376 199.23 59.376 199.228 59.376C199.225 59.376 199.222 59.376 199.219 59.376C199.216 59.376 199.214 59.376 199.211 59.376C199.208 59.376 199.205 59.376 199.203 59.376C199.2 59.376 199.197 59.376 199.194 59.376C199.191 59.376 199.189 59.376 199.186 59.376C199.183 59.376 199.18 59.376 199.178 59.376C199.175 59.376 199.172 59.376 199.169 59.376C199.166 59.376 199.164 59.376 199.161 59.376C199.158 59.376 199.155 59.376 199.153 59.376C199.15 59.376 199.147 59.376 199.144 59.376C199.141 59.376 199.139 59.376 199.136 59.376C199.133 59.376 199.13 59.376 199.127 59.376C199.125 59.376 199.122 59.376 199.119 59.376C199.116 59.376 199.114 59.376 199.111 59.376C199.108 59.376 199.105 59.376 199.102 59.376C199.1 59.376 199.097 59.376 199.094 59.376C199.091 59.376 199.088 59.376 199.086 59.376C199.083 59.376 199.08 59.376 199.077 59.376C199.074 59.376 199.072 59.376 199.069 59.376C199.066 59.376 199.063 59.376 199.06 59.376C199.058 59.376 199.055 59.376 199.052 59.376C199.049 59.376 199.046 59.376 199.044 59.376C199.041 59.376 199.038 59.376 199.035 59.376C199.032 59.376 199.03 59.376 199.027 59.376C199.024 59.376 199.021 59.376 199.018 59.376C199.016 59.376 199.013 59.376 199.01 59.376C199.007 59.376 199.004 59.376 199.002 59.376C198.999 59.376 198.996 59.376 198.993 59.376C198.99 59.376 198.988 59.376 198.985 59.376C198.982 59.376 198.979 59.376 198.976 59.376C198.974 59.376 198.971 59.376 198.968 59.376C198.965 59.376 198.962 59.376 198.96 59.376C198.957 59.376 198.954 59.376 198.951 59.376C198.948 59.376 198.946 59.376 198.943 59.376C198.94 59.376 198.937 59.376 198.934 59.376C198.931 59.376 198.929 59.376 198.926 59.376C198.923 59.376 198.92 59.376 198.917 59.376C198.915 59.376 198.912 59.376 198.909 59.376C198.906 59.376 198.903 59.376 198.9 59.376C198.898 59.376 198.895 59.376 198.892 59.376C198.889 59.376 198.886 59.376 198.884 59.376C198.881 59.376 198.878 59.376 198.875 59.376C198.872 59.376 198.869 59.376 198.867 59.376C198.864 59.376 198.861 59.376 198.858 59.376C198.855 59.376 198.853 59.376 198.85 59.376C198.847 59.376 198.844 59.376 198.841 59.376C198.838 59.376 198.836 59.376 198.833 59.376C198.83 59.376 198.827 59.376 198.824 59.376C198.821 59.376 198.819 59.376 198.816 59.376C198.813 59.376 198.81 59.376 198.807 59.376C198.805 59.376 198.802 59.376 198.799 59.376C198.796 59.376 198.793 59.376 198.79 59.376C198.788 59.376 198.785 59.376 198.782 59.376C198.779 59.376 198.776 59.376 198.773 59.376C198.771 59.376 198.768 59.376 198.765 59.376C198.762 59.376 198.759 59.376 198.756 59.376C198.754 59.376 198.751 59.376 198.748 59.376C198.745 59.376 198.742 59.376 198.739 59.376C198.737 59.376 198.734 59.376 198.731 59.376C198.728 59.376 198.725 59.376 198.722 59.376C198.719 59.376 198.717 59.376 198.714 59.376C198.711 59.376 198.708 59.376 198.705 59.376C198.702 59.376 198.7 59.376 198.697 59.376C198.694 59.376 198.691 59.376 198.688 59.376C198.685 59.376 198.683 59.376 198.68 59.376C198.677 59.376 198.674 59.376 198.671 59.376C198.668 59.376 198.665 59.376 198.663 59.376C198.66 59.376 198.657 59.376 198.654 59.376C198.651 59.376 198.648 59.376 198.646 59.376C198.643 59.376 198.64 59.376 198.637 59.376C198.634 59.376 198.631 59.376 198.628 59.376C198.626 59.376 198.623 59.376 198.62 59.376C198.617 59.376 198.614 59.376 198.611 59.376C198.608 59.376 198.606 59.376 198.603 59.376C198.6 59.376 198.597 59.376 198.594 59.376C198.591 59.376 198.588 59.376 198.586 59.376C198.583 59.376 198.58 59.376 198.577 59.376C198.574 59.376 198.571 59.376 198.568 59.376C198.566 59.376 198.563 59.376 198.56 59.376C198.557 59.376 198.554 59.376 198.551 59.376C198.548 59.376 198.546 59.376 198.543 59.376C198.54 59.376 198.537 59.376 198.534 59.376C198.531 59.376 198.528 59.376 198.525 59.376C198.523 59.376 198.52 59.376 198.517 59.376C198.514 59.376 198.511 59.376 198.508 59.376C198.505 59.376 198.503 59.376 198.5 59.376C198.497 59.376 198.494 59.376 198.491 59.376C198.488 59.376 198.485 59.376 198.482 59.376C198.48 59.376 198.477 59.376 198.474 59.376C198.471 59.376 198.468 59.376 198.465 59.376C198.462 59.376 198.459 59.376 198.457 59.376C198.454 59.376 198.451 59.376 198.448 59.376V61.376ZM202.459 61.3756C203.645 61.3436 204.688 61.3115 205.588 61.2794L205.516 59.2806C204.624 59.3125 203.587 59.3444 202.405 59.3764L202.459 61.3756ZM206.552 60.28V56.632H204.552V60.28H206.552ZM205.527 55.6323L203.607 55.6803L203.657 57.6797L205.577 57.6317L205.527 55.6323ZM203.556 55.6829L197.268 56.1629L197.42 58.1571L203.708 57.6771L203.556 55.6829ZM198.344 57.16V50.536H196.344V57.16H198.344ZM197.344 51.536H214.72V49.536H197.344V51.536ZM213.72 50.536V64.984H215.72V50.536H213.72ZM213.817 65.4139L214.297 66.4219L216.103 65.5621L215.623 64.5541L213.817 65.4139ZM214.2 65.992C214.2 65.5804 214.47 65.3836 214.48 65.3764C214.511 65.3535 214.491 65.3754 214.36 65.4223C214.109 65.5117 213.676 65.6163 213.02 65.7256L213.348 67.6984C214.036 67.5837 214.611 67.4563 215.032 67.3057C215.237 67.2326 215.469 67.1325 215.668 66.9856C215.846 66.8544 216.2 66.5316 216.2 65.992H214.2ZM213.043 65.7221C211.776 65.903 209.567 66 206.368 66V68C209.569 68 211.904 67.905 213.325 67.7019L213.043 65.7221ZM206.368 66H191.104V68H206.368V66ZM218.462 67L217.567 66.554L216.847 68H218.462V67ZM232.526 38.776V37.776H231.907L231.631 38.33L232.526 38.776ZM245.006 38.776L245.902 38.3312L245.626 37.776H245.006V38.776ZM259.022 67V68H260.635L259.918 66.5552L259.022 67ZM248.702 67L247.793 67.4164L248.06 68H248.702V67ZM246.35 61.864L247.259 61.4476L246.992 60.864H246.35V61.864ZM231.182 61.864V60.864H230.572L230.293 61.4068L231.182 61.864ZM228.542 67V68H229.152L229.432 67.4572L228.542 67ZM233.822 55.24L232.914 54.822L232.261 56.24H233.822V55.24ZM243.662 55.24V56.24H245.216L244.572 54.8256L243.662 55.24ZM239.006 45.016L239.916 44.6016L239.65 44.016H239.006V45.016ZM238.526 45.016V44.016H237.885L237.618 44.598L238.526 45.016ZM219.357 67.446L233.421 39.222L231.631 38.33L217.567 66.554L219.357 67.446ZM232.526 39.776H245.006V37.776H232.526V39.776ZM244.11 39.2208L258.126 67.4448L259.918 66.5552L245.902 38.3312L244.11 39.2208ZM259.022 66H248.702V68H259.022V66ZM249.611 66.5836L247.259 61.4476L245.441 62.2804L247.793 67.4164L249.611 66.5836ZM246.35 60.864H231.182V62.864H246.35V60.864ZM230.293 61.4068L227.653 66.5428L229.432 67.4572L232.072 62.3212L230.293 61.4068ZM228.542 66H218.462V68H228.542V66ZM233.822 56.24H243.662V54.24H233.822V56.24ZM244.572 54.8256L239.916 44.6016L238.096 45.4304L242.752 55.6544L244.572 54.8256ZM239.006 44.016H238.526V46.016H239.006V44.016ZM237.618 44.598L232.914 54.822L234.731 55.658L239.435 45.434L237.618 44.598ZM263.742 67H262.742V68H263.742V67ZM263.742 42.616H264.742V42.5537L264.734 42.492L263.742 42.616ZM263.262 38.776V37.776H262.129L262.27 38.9L263.262 38.776ZM274.878 38.776L275.771 38.3267L275.494 37.776H274.878V38.776ZM283.326 55.576L282.432 56.0253L283.316 57.782L284.215 56.0333L283.326 55.576ZM291.966 38.776V37.776H291.356L291.077 38.3187L291.966 38.776ZM302.958 38.776H303.958V37.776H302.958V38.776ZM302.958 67V68H303.958V67H302.958ZM293.79 67H292.79V68H293.79V67ZM293.79 50.824H294.79V49.824H293.79V50.824ZM293.262 50.824V49.824H292.578L292.33 50.4616L293.262 50.824ZM291.246 56.008L292.164 56.4045L292.171 56.3876L292.178 56.3704L291.246 56.008ZM287.742 64.12V65.12H288.399L288.66 64.5165L287.742 64.12ZM279.006 64.12L278.094 64.5301L278.359 65.12H279.006V64.12ZM275.358 56.008L274.423 56.3629L274.434 56.3909L274.446 56.4181L275.358 56.008ZM273.39 50.824L274.325 50.4691L274.08 49.824H273.39V50.824ZM272.91 50.824V49.824H271.91V50.824H272.91ZM272.91 67V68H273.91V67H272.91ZM264.742 67V42.616H262.742V67H264.742ZM264.734 42.492L264.254 38.652L262.27 38.9L262.75 42.74L264.734 42.492ZM263.262 39.776H274.878V37.776H263.262V39.776ZM273.984 39.2253L282.432 56.0253L284.219 55.1267L275.771 38.3267L273.984 39.2253ZM284.215 56.0333L292.855 39.2333L291.077 38.3187L282.437 55.1187L284.215 56.0333ZM291.966 39.776H302.958V37.776H291.966V39.776ZM301.958 38.776V67H303.958V38.776H301.958ZM302.958 66H293.79V68H302.958V66ZM294.79 67V50.824H292.79V67H294.79ZM293.79 49.824H293.262V51.824H293.79V49.824ZM292.33 50.4616L290.314 55.6456L292.178 56.3704L294.194 51.1864L292.33 50.4616ZM290.328 55.6115L286.824 63.7235L288.66 64.5165L292.164 56.4045L290.328 55.6115ZM287.742 63.12H279.006V65.12H287.742V63.12ZM279.918 63.7099L276.27 55.5979L274.446 56.4181L278.094 64.5301L279.918 63.7099ZM276.293 55.6531L274.325 50.4691L272.455 51.1789L274.423 56.3629L276.293 55.6531ZM273.39 49.824H272.91V51.824H273.39V49.824ZM271.91 50.824V67H273.91V50.824H271.91ZM272.91 66H263.742V68H272.91V66ZM310.653 67H309.653V68H310.653V67ZM310.653 38.776V37.776H309.653V38.776H310.653ZM341.469 38.776H342.469V37.776H341.469V38.776ZM341.469 45.304V46.304H342.469V45.304H341.469ZM320.013 45.304V44.304H319.013V45.304H320.013ZM320.013 49.288H319.013V50.288H320.013V49.288ZM335.901 49.288H336.901V48.288H335.901V49.288ZM335.901 55.96V56.96H336.901V55.96H335.901ZM320.013 55.96V54.96H319.013V55.96H320.013ZM320.013 60.424H319.013V61.424H320.013V60.424ZM340.701 60.424L341.603 59.9941L341.332 59.424H340.701V60.424ZM343.581 66.472H344.581V66.2461L344.483 66.0421L343.581 66.472ZM342.285 66.856L342.395 67.8499L342.413 67.8479L342.431 67.8452L342.285 66.856ZM311.653 67V38.776H309.653V67H311.653ZM310.653 39.776H341.469V37.776H310.653V39.776ZM340.469 38.776V45.304H342.469V38.776H340.469ZM341.469 44.304H320.013V46.304H341.469V44.304ZM319.013 45.304V49.288H321.013V45.304H319.013ZM320.013 50.288H335.901V48.288H320.013V50.288ZM334.901 49.288V55.96H336.901V49.288H334.901ZM335.901 54.96H320.013V56.96H335.901V54.96ZM319.013 55.96V60.424H321.013V55.96H319.013ZM320.013 61.424H340.701V59.424H320.013V61.424ZM339.798 60.8539L342.678 66.9019L344.483 66.0421L341.603 59.9941L339.798 60.8539ZM342.581 66.472C342.581 66.1873 342.705 65.9831 342.796 65.8751C342.881 65.7742 342.964 65.7232 342.99 65.7077C343.042 65.677 343.053 65.6812 342.972 65.7052C342.826 65.7487 342.558 65.8046 342.138 65.8668L342.431 67.8452C342.875 67.7794 343.255 67.7073 343.541 67.6228C343.676 67.5828 343.849 67.523 344.009 67.4283C344.088 67.3815 344.581 67.0914 344.581 66.472H342.581ZM342.174 65.8621C341.371 65.9513 339.933 66 337.821 66V68C339.932 68 341.47 67.9527 342.395 67.8499L342.174 65.8621ZM337.821 66H310.653V68H337.821V66ZM360.758 64.744L360.051 65.4511L360.058 65.4585L360.066 65.4657L360.758 64.744ZM360.758 41.08L360.051 40.3729L360.051 40.3729L360.758 41.08ZM389.558 41.08L388.851 41.7871L388.858 41.7944L389.558 41.08ZM389.558 64.744L390.25 65.4657L390.258 65.4584L389.558 64.744ZM368.63 46.072L368.005 45.2911L368.005 45.2911L368.63 46.072ZM368.63 59.656L367.982 60.4179L367.982 60.4179L368.63 59.656ZM368.198 66C364.924 66 362.751 65.27 361.45 64.0223L360.066 65.4657C361.901 67.226 364.688 68 368.198 68V66ZM361.465 64.0369C360.196 62.7676 359.454 60.649 359.454 57.448H357.454C357.454 60.903 358.248 63.6484 360.051 65.4511L361.465 64.0369ZM359.454 57.448V48.28H357.454V57.448H359.454ZM359.454 48.28C359.454 45.1496 360.193 43.0595 361.465 41.7871L360.051 40.3729C358.251 42.1725 357.454 44.8824 357.454 48.28H359.454ZM361.465 41.7871C362.73 40.5223 364.891 39.776 368.198 39.776V37.776C364.657 37.776 361.858 38.5657 360.051 40.3729L361.465 41.7871ZM368.198 39.776H382.214V37.776H368.198V39.776ZM382.214 39.776C385.45 39.776 387.583 40.5194 388.851 41.7871L390.265 40.3729C388.461 38.5686 385.697 37.776 382.214 37.776V39.776ZM388.858 41.7944C390.157 43.0674 390.91 45.1546 390.91 48.28H392.91C392.91 44.8774 392.094 42.1646 390.258 40.3656L388.858 41.7944ZM390.91 48.28V57.448H392.91V48.28H390.91ZM390.91 57.448C390.91 60.6442 390.154 62.7598 388.858 64.0296L390.258 65.4584C392.097 63.6562 392.91 60.9078 392.91 57.448H390.91ZM388.866 64.0223C387.562 65.2728 385.417 66 382.214 66V68C385.666 68 388.418 67.2232 390.25 65.4657L388.866 64.0223ZM382.214 66H368.198V68H382.214V66ZM371.51 61.472H378.95V59.472H371.51V61.472ZM378.95 61.472C380.33 61.472 381.552 61.16 382.431 60.3595C383.328 59.5428 383.694 58.3796 383.694 57.064H381.694C381.694 58.0204 381.435 58.5612 381.085 58.8805C380.716 59.216 380.066 59.472 378.95 59.472V61.472ZM383.694 57.064V48.664H381.694V57.064H383.694ZM383.694 48.664C383.694 47.3602 383.326 46.2074 382.426 45.3998C381.546 44.6106 380.327 44.304 378.95 44.304V46.304C380.069 46.304 380.721 46.5574 381.09 46.8882C381.438 47.2006 381.694 47.7278 381.694 48.664H383.694ZM378.95 44.304H371.51V46.304H378.95V44.304ZM371.51 44.304C370.123 44.304 368.898 44.577 368.005 45.2911L369.254 46.8529C369.642 46.543 370.337 46.304 371.51 46.304V44.304ZM368.005 45.2911C367.031 46.0707 366.67 47.2955 366.67 48.664H368.67C368.67 47.6005 368.949 47.0973 369.254 46.8529L368.005 45.2911ZM366.67 48.664V57.064H368.67V48.664H366.67ZM366.67 57.064C366.67 58.4165 367.038 59.6157 367.982 60.4179L369.277 58.8941C368.941 58.6083 368.67 58.0795 368.67 57.064H366.67ZM367.982 60.4179C368.877 61.1784 370.112 61.472 371.51 61.472V59.472C370.348 59.472 369.663 59.2216 369.277 58.8941L367.982 60.4179ZM406.96 67L406.051 67.4179L406.319 68H406.96V67ZM394 38.824V37.824H392.439L393.091 39.2419L394 38.824ZM404.128 38.824L405.051 38.4383L404.794 37.824H404.128V38.824ZM411.232 55.816L412.182 55.5032L412.17 55.4662L412.155 55.4303L411.232 55.816ZM412.528 59.752L411.578 60.0648L411.804 60.752H412.528V59.752ZM412.96 59.752V60.752H413.692L413.913 60.0542L412.96 59.752ZM414.208 55.816L413.288 55.4236L413.269 55.4679L413.255 55.5138L414.208 55.816ZM421.456 38.824V37.824H420.795L420.536 38.4316L421.456 38.824ZM431.344 38.824L432.31 39.0817L432.646 37.824H431.344V38.824ZM430.576 41.704L431.479 42.134L431.518 42.0508L431.542 41.9617L430.576 41.704ZM418.528 67V68H419.159L419.431 67.43L418.528 67ZM407.869 66.5821L394.909 38.4061L393.091 39.2419L406.051 67.4179L407.869 66.5821ZM394 39.824H404.128V37.824H394V39.824ZM403.205 39.2097L410.309 56.2017L412.155 55.4303L405.051 38.4383L403.205 39.2097ZM410.282 56.1287L411.578 60.0648L413.478 59.4392L412.182 55.5032L410.282 56.1287ZM412.528 60.752H412.96V58.752H412.528V60.752ZM413.913 60.0542L415.161 56.1182L413.255 55.5138L412.007 59.4498L413.913 60.0542ZM415.128 56.2084L422.376 39.2164L420.536 38.4316L413.288 55.4236L415.128 56.2084ZM421.456 39.824H431.344V37.824H421.456V39.824ZM430.378 38.5663L429.61 41.4463L431.542 41.9617L432.31 39.0817L430.378 38.5663ZM429.673 41.274L417.625 66.57L419.431 67.43L431.479 42.134L429.673 41.274ZM418.528 66H406.96V68H418.528V66ZM435.199 67H434.199V68H435.199V67ZM435.199 38.776V37.776H434.199V38.776H435.199ZM466.015 38.776H467.015V37.776H466.015V38.776ZM466.015 45.304V46.304H467.015V45.304H466.015ZM444.559 45.304V44.304H443.559V45.304H444.559ZM444.559 49.288H443.559V50.288H444.559V49.288ZM460.447 49.288H461.447V48.288H460.447V49.288ZM460.447 55.96V56.96H461.447V55.96H460.447ZM444.559 55.96V54.96H443.559V55.96H444.559ZM444.559 60.424H443.559V61.424H444.559V60.424ZM465.247 60.424L466.15 59.9941L465.879 59.424H465.247V60.424ZM468.127 66.472H469.127V66.2461L469.03 66.0421L468.127 66.472ZM466.831 66.856L466.942 67.8499L466.96 67.8479L466.978 67.8452L466.831 66.856ZM436.199 67V38.776H434.199V67H436.199ZM435.199 39.776H466.015V37.776H435.199V39.776ZM465.015 38.776V45.304H467.015V38.776H465.015ZM466.015 44.304H444.559V46.304H466.015V44.304ZM443.559 45.304V49.288H445.559V45.304H443.559ZM444.559 50.288H460.447V48.288H444.559V50.288ZM459.447 49.288V55.96H461.447V49.288H459.447ZM460.447 54.96H444.559V56.96H460.447V54.96ZM443.559 55.96V60.424H445.559V55.96H443.559ZM444.559 61.424H465.247V59.424H444.559V61.424ZM464.345 60.8539L467.225 66.9019L469.03 66.0421L466.15 59.9941L464.345 60.8539ZM467.127 66.472C467.127 66.1873 467.252 65.9831 467.343 65.8751C467.428 65.7742 467.51 65.7232 467.537 65.7077C467.588 65.677 467.6 65.6812 467.519 65.7052C467.373 65.7487 467.105 65.8046 466.685 65.8668L466.978 67.8452C467.422 67.7794 467.802 67.7073 468.087 67.6228C468.223 67.5828 468.396 67.523 468.556 67.4283C468.635 67.3815 469.127 67.0914 469.127 66.472H467.127ZM466.721 65.8621C465.918 65.9513 464.48 66 462.367 66V68C464.479 68 466.017 67.9527 466.942 67.8499L466.721 65.8621ZM462.367 66H435.199V68H462.367V66ZM499.814 66.904L499.557 67.8706L499.567 67.873L499.576 67.8753L499.814 66.904ZM495.158 63.928L495.872 63.2282L495.865 63.2209L495.158 63.928ZM493.142 61.912L493.849 61.2049L493.849 61.2049L493.142 61.912ZM490.358 59.56L489.782 60.3778L489.789 60.3827L489.796 60.3875L490.358 59.56ZM487.382 58.216L487.107 59.1775L487.12 59.1812L487.133 59.1845L487.382 58.216ZM482.774 57.736V56.736H481.774V57.736H482.774ZM482.774 67V68H483.774V67H482.774ZM473.414 67H472.414V68H473.414V67ZM473.414 42.616H474.414V42.5545L474.406 42.4935L473.414 42.616ZM472.934 38.728V37.728H471.803L471.941 38.8505L472.934 38.728ZM500.102 39.496L499.722 40.4212L499.736 40.427L499.751 40.4323L500.102 39.496ZM503.03 41.464L502.252 42.0923L502.265 42.1088L502.279 42.1246L503.03 41.464ZM503.366 53.416L502.526 52.8735L502.523 52.878L503.366 53.416ZM498.758 56.632L498.468 55.675L496.309 56.3291L498.243 57.4895L498.758 56.632ZM501.014 58.12L500.426 58.9287L500.446 58.9437L500.467 58.9576L501.014 58.12ZM503.51 59.656L503.004 60.5187L503.011 60.5226L503.51 59.656ZM506.438 61L506.132 61.952L506.152 61.9584L506.172 61.964L506.438 61ZM508.742 61.48L508.637 62.4745L508.637 62.4745L508.742 61.48ZM509.798 61.576L510.764 61.8326L511.098 60.576H509.798V61.576ZM508.358 67L508.6 67.9701L509.173 67.827L509.324 67.2566L508.358 67ZM506.582 67.288L506.463 66.2951L506.44 66.2978L506.417 66.3016L506.582 67.288ZM490.646 51.304L490.604 50.3049L490.602 50.3049L490.646 51.304ZM492.71 51.16L492.814 52.1546L492.827 52.1531L492.71 51.16ZM494.918 50.152L494.107 49.5665L494.101 49.5753L494.918 50.152ZM494.918 45.928L494.211 46.6351L494.225 46.6492L494.239 46.6628L494.918 45.928ZM482.774 45.352V44.352H481.774V45.352H482.774ZM482.774 51.16H481.774V52.1208L482.734 52.1592L482.774 51.16ZM485.414 51.304L485.347 52.3018L485.364 52.3029L485.38 52.3034L485.414 51.304ZM504.086 66.48C502.904 66.48 501.561 66.3023 500.052 65.9327L499.576 67.8753C501.203 68.2737 502.708 68.48 504.086 68.48V66.48ZM500.07 65.9374C498.727 65.5811 497.325 64.7115 495.872 63.2282L494.443 64.6278C496.062 66.2805 497.765 67.3949 499.557 67.8706L500.07 65.9374ZM495.865 63.2209L493.849 61.2049L492.435 62.6191L494.451 64.6351L495.865 63.2209ZM493.849 61.2049C492.855 60.211 491.879 59.3835 490.919 58.7325L489.796 60.3875C490.629 60.9525 491.509 61.693 492.435 62.6191L493.849 61.2049ZM490.933 58.7422C489.961 58.0584 488.857 57.5628 487.631 57.2475L487.133 59.1845C488.147 59.4452 489.026 59.8456 489.782 60.3778L490.933 58.7422ZM487.656 57.2545C486.417 56.9002 484.908 56.736 483.158 56.736V58.736C484.799 58.736 486.107 58.8918 487.107 59.1775L487.656 57.2545ZM483.158 56.736H482.774V58.736H483.158V56.736ZM481.774 57.736V67H483.774V57.736H481.774ZM482.774 66H473.414V68H482.774V66ZM474.414 67V42.616H472.414V67H474.414ZM474.406 42.4935L473.926 38.6055L471.941 38.8505L472.421 42.7385L474.406 42.4935ZM472.934 39.728H495.158V37.728H472.934V39.728ZM495.158 39.728C497.136 39.728 498.64 39.9773 499.722 40.4212L500.481 38.5708C499.067 37.9907 497.275 37.728 495.158 37.728V39.728ZM499.751 40.4323C500.909 40.8668 501.719 41.4329 502.252 42.0923L503.808 40.8357C502.996 39.8311 501.854 39.0852 500.453 38.5597L499.751 40.4323ZM502.279 42.1246C502.879 42.806 503.283 43.575 503.5 44.4425L505.44 43.9575C505.145 42.777 504.589 41.722 503.78 40.8034L502.279 42.1246ZM503.5 44.4425C503.736 45.3872 503.854 46.3457 503.854 47.32H505.854C505.854 46.1823 505.716 45.0608 505.44 43.9575L503.5 44.4425ZM503.854 47.32V48.232H505.854V47.32H503.854ZM503.854 48.232C503.854 49.9697 503.408 51.5075 502.526 52.8735L504.206 53.9585C505.308 52.2525 505.854 50.3343 505.854 48.232H503.854ZM502.523 52.878C501.72 54.1364 500.407 55.0872 498.468 55.675L499.048 57.589C501.332 56.8968 503.092 55.7036 504.209 53.954L502.523 52.878ZM498.243 57.4895C499.02 57.9554 499.747 58.4352 500.426 58.9287L501.602 57.3113C500.872 56.7808 500.096 56.2686 499.272 55.7745L498.243 57.4895ZM500.467 58.9576C501.219 59.448 502.065 59.9684 503.004 60.5187L504.015 58.7933C503.098 58.2556 502.28 57.752 501.56 57.2824L500.467 58.9576ZM503.011 60.5226C504.111 61.1561 505.152 61.6372 506.132 61.952L506.744 60.048C505.931 59.7868 505.02 59.3719 504.009 58.7894L503.011 60.5226ZM506.172 61.964C507.126 62.2273 507.953 62.4025 508.637 62.4745L508.846 60.4855C508.315 60.4295 507.605 60.2847 506.704 60.036L506.172 61.964ZM508.637 62.4745C509.211 62.5349 509.634 62.576 509.798 62.576V60.576C509.805 60.576 509.743 60.5734 509.552 60.5561C509.383 60.5407 509.149 60.5173 508.846 60.4855L508.637 62.4745ZM508.831 61.3194L507.391 66.7434L509.324 67.2566L510.764 61.8326L508.831 61.3194ZM508.115 66.0299C507.795 66.1099 507.254 66.2001 506.463 66.2951L506.701 68.2809C507.509 68.1839 508.153 68.0821 508.6 67.9701L508.115 66.0299ZM506.417 66.3016C505.711 66.4193 504.935 66.48 504.086 66.48V68.48C505.029 68.48 505.916 68.4127 506.746 68.2744L506.417 66.3016ZM488.342 52.352C489.155 52.352 489.938 52.3357 490.689 52.3031L490.602 50.3049C489.882 50.3363 489.128 50.352 488.342 50.352V52.352ZM490.687 52.3031C491.471 52.2705 492.181 52.2212 492.814 52.1545L492.605 50.1655C492.023 50.2268 491.356 50.2735 490.604 50.3049L490.687 52.3031ZM492.827 52.1531C494.021 52.0127 495.107 51.6179 495.735 50.7287L494.101 49.5753C493.96 49.7741 493.575 50.0513 492.593 50.1668L492.827 52.1531ZM495.728 50.7375C496.283 49.97 496.542 49.0706 496.542 48.088H494.542C494.542 48.7054 494.385 49.182 494.107 49.5665L495.728 50.7375ZM496.542 48.088V47.56H494.542V48.088H496.542ZM496.542 47.56C496.542 46.6497 496.265 45.8108 495.596 45.1932L494.239 46.6628C494.402 46.8132 494.542 47.0623 494.542 47.56H496.542ZM495.625 45.2209C494.94 44.5364 493.859 44.352 492.758 44.352V46.352C493.769 46.352 494.127 46.5516 494.211 46.6351L495.625 45.2209ZM492.758 44.352H482.774V46.352H492.758V44.352ZM481.774 45.352V51.16H483.774V45.352H481.774ZM482.734 52.1592C483.523 52.1908 484.394 52.2383 485.347 52.3018L485.48 50.3062C484.513 50.2417 483.624 50.1932 482.814 50.1608L482.734 52.1592ZM485.38 52.3034C486.352 52.3358 487.339 52.352 488.342 52.352V50.352C487.36 50.352 486.396 50.3362 485.447 50.3046L485.38 52.3034Z" fill="black"/>
<defs>
<linearGradient id="paint0_linear_513_86" x1="344.5" y1="24" x2="344.5" y2="82" gradientUnits="userSpaceOnUse">
<stop stop-color="#F7A12F"/>
<stop offset="1" stop-color="#F7A12F"/>
</linearGradient>
</defs>
</svg>
