<svg width="680" height="680" viewBox="0 0 680 680" fill="none" xmlns="http://www.w3.org/2000/svg">
<rect x="1.5" y="1.5" width="677" height="677" rx="1.5" fill="#D0D0D0" stroke="black" stroke-width="3"/>
<rect x="65.5" y="300.5" width="549" height="339" rx="2.5" stroke="black"/>
<g clip-path="url(#clip0_513_86)">
<path d="M462.544 510.812H477.883C480.9 510.813 483.793 512.006 485.928 514.127C488.064 516.248 489.267 519.125 489.275 522.127V536.482C489.275 537.972 488.98 539.447 488.407 540.823C487.834 542.2 486.995 543.451 485.936 544.504C484.878 545.557 483.621 546.393 482.238 546.963C480.855 547.533 479.373 547.827 477.876 547.827H462.544V510.812Z" stroke="black" stroke-width="13" stroke-linecap="round" stroke-linejoin="round"/>
<path d="M462.544 510.812H477.883C480.9 510.813 483.793 512.006 485.928 514.127C488.064 516.248 489.267 519.125 489.275 522.127V536.482C489.275 537.972 488.98 539.447 488.407 540.823C487.834 542.2 486.995 543.451 485.936 544.504C484.878 545.557 483.621 546.393 482.238 546.963C480.855 547.533 479.373 547.827 477.876 547.827H462.544V510.812Z" stroke="#F7F3ED" stroke-width="6" stroke-linecap="round" stroke-linejoin="round"/>
<path d="M473.427 557.638C473.447 558.618 473.155 559.579 472.592 560.384C472.029 561.189 471.225 561.795 470.294 562.116C454.325 567.196 437.163 567.196 421.195 562.116C420.268 561.793 419.469 561.186 418.91 560.383C418.351 559.58 418.062 558.622 418.083 557.645V501.985C418.066 501.037 418.339 500.106 418.866 499.316C419.393 498.526 420.15 497.915 421.035 497.564C436.973 491.627 454.53 491.627 470.468 497.564C471.345 497.92 472.092 498.532 472.612 499.32C473.131 500.109 473.398 501.035 473.376 501.977L473.427 557.638Z" fill="#F7F3ED" stroke="black" stroke-width="2.97" stroke-linecap="round" stroke-linejoin="round"/>
<path d="M446.231 506.861C452.678 506.76 459.037 505.365 464.929 502.759C461.796 500.704 454.199 499.257 445.301 499.257C436.621 499.257 429.169 500.639 425.905 502.621C432.287 505.499 439.226 506.946 446.231 506.861Z" fill="#422A26" stroke="black" stroke-width="2.97" stroke-linecap="round" stroke-linejoin="round"/>
<path d="M422.605 500.979C429.641 504.841 437.545 506.866 445.581 506.866C453.616 506.866 461.52 504.841 468.556 500.979" stroke="black" stroke-width="2.97" stroke-linecap="round" stroke-linejoin="round"/>
<path d="M429.598 533.602C428.871 535.715 427.417 537.148 425.789 537.148C423.397 537.148 421.427 534.123 421.427 530.383C421.427 526.642 423.368 523.618 425.789 523.618C427.287 523.618 428.61 524.812 429.424 526.62" stroke="black" stroke-width="2.97" stroke-linecap="round" stroke-linejoin="round"/>
<path d="M436.563 537.148C439.232 537.148 441.397 534.119 441.397 530.383C441.397 526.647 439.232 523.618 436.563 523.618C433.893 523.618 431.728 526.647 431.728 530.383C431.728 534.119 433.893 537.148 436.563 537.148Z" stroke="black" stroke-width="2.97" stroke-linecap="round" stroke-linejoin="round"/>
<path d="M468.862 534.977C468.498 535.606 467.983 536.133 467.362 536.513C466.741 536.892 466.034 537.11 465.307 537.148C462.639 537.148 460.472 534.123 460.472 530.383C460.472 526.642 462.653 523.618 465.307 523.618C467.96 523.618 470.141 526.649 470.141 530.383V530.708" stroke="black" stroke-width="2.97" stroke-linecap="round" stroke-linejoin="round"/>
<path d="M444.188 537.234V528.936C444.188 526.042 446.093 523.697 448.448 523.697H451.146" stroke="black" stroke-width="2.97" stroke-linecap="round" stroke-linejoin="round"/>
<path d="M452.389 537.234V528.936C452.389 526.042 454.301 523.697 456.649 523.697H459.658" stroke="black" stroke-width="2.97" stroke-linecap="round" stroke-linejoin="round"/>
<path d="M444.196 530.867H449.43" stroke="black" stroke-width="2.97" stroke-linecap="round" stroke-linejoin="round"/>
<path d="M452.389 530.867H457.55" stroke="black" stroke-width="2.97" stroke-linecap="round" stroke-linejoin="round"/>
<path d="M460.581 530.867H470.141" stroke="black" stroke-width="2.97" stroke-linecap="round" stroke-linejoin="round"/>
</g>
<g clip-path="url(#clip1_513_86)">
<path d="M214.983 522.14H289.134L276.22 565.875H227.889L214.983 522.14Z" fill="#E5BD9A" stroke="black" stroke-width="2.97" stroke-linecap="round" stroke-linejoin="round"/>
<path d="M232.281 522.925L240.393 565.294" stroke="black" stroke-width="2.97" stroke-linecap="round" stroke-linejoin="round"/>
<path d="M252.394 565.875L252.721 522.925" stroke="black" stroke-width="2.97" stroke-linecap="round" stroke-linejoin="round"/>
<path d="M264.395 565.294L271.535 522.631" stroke="black" stroke-width="2.97" stroke-linecap="round" stroke-linejoin="round"/>
<path d="M244.6 493.125H259.4C263.519 493.123 267.598 493.852 271.404 495.27C275.21 496.688 278.669 498.767 281.582 501.39C284.496 504.012 286.808 507.125 288.385 510.553C289.963 513.98 290.775 517.653 290.776 521.363C290.776 521.563 290.688 521.755 290.531 521.897C290.374 522.038 290.161 522.118 289.938 522.118H214.112C213.89 522.118 213.676 522.038 213.519 521.897C213.362 521.755 213.274 521.563 213.274 521.363C213.276 513.878 216.576 506.7 222.45 501.406C228.324 496.111 236.29 493.133 244.6 493.125Z" fill="#F29555" stroke="black" stroke-width="2.97" stroke-linecap="round" stroke-linejoin="round"/>
<path d="M267.294 501.254C270.064 502.165 272.679 503.42 275.063 504.983" stroke="black" stroke-width="2.97" stroke-linecap="round" stroke-linejoin="round"/>
<path d="M242.052 500.552C245.32 499.927 248.677 499.767 252 500.077" stroke="black" stroke-width="2.97" stroke-linecap="round" stroke-linejoin="round"/>
<path d="M251.589 505.549C253.36 505.417 255.14 505.417 256.911 505.549C258.838 505.681 260.748 505.966 262.618 506.402" stroke="black" stroke-width="2.97" stroke-linecap="round" stroke-linejoin="round"/>
<path d="M234.217 502.96L234.787 502.62" stroke="black" stroke-width="2.97" stroke-linecap="round" stroke-linejoin="round"/>
</g>
<g clip-path="url(#clip2_513_86)">
<path d="M284.607 342.292H303.662C308.211 342.292 312.573 344.097 315.79 347.311C319.006 350.524 320.813 354.883 320.813 359.428V359.977C320.813 362.227 320.369 364.456 319.507 366.535C318.646 368.614 317.382 370.503 315.79 372.094C314.197 373.685 312.306 374.948 310.225 375.809C308.145 376.67 305.914 377.113 303.662 377.113H284.607C284.431 377.113 284.257 377.079 284.095 377.012C283.933 376.944 283.785 376.846 283.661 376.722C283.537 376.598 283.438 376.45 283.371 376.288C283.304 376.126 283.269 375.952 283.269 375.776V343.629C283.269 343.453 283.304 343.279 283.371 343.117C283.438 342.955 283.537 342.807 283.661 342.683C283.785 342.559 283.933 342.461 284.095 342.393C284.257 342.326 284.431 342.292 284.607 342.292Z" fill="#DB7165" stroke="black" stroke-width="2.97" stroke-linecap="round" stroke-linejoin="round"/>
<path d="M272.841 326.811H231.235C213.553 326.811 199.219 341.133 199.219 358.799V359.834C199.219 377.5 213.553 391.822 231.235 391.822H272.841C290.523 391.822 304.857 377.5 304.857 359.834V358.799C304.857 341.133 290.523 326.811 272.841 326.811Z" fill="#FCC26D" stroke="black" stroke-width="2.97" stroke-linecap="round" stroke-linejoin="round"/>
<path d="M201.322 341.878H210.451C211.926 341.878 213.386 342.168 214.749 342.733C216.111 343.298 217.349 344.125 218.391 345.168C219.432 346.212 220.258 347.45 220.82 348.812C221.383 350.175 221.67 351.635 221.667 353.108V365.525C221.667 366.996 221.377 368.454 220.814 369.813C220.25 371.173 219.424 372.408 218.382 373.449C217.341 374.49 216.104 375.315 214.743 375.878C213.383 376.441 211.924 376.731 210.451 376.731H201.322C196.776 376.727 192.418 374.92 189.205 371.707C185.992 368.493 184.187 364.137 184.187 359.595V359.046C184.183 356.794 184.623 354.564 185.482 352.482C186.341 350.4 187.602 348.508 189.193 346.914C190.785 345.319 192.675 344.054 194.756 343.19C196.837 342.326 199.068 341.88 201.322 341.878Z" fill="#DB7165" stroke="black" stroke-width="2.97" stroke-linecap="round" stroke-linejoin="round"/>
<path d="M221.404 327.384C224.297 327.366 227.165 327.918 229.844 329.007C232.523 330.097 234.961 331.703 237.019 333.734C239.077 335.765 240.714 338.181 241.838 340.844C242.961 343.508 243.548 346.366 243.566 349.256V358.353" stroke="black" stroke-width="2.97" stroke-linecap="round" stroke-linejoin="round"/>
<path d="M243.048 327.384C248.889 327.35 254.503 329.635 258.658 333.737C262.812 337.838 265.166 343.421 265.202 349.256V358.353" stroke="black" stroke-width="2.97" stroke-linecap="round" stroke-linejoin="round"/>
<path d="M264.278 327.384C270.118 327.35 275.733 329.635 279.887 333.737C284.042 337.838 286.396 343.421 286.431 349.256V358.353" stroke="black" stroke-width="2.97" stroke-linecap="round" stroke-linejoin="round"/>
<path d="M303.2 328.132L299.289 324.232C297.719 322.637 295.846 321.37 293.781 320.506C291.716 319.641 289.499 319.196 287.26 319.196C285.021 319.196 282.804 319.641 280.739 320.506C278.674 321.37 276.801 322.637 275.231 324.232L274.968 324.495C273.427 325.989 271.364 326.824 269.217 326.824C267.07 326.824 265.007 325.989 263.465 324.495C261.894 322.901 260.021 321.634 257.955 320.77C255.889 319.906 253.672 319.461 251.433 319.461C249.193 319.461 246.976 319.906 244.91 320.77C242.844 321.634 240.971 322.901 239.4 324.495L239.272 324.63C237.73 326.124 235.665 326.96 233.517 326.96C231.368 326.96 229.304 326.124 227.761 324.63L227.634 324.511C225.978 322.833 223.987 321.521 221.792 320.66C219.596 319.799 217.244 319.408 214.888 319.512C210.618 319.698 206.574 321.482 203.56 324.511L203.425 324.654C202.068 326.112 200.874 327.713 199.864 329.43C199.175 330.683 198.948 332.137 199.222 333.541C199.495 334.944 200.253 336.207 201.362 337.11C202.103 337.663 203.002 337.964 203.927 337.97C204.777 337.948 205.606 337.695 206.323 337.238C207.041 336.781 207.62 336.137 207.998 335.375C208.564 334.498 209.203 333.67 209.909 332.9C211.351 331.525 213.247 330.727 215.239 330.655C216.362 330.6 217.485 330.777 218.536 331.175C219.587 331.574 220.545 332.185 221.349 332.971L221.476 333.099C223.047 334.692 224.92 335.957 226.985 336.82C229.05 337.684 231.266 338.129 233.505 338.129C235.744 338.129 237.96 337.684 240.025 336.82C242.09 335.957 243.962 334.692 245.534 333.099L245.669 332.971C247.213 331.479 249.277 330.645 251.425 330.645C253.573 330.645 255.636 331.479 257.18 332.971C258.751 334.565 260.623 335.831 262.688 336.696C264.753 337.56 266.97 338.005 269.209 338.005C271.448 338.005 273.664 337.56 275.729 336.696C277.794 335.831 279.667 334.565 281.238 332.971L281.501 332.717C283.043 331.225 285.105 330.391 287.252 330.391C289.399 330.391 291.461 331.225 293.004 332.717L296.899 336.609C297.35 337.081 297.902 337.446 298.513 337.677C299.124 337.908 299.779 338 300.43 337.945C301.081 337.89 301.711 337.69 302.275 337.359C302.838 337.029 303.32 336.577 303.686 336.036C304.542 334.869 304.961 333.44 304.873 331.996C304.784 330.553 304.192 329.185 303.2 328.132Z" fill="#D3222B" stroke="black" stroke-width="3" stroke-miterlimit="10"/>
</g>
<path d="M157.84 241V212.728H178.72C181.728 212.728 183.92 213.336 185.296 214.552C186.672 215.736 187.36 217.176 187.36 218.872V220.312C187.36 221.624 187.072 222.712 186.496 223.576C185.952 224.408 185.36 225 184.72 225.352C186.128 225.8 187.248 226.584 188.08 227.704C188.912 228.792 189.328 230.232 189.328 232.024V232.888C189.328 233.848 189.216 234.808 188.992 235.768C188.768 236.728 188.336 237.608 187.696 238.408C187.088 239.176 186.208 239.8 185.056 240.28C183.936 240.76 182.464 241 180.64 241H157.84ZM164.176 224.056H177.712C178.832 224.088 179.664 223.816 180.208 223.24C180.752 222.632 181.024 221.88 181.024 220.984V220.504C181.024 219.768 180.768 219.064 180.256 218.392C179.744 217.688 178.784 217.336 177.376 217.336H164.176V224.056ZM164.176 236.392H179.296C180.512 236.392 181.424 236.088 182.032 235.48C182.672 234.872 182.992 234.04 182.992 232.984V232.12C182.992 231.128 182.624 230.328 181.888 229.72C181.152 229.08 179.936 228.76 178.24 228.76H164.176V236.392ZM199.883 241V212.776H229.739V217.384H206.219V224.008H224.171V228.76H206.219V236.392H229.931L231.851 240.472C231.851 240.6 231.419 240.728 230.555 240.856C229.691 240.952 228.203 241 226.091 241H199.883ZM245.849 241C243.673 241 242.073 240.904 241.049 240.712C240.025 240.52 239.513 240.296 239.513 240.04L241.433 235.864C242.169 235.992 243.993 236.12 246.905 236.248C249.849 236.344 253.881 236.392 259.001 236.392H259.913C261.289 236.392 262.265 236.152 262.841 235.672C263.417 235.16 263.705 234.312 263.705 233.128V232.168C263.705 231.048 263.465 230.248 262.985 229.768C262.537 229.288 261.513 229.048 259.913 229.048H248.777C245.545 229.048 243.193 228.456 241.721 227.272C240.249 226.056 239.513 224.088 239.513 221.368V220.6C239.513 219.192 239.769 217.896 240.281 216.712C240.825 215.528 241.737 214.584 243.017 213.88C244.297 213.144 246.057 212.776 248.297 212.776H261.353C263.529 212.776 265.289 212.888 266.633 213.112C267.977 213.336 268.649 213.576 268.649 213.832L267.689 217.864C266.857 217.768 264.969 217.672 262.025 217.576C259.081 217.448 255.129 217.384 250.169 217.384L249.641 217.336C248.169 217.336 247.177 217.64 246.665 218.248C246.153 218.824 245.881 219.56 245.849 220.456V221.272C245.849 222.328 246.137 223.128 246.713 223.672C247.321 224.184 248.313 224.44 249.689 224.44H260.345C262.393 224.44 264.137 224.648 265.577 225.064C267.017 225.48 268.121 226.248 268.889 227.368C269.657 228.456 270.041 230.072 270.041 232.216V232.984C270.041 235.384 269.417 237.32 268.169 238.792C266.953 240.264 264.825 241 261.785 241H245.849ZM290.242 241L290.194 217.336H277.714V212.728H309.106V217.336H296.578V241H290.242Z" fill="#F7A12F"/>
<path d="M157.84 241H156.84C156.84 241.552 157.288 242 157.84 242V241ZM157.84 212.728V211.728C157.288 211.728 156.84 212.176 156.84 212.728H157.84ZM185.296 214.552L184.634 215.301L184.644 215.31L185.296 214.552ZM186.496 223.576L185.664 223.021L185.659 223.029L186.496 223.576ZM184.72 225.352L184.238 224.476C183.888 224.668 183.686 225.051 183.725 225.449C183.764 225.847 184.036 226.184 184.417 226.305L184.72 225.352ZM188.08 227.704L187.277 228.3L187.286 228.311L188.08 227.704ZM188.992 235.768L188.018 235.541L188.018 235.541L188.992 235.768ZM187.696 238.408L186.915 237.783L186.912 237.787L187.696 238.408ZM185.056 240.28L184.671 239.357L184.662 239.361L185.056 240.28ZM164.176 224.056H163.176C163.176 224.608 163.624 225.056 164.176 225.056V224.056ZM177.712 224.056L177.741 223.056C177.731 223.056 177.722 223.056 177.712 223.056V224.056ZM180.208 223.24L180.935 223.927C180.941 223.92 180.947 223.913 180.953 223.907L180.208 223.24ZM180.256 218.392L179.447 218.98C179.452 218.986 179.456 218.992 179.461 218.998L180.256 218.392ZM164.176 217.336V216.336C163.624 216.336 163.176 216.784 163.176 217.336H164.176ZM164.176 236.392H163.176C163.176 236.944 163.624 237.392 164.176 237.392V236.392ZM182.032 235.48L181.343 234.755C181.337 234.761 181.331 234.767 181.325 234.773L182.032 235.48ZM181.888 229.72L181.232 230.475C181.238 230.48 181.245 230.486 181.251 230.491L181.888 229.72ZM164.176 228.76V227.76C163.624 227.76 163.176 228.208 163.176 228.76H164.176ZM158.84 241V212.728H156.84V241H158.84ZM157.84 213.728H178.72V211.728H157.84V213.728ZM178.72 213.728C181.63 213.728 183.526 214.323 184.634 215.301L185.958 213.803C184.314 212.349 181.826 211.728 178.72 211.728V213.728ZM184.644 215.31C185.817 216.319 186.36 217.49 186.36 218.872H188.36C188.36 216.862 187.527 215.153 185.948 213.794L184.644 215.31ZM186.36 218.872V220.312H188.36V218.872H186.36ZM186.36 220.312C186.36 221.478 186.105 222.36 185.664 223.021L187.328 224.131C188.039 223.064 188.36 221.769 188.36 220.312H186.36ZM185.659 223.029C185.174 223.771 184.692 224.226 184.238 224.476L185.202 226.228C186.028 225.774 186.73 225.045 187.333 224.123L185.659 223.029ZM184.417 226.305C185.638 226.693 186.578 227.359 187.277 228.3L188.883 227.108C187.918 225.809 186.618 224.907 185.023 224.399L184.417 226.305ZM187.286 228.311C187.948 229.178 188.328 230.384 188.328 232.024H190.328C190.328 230.08 189.876 228.406 188.874 227.097L187.286 228.311ZM188.328 232.024V232.888H190.328V232.024H188.328ZM188.328 232.888C188.328 233.769 188.225 234.653 188.018 235.541L189.966 235.995C190.207 234.963 190.328 233.927 190.328 232.888H188.328ZM188.018 235.541C187.829 236.35 187.466 237.095 186.915 237.783L188.477 239.033C189.206 238.121 189.707 237.106 189.966 235.995L188.018 235.541ZM186.912 237.787C186.434 238.391 185.709 238.925 184.671 239.357L185.441 241.203C186.707 240.675 187.742 239.961 188.48 239.029L186.912 237.787ZM184.662 239.361C183.713 239.768 182.39 240 180.64 240V242C182.538 242 184.159 241.752 185.45 241.199L184.662 239.361ZM180.64 240H157.84V242H180.64V240ZM164.176 225.056H177.712V223.056H164.176V225.056ZM177.683 225.056C178.967 225.092 180.125 224.784 180.935 223.927L179.481 222.553C179.203 222.848 178.697 223.084 177.741 223.056L177.683 225.056ZM180.953 223.907C181.678 223.097 182.024 222.1 182.024 220.984H180.024C180.024 221.66 179.826 222.167 179.463 222.573L180.953 223.907ZM182.024 220.984V220.504H180.024V220.984H182.024ZM182.024 220.504C182.024 219.517 181.676 218.605 181.051 217.786L179.461 218.998C179.86 219.523 180.024 220.019 180.024 220.504H182.024ZM181.065 217.804C180.272 216.714 178.905 216.336 177.376 216.336V218.336C178.663 218.336 179.216 218.662 179.447 218.98L181.065 217.804ZM177.376 216.336H164.176V218.336H177.376V216.336ZM163.176 217.336V224.056H165.176V217.336H163.176ZM164.176 237.392H179.296V235.392H164.176V237.392ZM179.296 237.392C180.666 237.392 181.877 237.049 182.739 236.187L181.325 234.773C180.971 235.127 180.358 235.392 179.296 235.392V237.392ZM182.721 236.205C183.598 235.372 183.992 234.256 183.992 232.984H181.992C181.992 233.824 181.746 234.372 181.343 234.755L182.721 236.205ZM183.992 232.984V232.12H181.992V232.984H183.992ZM183.992 232.12C183.992 230.843 183.501 229.755 182.525 228.949L181.251 230.491C181.747 230.901 181.992 231.413 181.992 232.12H183.992ZM182.544 228.965C181.533 228.086 180.015 227.76 178.24 227.76V229.76C179.857 229.76 180.771 230.074 181.232 230.475L182.544 228.965ZM178.24 227.76H164.176V229.76H178.24V227.76ZM163.176 228.76V236.392H165.176V228.76H163.176ZM199.883 241H198.883C198.883 241.552 199.331 242 199.883 242V241ZM199.883 212.776V211.776C199.331 211.776 198.883 212.224 198.883 212.776H199.883ZM229.739 212.776H230.739C230.739 212.224 230.291 211.776 229.739 211.776V212.776ZM229.739 217.384V218.384C230.291 218.384 230.739 217.936 230.739 217.384H229.739ZM206.219 217.384V216.384C205.667 216.384 205.219 216.832 205.219 217.384H206.219ZM206.219 224.008H205.219C205.219 224.56 205.667 225.008 206.219 225.008V224.008ZM224.171 224.008H225.171C225.171 223.456 224.723 223.008 224.171 223.008V224.008ZM224.171 228.76V229.76C224.723 229.76 225.171 229.312 225.171 228.76H224.171ZM206.219 228.76V227.76C205.667 227.76 205.219 228.208 205.219 228.76H206.219ZM206.219 236.392H205.219C205.219 236.944 205.667 237.392 206.219 237.392V236.392ZM229.931 236.392L230.836 235.966C230.671 235.616 230.318 235.392 229.931 235.392V236.392ZM231.851 240.472H232.851C232.851 240.325 232.819 240.179 232.756 240.046L231.851 240.472ZM230.555 240.856L230.666 241.85C230.678 241.849 230.69 241.847 230.702 241.845L230.555 240.856ZM200.883 241V212.776H198.883V241H200.883ZM199.883 213.776H229.739V211.776H199.883V213.776ZM228.739 212.776V217.384H230.739V212.776H228.739ZM229.739 216.384H206.219V218.384H229.739V216.384ZM205.219 217.384V224.008H207.219V217.384H205.219ZM206.219 225.008H224.171V223.008H206.219V225.008ZM223.171 224.008V228.76H225.171V224.008H223.171ZM224.171 227.76H206.219V229.76H224.171V227.76ZM205.219 228.76V236.392H207.219V228.76H205.219ZM206.219 237.392H229.931V235.392H206.219V237.392ZM229.026 236.818L230.946 240.898L232.756 240.046L230.836 235.966L229.026 236.818ZM230.851 240.472C230.851 240.187 230.976 239.983 231.067 239.875C231.152 239.774 231.234 239.723 231.26 239.708C231.312 239.677 231.324 239.681 231.243 239.705C231.096 239.749 230.829 239.805 230.409 239.867L230.702 241.845C231.146 241.779 231.526 241.707 231.811 241.623C231.946 241.583 232.12 241.523 232.28 241.428C232.359 241.381 232.851 241.091 232.851 240.472H230.851ZM230.445 239.862C229.642 239.951 228.203 240 226.091 240V242C228.203 242 229.741 241.953 230.666 241.85L230.445 239.862ZM226.091 240H199.883V242H226.091V240ZM241.049 240.712L241.233 239.729L241.233 239.729L241.049 240.712ZM239.513 240.04L238.605 239.622C238.544 239.753 238.513 239.896 238.513 240.04H239.513ZM241.433 235.864L241.604 234.879C241.157 234.801 240.714 235.034 240.525 235.446L241.433 235.864ZM246.905 236.248L246.861 237.247L246.873 237.247L246.905 236.248ZM262.841 235.672L263.481 236.44C263.489 236.433 263.498 236.426 263.505 236.419L262.841 235.672ZM262.985 229.768L262.254 230.45C262.262 230.459 262.27 230.467 262.278 230.475L262.985 229.768ZM241.721 227.272L241.084 228.043L241.094 228.051L241.721 227.272ZM240.281 216.712L239.372 216.294C239.369 216.301 239.366 216.308 239.363 216.315L240.281 216.712ZM243.017 213.88L243.499 214.756C243.505 214.753 243.51 214.75 243.516 214.747L243.017 213.88ZM266.633 213.112L266.798 212.126L266.798 212.126L266.633 213.112ZM268.649 213.832L269.622 214.064C269.64 213.988 269.649 213.91 269.649 213.832H268.649ZM267.689 217.864L267.575 218.857C268.078 218.915 268.545 218.588 268.662 218.096L267.689 217.864ZM262.025 217.576L261.982 218.575L261.993 218.575L262.025 217.576ZM250.169 217.384L250.079 218.38C250.109 218.383 250.139 218.384 250.169 218.384V217.384ZM249.641 217.336L249.732 216.34C249.702 216.337 249.671 216.336 249.641 216.336V217.336ZM246.665 218.248L247.413 218.912C247.418 218.906 247.424 218.899 247.43 218.892L246.665 218.248ZM245.849 220.456L244.85 220.42C244.849 220.432 244.849 220.444 244.849 220.456H245.849ZM246.713 223.672L246.027 224.399C246.04 224.412 246.054 224.425 246.069 224.437L246.713 223.672ZM265.577 225.064L265.855 224.103L265.855 224.103L265.577 225.064ZM268.889 227.368L268.064 227.934L268.072 227.945L268.889 227.368ZM268.169 238.792L267.406 238.145L267.398 238.155L268.169 238.792ZM245.849 240C243.683 240 242.161 239.903 241.233 239.729L240.865 241.695C241.985 241.905 243.663 242 245.849 242V240ZM241.233 239.729C240.744 239.637 240.449 239.55 240.298 239.484C240.22 239.45 240.24 239.446 240.293 239.496C240.353 239.553 240.513 239.737 240.513 240.04H238.513C238.513 240.471 238.737 240.779 238.925 240.956C239.107 241.126 239.318 241.238 239.496 241.316C239.858 241.474 240.331 241.595 240.865 241.695L241.233 239.729ZM240.422 240.458L242.342 236.282L240.525 235.446L238.605 239.622L240.422 240.458ZM241.262 236.849C242.075 236.991 243.972 237.12 246.861 237.247L246.949 235.249C244.014 235.12 242.263 234.993 241.604 234.879L241.262 236.849ZM246.873 237.247C249.832 237.344 253.877 237.392 259.001 237.392V235.392C253.885 235.392 249.866 235.344 246.938 235.249L246.873 237.247ZM259.001 237.392H259.913V235.392H259.001V237.392ZM259.913 237.392C261.351 237.392 262.627 237.152 263.481 236.44L262.201 234.904C261.903 235.152 261.228 235.392 259.913 235.392V237.392ZM263.505 236.419C264.387 235.636 264.705 234.445 264.705 233.128H262.705C262.705 234.179 262.447 234.684 262.177 234.925L263.505 236.419ZM264.705 233.128V232.168H262.705V233.128H264.705ZM264.705 232.168C264.705 230.946 264.45 229.819 263.692 229.061L262.278 230.475C262.48 230.677 262.705 231.15 262.705 232.168H264.705ZM263.716 229.086C263.298 228.638 262.708 228.395 262.109 228.254C261.495 228.11 260.755 228.048 259.913 228.048V230.048C260.672 230.048 261.244 230.106 261.653 230.202C262.078 230.301 262.224 230.418 262.254 230.45L263.716 229.086ZM259.913 228.048H248.777V230.048H259.913V228.048ZM248.777 228.048C245.626 228.048 243.554 227.463 242.348 226.493L241.094 228.051C242.832 229.449 245.464 230.048 248.777 230.048V228.048ZM242.358 226.501C241.201 225.545 240.513 223.921 240.513 221.368H238.513C238.513 224.255 239.297 226.567 241.084 228.043L242.358 226.501ZM240.513 221.368V220.6H238.513V221.368H240.513ZM240.513 220.6C240.513 219.316 240.746 218.157 241.199 217.109L239.363 216.315C238.792 217.635 238.513 219.068 238.513 220.6H240.513ZM241.19 217.129C241.634 216.164 242.383 215.37 243.499 214.756L242.535 213.004C241.091 213.798 240.017 214.892 239.372 216.294L241.19 217.129ZM243.516 214.747C244.585 214.132 246.149 213.776 248.297 213.776V211.776C245.966 211.776 244.009 212.156 242.519 213.013L243.516 214.747ZM248.297 213.776H261.353V211.776H248.297V213.776ZM261.353 213.776C263.502 213.776 265.201 213.887 266.469 214.098L266.798 212.126C265.377 211.889 263.556 211.776 261.353 211.776V213.776ZM266.469 214.098C267.125 214.208 267.558 214.312 267.809 214.402C267.94 214.449 267.96 214.47 267.929 214.448C267.92 214.44 267.649 214.244 267.649 213.832H269.649C269.649 213.292 269.295 212.97 269.117 212.838C268.918 212.692 268.686 212.591 268.481 212.518C268.06 212.368 267.486 212.24 266.798 212.126L266.469 214.098ZM267.676 213.6L266.716 217.632L268.662 218.096L269.622 214.064L267.676 213.6ZM267.804 216.871C266.923 216.769 264.99 216.672 262.058 216.577L261.993 218.575C264.948 218.672 266.792 218.767 267.575 218.857L267.804 216.871ZM262.069 216.577C259.104 216.448 255.135 216.384 250.169 216.384V218.384C255.123 218.384 259.059 218.448 261.982 218.575L262.069 216.577ZM250.26 216.388L249.732 216.34L249.551 218.332L250.079 218.38L250.26 216.388ZM249.641 216.336C248.107 216.336 246.713 216.638 245.9 217.604L247.43 218.892C247.641 218.642 248.232 218.336 249.641 218.336V216.336ZM245.918 217.584C245.227 218.361 244.889 219.332 244.85 220.42L246.848 220.492C246.874 219.788 247.08 219.287 247.413 218.912L245.918 217.584ZM244.849 220.456V221.272H246.849V220.456H244.849ZM244.849 221.272C244.849 222.508 245.19 223.609 246.027 224.399L247.4 222.945C247.084 222.647 246.849 222.148 246.849 221.272H244.849ZM246.069 224.437C246.949 225.178 248.234 225.44 249.689 225.44V223.44C248.392 223.44 247.693 223.19 247.357 222.907L246.069 224.437ZM249.689 225.44H260.345V223.44H249.689V225.44ZM260.345 225.44C262.331 225.44 263.976 225.642 265.3 226.025L265.855 224.103C264.298 223.654 262.455 223.44 260.345 223.44V225.44ZM265.3 226.025C266.542 226.384 267.441 227.025 268.064 227.934L269.714 226.802C268.801 225.471 267.493 224.576 265.855 224.103L265.3 226.025ZM268.072 227.945C268.668 228.789 269.041 230.163 269.041 232.216H271.041C271.041 229.981 270.646 228.123 269.706 226.791L268.072 227.945ZM269.041 232.216V232.984H271.041V232.216H269.041ZM269.041 232.984C269.041 235.207 268.467 236.895 267.406 238.145L268.932 239.439C270.368 237.745 271.041 235.561 271.041 232.984H269.041ZM267.398 238.155C266.461 239.289 264.702 240 261.785 240V242C264.948 242 267.445 241.239 268.94 239.429L267.398 238.155ZM261.785 240H245.849V242H261.785V240ZM290.242 241L289.242 241.002C289.243 241.554 289.691 242 290.242 242V241ZM290.194 217.336L291.194 217.334C291.193 216.782 290.746 216.336 290.194 216.336V217.336ZM277.714 217.336H276.714C276.714 217.888 277.162 218.336 277.714 218.336V217.336ZM277.714 212.728V211.728C277.162 211.728 276.714 212.176 276.714 212.728H277.714ZM309.106 212.728H310.106C310.106 212.176 309.659 211.728 309.106 211.728V212.728ZM309.106 217.336V218.336C309.659 218.336 310.106 217.888 310.106 217.336H309.106ZM296.578 217.336V216.336C296.026 216.336 295.578 216.784 295.578 217.336H296.578ZM296.578 241V242C297.131 242 297.578 241.552 297.578 241H296.578ZM291.242 240.998L291.194 217.334L289.194 217.338L289.242 241.002L291.242 240.998ZM290.194 216.336H277.714V218.336H290.194V216.336ZM278.714 217.336V212.728H276.714V217.336H278.714ZM277.714 213.728H309.106V211.728H277.714V213.728ZM308.106 212.728V217.336H310.106V212.728H308.106ZM309.106 216.336H296.578V218.336H309.106V216.336ZM295.578 217.336V241H297.578V217.336H295.578ZM296.578 240H290.242V242H296.578V240Z" fill="black"/>
<path d="M163.216 123C161.04 123 159.44 122.904 158.416 122.712C157.392 122.52 156.88 122.296 156.88 122.04L158.8 117.864C159.536 117.992 161.36 118.12 164.272 118.248C167.216 118.344 171.248 118.392 176.368 118.392H177.28C178.656 118.392 179.632 118.152 180.208 117.672C180.784 117.16 181.072 116.312 181.072 115.128V114.168C181.072 113.048 180.832 112.248 180.352 111.768C179.904 111.288 178.88 111.048 177.28 111.048H166.144C162.912 111.048 160.56 110.456 159.088 109.272C157.616 108.056 156.88 106.088 156.88 103.368V102.6C156.88 101.192 157.136 99.896 157.648 98.712C158.192 97.528 159.104 96.584 160.384 95.88C161.664 95.144 163.424 94.776 165.664 94.776H178.72C180.896 94.776 182.656 94.888 184 95.112C185.344 95.336 186.016 95.576 186.016 95.832L185.056 99.864C184.224 99.768 182.336 99.672 179.392 99.576C176.448 99.448 172.496 99.384 167.536 99.384L167.008 99.336C165.536 99.336 164.544 99.64 164.032 100.248C163.52 100.824 163.248 101.56 163.216 102.456V103.272C163.216 104.328 163.504 105.128 164.08 105.672C164.688 106.184 165.68 106.44 167.056 106.44H177.712C179.76 106.44 181.504 106.648 182.944 107.064C184.384 107.48 185.488 108.248 186.256 109.368C187.024 110.456 187.408 112.072 187.408 114.216V114.984C187.408 117.384 186.784 119.32 185.536 120.792C184.32 122.264 182.192 123 179.152 123H163.216ZM206.265 123C203.993 123 202.217 122.68 200.937 122.04C199.657 121.4 198.761 120.44 198.249 119.16C197.737 117.88 197.481 116.296 197.481 114.408V103.704C197.481 100.632 198.169 98.376 199.545 96.936C200.921 95.464 203.161 94.728 206.265 94.728H220.713C222.921 94.728 224.601 94.856 225.753 95.112C226.937 95.336 227.529 95.576 227.529 95.832L226.569 99.816C226.025 99.72 224.409 99.624 221.721 99.528C219.065 99.4 215.193 99.336 210.105 99.336H207.657C205.097 99.336 203.817 100.472 203.817 102.744V114.984C203.817 116.072 204.089 116.92 204.633 117.528C205.209 118.104 206.217 118.392 207.657 118.392H209.625C214.937 118.392 219.049 118.344 221.961 118.248C224.905 118.12 226.729 117.992 227.433 117.864L229.401 121.032C229.401 121.192 229.129 121.432 228.585 121.752C228.073 122.072 227.113 122.36 225.705 122.616C224.297 122.872 222.265 123 219.609 123H206.265ZM246.34 123C244.1 123 242.34 122.68 241.06 122.04C239.78 121.4 238.868 120.44 238.324 119.16C237.812 117.88 237.556 116.296 237.556 114.408V103.32C237.556 101.464 237.812 99.912 238.324 98.664C238.836 97.384 239.732 96.424 241.012 95.784C242.292 95.112 244.068 94.776 246.34 94.776H260.356C262.596 94.776 264.34 95.112 265.588 95.784C266.868 96.424 267.764 97.384 268.276 98.664C268.82 99.912 269.092 101.464 269.092 103.32V114.408C269.092 117.224 268.468 119.368 267.22 120.84C265.972 122.28 263.684 123 260.356 123H246.34ZM247.732 118.392H259.012C260.196 118.392 261.108 118.088 261.748 117.48C262.42 116.872 262.756 116.04 262.756 114.984V102.744C262.756 101.816 262.42 101.032 261.748 100.392C261.076 99.72 260.164 99.384 259.012 99.384H247.732C246.58 99.384 245.652 99.688 244.948 100.296C244.244 100.904 243.892 101.72 243.892 102.744V114.984C243.892 116.072 244.228 116.92 244.9 117.528C245.604 118.104 246.548 118.392 247.732 118.392ZM310.798 123.48C309.518 123.48 308.254 123.288 307.006 122.904C305.79 122.488 304.398 121.496 302.83 119.928L299.374 116.472C297.966 115.032 296.414 113.976 294.718 113.304C293.054 112.632 290.958 112.296 288.43 112.296H286.942V123H280.606V98.616L280.126 94.728H301.39C303.438 94.728 305.038 95 306.19 95.544C307.374 96.088 308.238 96.808 308.782 97.704C309.358 98.568 309.726 99.496 309.886 100.488C310.046 101.48 310.126 102.424 310.126 103.32V104.232C310.126 104.936 310.03 105.72 309.838 106.584C309.646 107.448 309.278 108.296 308.734 109.128C308.19 109.96 307.406 110.664 306.382 111.24C305.39 111.816 304.078 112.152 302.446 112.248C302.862 112.472 303.39 112.824 304.03 113.304C304.67 113.752 305.326 114.248 305.998 114.792C306.702 115.336 307.342 115.832 307.918 116.28C308.494 116.728 308.942 117.048 309.262 117.24C310.414 117.912 311.438 118.376 312.334 118.632C313.23 118.888 313.966 119.032 314.542 119.064C315.118 119.096 315.454 119.112 315.55 119.112L314.59 123C314.302 123.096 313.822 123.192 313.15 123.288C312.478 123.416 311.694 123.48 310.798 123.48ZM294.142 107.928C295.358 107.928 296.446 107.912 297.406 107.88C298.366 107.816 299.23 107.752 299.998 107.688C301.406 107.528 302.382 107.144 302.926 106.536C303.502 105.896 303.79 105.08 303.79 104.088V102.984C303.79 101.96 303.518 101.096 302.974 100.392C302.43 99.688 301.454 99.336 300.046 99.336H286.942V107.688C288.35 107.784 289.646 107.848 290.83 107.88C292.014 107.912 293.118 107.928 294.142 107.928ZM323.716 123V94.776H353.572V99.384H330.052V106.008H348.004V110.76H330.052V118.392H353.764L355.684 122.472C355.684 122.6 355.252 122.728 354.388 122.856C353.524 122.952 352.036 123 349.924 123H323.716Z" fill="white"/>
<path d="M158.416 122.712L158.6 121.729L158.6 121.729L158.416 122.712ZM156.88 122.04L155.971 121.622C155.911 121.753 155.88 121.896 155.88 122.04H156.88ZM158.8 117.864L158.971 116.879C158.524 116.801 158.081 117.034 157.891 117.446L158.8 117.864ZM164.272 118.248L164.228 119.247L164.239 119.247L164.272 118.248ZM180.208 117.672L180.848 118.44C180.856 118.433 180.864 118.426 180.872 118.419L180.208 117.672ZM180.352 111.768L179.621 112.45C179.629 112.459 179.637 112.467 179.645 112.475L180.352 111.768ZM159.088 109.272L158.451 110.043L158.461 110.051L159.088 109.272ZM157.648 98.712L156.739 98.2945C156.736 98.3013 156.733 98.3082 156.73 98.3151L157.648 98.712ZM160.384 95.88L160.866 96.7562C160.871 96.7532 160.877 96.7501 160.882 96.7469L160.384 95.88ZM184 95.112L184.164 94.1256L184.164 94.1256L184 95.112ZM186.016 95.832L186.989 96.0636C187.007 95.9877 187.016 95.91 187.016 95.832H186.016ZM185.056 99.864L184.941 100.857C185.444 100.915 185.912 100.588 186.029 100.096L185.056 99.864ZM179.392 99.576L179.349 100.575L179.359 100.575L179.392 99.576ZM167.536 99.384L167.445 100.38C167.476 100.383 167.506 100.384 167.536 100.384V99.384ZM167.008 99.336L167.099 98.3401C167.068 98.3374 167.038 98.336 167.008 98.336V99.336ZM164.032 100.248L164.779 100.912C164.785 100.906 164.791 100.899 164.797 100.892L164.032 100.248ZM163.216 102.456L162.217 102.42C162.216 102.432 162.216 102.444 162.216 102.456H163.216ZM164.08 105.672L163.393 106.399C163.407 106.412 163.421 106.425 163.436 106.437L164.08 105.672ZM182.944 107.064L183.222 106.103L183.222 106.103L182.944 107.064ZM186.256 109.368L185.431 109.934L185.439 109.945L186.256 109.368ZM185.536 120.792L184.773 120.145L184.765 120.155L185.536 120.792ZM163.216 122C161.05 122 159.528 121.903 158.6 121.729L158.232 123.695C159.352 123.905 161.03 124 163.216 124V122ZM158.6 121.729C158.111 121.637 157.816 121.55 157.665 121.484C157.587 121.45 157.607 121.446 157.66 121.496C157.72 121.553 157.88 121.737 157.88 122.04H155.88C155.88 122.471 156.104 122.779 156.292 122.956C156.473 123.126 156.685 123.238 156.863 123.316C157.224 123.474 157.697 123.595 158.232 123.695L158.6 121.729ZM157.789 122.458L159.709 118.282L157.891 117.446L155.971 121.622L157.789 122.458ZM158.629 118.849C159.442 118.991 161.339 119.12 164.228 119.247L164.316 117.249C161.381 117.12 159.63 116.993 158.971 116.879L158.629 118.849ZM164.239 119.247C167.199 119.344 171.244 119.392 176.368 119.392V117.392C171.252 117.392 167.233 117.344 164.305 117.249L164.239 119.247ZM176.368 119.392H177.28V117.392H176.368V119.392ZM177.28 119.392C178.717 119.392 179.994 119.152 180.848 118.44L179.568 116.904C179.27 117.152 178.595 117.392 177.28 117.392V119.392ZM180.872 118.419C181.754 117.636 182.072 116.445 182.072 115.128H180.072C180.072 116.179 179.814 116.684 179.544 116.925L180.872 118.419ZM182.072 115.128V114.168H180.072V115.128H182.072ZM182.072 114.168C182.072 112.946 181.817 111.819 181.059 111.061L179.645 112.475C179.847 112.677 180.072 113.15 180.072 114.168H182.072ZM181.083 111.086C180.665 110.638 180.075 110.395 179.476 110.254C178.861 110.11 178.121 110.048 177.28 110.048V112.048C178.039 112.048 178.611 112.106 179.02 112.202C179.445 112.301 179.591 112.418 179.621 112.45L181.083 111.086ZM177.28 110.048H166.144V112.048H177.28V110.048ZM166.144 110.048C162.993 110.048 160.921 109.463 159.715 108.493L158.461 110.051C160.199 111.449 162.831 112.048 166.144 112.048V110.048ZM159.725 108.501C158.568 107.545 157.88 105.921 157.88 103.368H155.88C155.88 106.255 156.664 108.567 158.451 110.043L159.725 108.501ZM157.88 103.368V102.6H155.88V103.368H157.88ZM157.88 102.6C157.88 101.316 158.113 100.157 158.566 99.1089L156.73 98.3151C156.159 99.6355 155.88 101.068 155.88 102.6H157.88ZM158.557 99.1295C159.001 98.1635 159.75 97.3701 160.866 96.7562L159.902 95.0038C158.458 95.7979 157.383 96.8925 156.739 98.2945L158.557 99.1295ZM160.882 96.7469C161.952 96.1319 163.516 95.776 165.664 95.776V93.776C163.332 93.776 161.376 94.1561 159.886 95.0131L160.882 96.7469ZM165.664 95.776H178.72V93.776H165.664V95.776ZM178.72 95.776C180.869 95.776 182.568 95.8872 183.836 96.0984L184.164 94.1256C182.744 93.8888 180.923 93.776 178.72 93.776V95.776ZM183.836 96.0984C184.492 96.2077 184.925 96.3123 185.176 96.4017C185.307 96.4486 185.327 96.4705 185.296 96.4476C185.286 96.4404 185.016 96.2436 185.016 95.832H187.016C187.016 95.2924 186.662 94.9696 186.484 94.8384C186.285 94.6915 186.053 94.5914 185.848 94.5183C185.427 94.3677 184.852 94.2403 184.164 94.1256L183.836 96.0984ZM185.043 95.6004L184.083 99.6324L186.029 100.096L186.989 96.0636L185.043 95.6004ZM185.171 98.8706C184.289 98.7689 182.357 98.6721 179.425 98.5765L179.359 100.575C182.315 100.672 184.159 100.767 184.941 100.857L185.171 98.8706ZM179.435 98.5769C176.471 98.448 172.502 98.384 167.536 98.384V100.384C172.49 100.384 176.425 100.448 179.349 100.575L179.435 98.5769ZM167.627 98.3881L167.099 98.3401L166.917 100.332L167.445 100.38L167.627 98.3881ZM167.008 98.336C165.474 98.336 164.08 98.6384 163.267 99.6039L164.797 100.892C165.008 100.642 165.598 100.336 167.008 100.336V98.336ZM163.285 99.5836C162.593 100.361 162.256 101.332 162.217 102.42L164.215 102.492C164.24 101.788 164.447 101.287 164.779 100.912L163.285 99.5836ZM162.216 102.456V103.272H164.216V102.456H162.216ZM162.216 103.272C162.216 104.508 162.557 105.609 163.393 106.399L164.767 104.945C164.451 104.647 164.216 104.148 164.216 103.272H162.216ZM163.436 106.437C164.316 107.178 165.601 107.44 167.056 107.44V105.44C165.759 105.44 165.06 105.19 164.724 104.907L163.436 106.437ZM167.056 107.44H177.712V105.44H167.056V107.44ZM177.712 107.44C179.698 107.44 181.343 107.642 182.666 108.025L183.222 106.103C181.665 105.654 179.822 105.44 177.712 105.44V107.44ZM182.666 108.025C183.908 108.384 184.808 109.025 185.431 109.934L187.081 108.802C186.168 107.471 184.86 106.576 183.222 106.103L182.666 108.025ZM185.439 109.945C186.035 110.789 186.408 112.163 186.408 114.216H188.408C188.408 111.981 188.013 110.123 187.073 108.791L185.439 109.945ZM186.408 114.216V114.984H188.408V114.216H186.408ZM186.408 114.984C186.408 117.207 185.833 118.895 184.773 120.145L186.299 121.439C187.735 119.745 188.408 117.561 188.408 114.984H186.408ZM184.765 120.155C183.828 121.289 182.069 122 179.152 122V124C182.315 124 184.812 123.239 186.307 121.429L184.765 120.155ZM179.152 122H163.216V124H179.152V122ZM200.937 122.04L200.49 122.934L200.49 122.934L200.937 122.04ZM198.249 119.16L199.178 118.789L199.178 118.789L198.249 119.16ZM199.545 96.936L200.268 97.6269L200.276 97.6189L199.545 96.936ZM225.753 95.112L225.536 96.0882C225.547 96.0905 225.557 96.0926 225.567 96.0946L225.753 95.112ZM227.529 95.832L228.501 96.0663C228.52 95.9895 228.529 95.9109 228.529 95.832H227.529ZM226.569 99.816L226.395 100.801C226.916 100.893 227.418 100.564 227.541 100.05L226.569 99.816ZM221.721 99.528L221.673 100.527L221.686 100.527L221.721 99.528ZM204.633 117.528L203.888 118.195C203.9 118.209 203.913 118.222 203.926 118.235L204.633 117.528ZM221.961 118.248L221.994 119.248L222.005 119.247L221.961 118.248ZM227.433 117.864L228.283 117.336C228.066 116.988 227.658 116.807 227.254 116.88L227.433 117.864ZM229.401 121.032H230.401C230.401 120.846 230.349 120.663 230.251 120.504L229.401 121.032ZM228.585 121.752L228.078 120.89C228.071 120.895 228.063 120.899 228.055 120.904L228.585 121.752ZM225.705 122.616L225.884 123.6L225.884 123.6L225.705 122.616ZM206.265 122C204.067 122 202.467 121.687 201.384 121.146L200.49 122.934C201.967 123.673 203.92 124 206.265 124V122ZM201.384 121.146C200.314 120.611 199.595 119.832 199.178 118.789L197.321 119.531C197.927 121.048 199 122.189 200.49 122.934L201.384 121.146ZM199.178 118.789C198.727 117.662 198.481 116.213 198.481 114.408H196.481C196.481 116.379 196.748 118.098 197.321 119.531L199.178 118.789ZM198.481 114.408V103.704H196.481V114.408H198.481ZM198.481 103.704C198.481 100.754 199.146 98.8017 200.268 97.6269L198.822 96.2451C197.193 97.9503 196.481 100.51 196.481 103.704H198.481ZM200.276 97.6189C201.381 96.4365 203.29 95.728 206.265 95.728V93.728C203.032 93.728 200.461 94.4915 198.815 96.2531L200.276 97.6189ZM206.265 95.728H220.713V93.728H206.265V95.728ZM220.713 95.728C222.9 95.728 224.493 95.8562 225.536 96.0882L225.97 94.1358C224.71 93.8558 222.943 93.728 220.713 93.728V95.728ZM225.567 96.0946C226.141 96.203 226.507 96.3046 226.71 96.3867C226.815 96.4296 226.817 96.444 226.776 96.4095C226.74 96.3795 226.529 96.1884 226.529 95.832H228.529C228.529 95.3476 228.244 95.0305 228.06 94.8765C227.871 94.718 227.651 94.6104 227.461 94.5333C227.072 94.3754 226.55 94.245 225.939 94.1294L225.567 96.0946ZM226.557 95.5977L225.597 99.5817L227.541 100.05L228.501 96.0663L226.557 95.5977ZM226.743 98.8312C226.113 98.72 224.41 98.6234 221.757 98.5286L221.686 100.527C224.409 100.625 225.938 100.72 226.395 100.801L226.743 98.8312ZM221.769 98.5292C219.089 98.4 215.198 98.336 210.105 98.336V100.336C215.189 100.336 219.042 100.4 221.673 100.527L221.769 98.5292ZM210.105 98.336H207.657V100.336H210.105V98.336ZM207.657 98.336C206.251 98.336 205.009 98.6455 204.113 99.4401C203.195 100.255 202.817 101.421 202.817 102.744H204.817C204.817 101.795 205.079 101.257 205.441 100.936C205.826 100.594 206.504 100.336 207.657 100.336V98.336ZM202.817 102.744V114.984H204.817V102.744H202.817ZM202.817 114.984C202.817 116.235 203.132 117.35 203.888 118.195L205.378 116.861C205.047 116.49 204.817 115.909 204.817 114.984H202.817ZM203.926 118.235C204.79 119.099 206.14 119.392 207.657 119.392V117.392C206.295 117.392 205.628 117.109 205.34 116.821L203.926 118.235ZM207.657 119.392H209.625V117.392H207.657V119.392ZM209.625 119.392C214.941 119.392 219.066 119.344 221.994 119.247L221.928 117.249C219.033 117.344 214.934 117.392 209.625 117.392V119.392ZM222.005 119.247C224.922 119.12 226.825 118.991 227.612 118.848L227.254 116.88C226.633 116.993 224.889 117.12 221.918 117.249L222.005 119.247ZM226.584 118.392L228.552 121.56L230.251 120.504L228.283 117.336L226.584 118.392ZM228.401 121.032C228.401 120.91 228.427 120.811 228.453 120.742C228.478 120.675 228.507 120.629 228.523 120.605C228.553 120.56 228.569 120.553 228.536 120.582C228.47 120.64 228.329 120.742 228.078 120.89L229.092 122.614C229.385 122.442 229.653 122.264 229.859 122.082C229.962 121.991 230.079 121.874 230.177 121.729C230.27 121.593 230.401 121.351 230.401 121.032H228.401ZM228.055 120.904C227.722 121.112 226.935 121.376 225.526 121.632L225.884 123.6C227.292 123.344 228.425 123.032 229.115 122.6L228.055 120.904ZM225.526 121.632C224.208 121.872 222.247 122 219.609 122V124C222.284 124 224.387 123.872 225.884 123.6L225.526 121.632ZM219.609 122H206.265V124H219.609V122ZM241.06 122.04L240.612 122.934L240.612 122.934L241.06 122.04ZM238.324 119.16L237.395 119.531C237.398 119.538 237.401 119.545 237.403 119.551L238.324 119.16ZM238.324 98.664L239.249 99.0436L239.252 99.0354L238.324 98.664ZM241.012 95.784L241.459 96.6784C241.465 96.6755 241.471 96.6725 241.476 96.6694L241.012 95.784ZM265.588 95.784L265.114 96.6645C265.122 96.6693 265.131 96.6739 265.14 96.6784L265.588 95.784ZM268.276 98.664L267.347 99.0354C267.351 99.0448 267.355 99.0542 267.359 99.0636L268.276 98.664ZM267.22 120.84L267.975 121.495L267.982 121.487L267.22 120.84ZM261.748 117.48L261.077 116.738C261.071 116.744 261.065 116.749 261.059 116.755L261.748 117.48ZM261.748 100.392L261.041 101.099C261.046 101.105 261.052 101.111 261.058 101.116L261.748 100.392ZM244.9 117.528L244.229 118.27C244.241 118.281 244.254 118.291 244.266 118.302L244.9 117.528ZM246.34 122C244.176 122 242.591 121.688 241.507 121.146L240.612 122.934C242.088 123.672 244.023 124 246.34 124V122ZM241.507 121.146C240.433 120.608 239.692 119.823 239.244 118.769L237.403 119.551C238.043 121.057 239.127 122.192 240.612 122.934L241.507 121.146ZM239.252 118.789C238.801 117.662 238.556 116.213 238.556 114.408H236.556C236.556 116.379 236.822 118.098 237.395 119.531L239.252 118.789ZM238.556 114.408V103.32H236.556V114.408H238.556ZM238.556 103.32C238.556 101.548 238.801 100.135 239.249 99.0436L237.398 98.2844C236.822 99.689 236.556 101.38 236.556 103.32H238.556ZM239.252 99.0354C239.669 97.9921 240.389 97.2135 241.459 96.6784L240.564 94.8896C239.074 95.6345 238.002 96.7759 237.395 98.2926L239.252 99.0354ZM241.476 96.6694C242.554 96.1037 244.146 95.776 246.34 95.776V93.776C243.989 93.776 242.029 94.1203 240.547 94.8986L241.476 96.6694ZM246.34 95.776H260.356V93.776H246.34V95.776ZM260.356 95.776C262.517 95.776 264.072 96.1037 265.114 96.6645L266.062 94.9035C264.607 94.1203 262.675 93.776 260.356 93.776V95.776ZM265.14 96.6784C266.21 97.2135 266.93 97.9921 267.347 99.0354L269.204 98.2926C268.597 96.7759 267.525 95.6345 266.035 94.8896L265.14 96.6784ZM267.359 99.0636C267.832 100.149 268.092 101.555 268.092 103.32H270.092C270.092 101.373 269.807 99.6754 269.192 98.2644L267.359 99.0636ZM268.092 103.32V114.408H270.092V103.32H268.092ZM268.092 114.408C268.092 117.093 267.495 118.969 266.457 120.193L267.982 121.487C269.44 119.767 270.092 117.355 270.092 114.408H268.092ZM266.464 120.185C265.508 121.288 263.599 122 260.356 122V124C263.769 124 266.435 123.272 267.975 121.495L266.464 120.185ZM260.356 122H246.34V124H260.356V122ZM247.732 119.392H259.012V117.392H247.732V119.392ZM259.012 119.392C260.362 119.392 261.554 119.043 262.436 118.205L261.059 116.755C260.661 117.133 260.029 117.392 259.012 117.392V119.392ZM262.419 118.222C263.335 117.392 263.756 116.271 263.756 114.984H261.756C261.756 115.809 261.504 116.352 261.077 116.738L262.419 118.222ZM263.756 114.984V102.744H261.756V114.984H263.756ZM263.756 102.744C263.756 101.542 263.307 100.497 262.437 99.6679L261.058 101.116C261.532 101.567 261.756 102.09 261.756 102.744H263.756ZM262.455 99.6849C261.557 98.7868 260.369 98.384 259.012 98.384V100.384C259.958 100.384 260.595 100.653 261.041 101.099L262.455 99.6849ZM259.012 98.384H247.732V100.384H259.012V98.384ZM247.732 98.384C246.399 98.384 245.22 98.7394 244.294 99.5392L245.601 101.053C246.083 100.637 246.76 100.384 247.732 100.384V98.384ZM244.294 99.5392C243.346 100.358 242.892 101.462 242.892 102.744H244.892C244.892 101.978 245.141 101.45 245.601 101.053L244.294 99.5392ZM242.892 102.744V114.984H244.892V102.744H242.892ZM242.892 114.984C242.892 116.293 243.305 117.434 244.229 118.27L245.571 116.786C245.15 116.406 244.892 115.851 244.892 114.984H242.892ZM244.266 118.302C245.197 119.063 246.387 119.392 247.732 119.392V117.392C246.708 117.392 246.01 117.145 245.533 116.754L244.266 118.302ZM307.006 122.904L306.682 123.85C306.692 123.854 306.702 123.857 306.712 123.86L307.006 122.904ZM302.83 119.928L302.123 120.635L302.123 120.635L302.83 119.928ZM299.374 116.472L298.659 117.171L298.667 117.179L299.374 116.472ZM294.718 113.304L294.343 114.231L294.349 114.234L294.718 113.304ZM286.942 112.296V111.296C286.389 111.296 285.942 111.744 285.942 112.296H286.942ZM286.942 123V124C287.494 124 287.942 123.552 287.942 123H286.942ZM280.606 123H279.606C279.606 123.552 280.053 124 280.606 124V123ZM280.606 98.616H281.606C281.606 98.575 281.603 98.5341 281.598 98.4935L280.606 98.616ZM280.126 94.728V93.728C279.839 93.728 279.566 93.8509 279.376 94.0656C279.187 94.2803 279.098 94.5661 279.133 94.8505L280.126 94.728ZM306.19 95.544L305.763 96.4483L305.772 96.4527L306.19 95.544ZM308.782 97.704L307.927 98.223C307.934 98.235 307.942 98.247 307.95 98.2587L308.782 97.704ZM309.838 106.584L310.814 106.801L310.814 106.801L309.838 106.584ZM308.734 109.128L309.571 109.675L309.571 109.675L308.734 109.128ZM306.382 111.24L305.891 110.368L305.879 110.375L306.382 111.24ZM302.446 112.248L302.387 111.25C301.94 111.276 301.566 111.595 301.469 112.032C301.373 112.469 301.578 112.916 301.972 113.128L302.446 112.248ZM304.03 113.304L303.43 114.104C303.438 114.111 303.447 114.117 303.456 114.123L304.03 113.304ZM305.998 114.792L305.368 115.569C305.374 115.574 305.38 115.579 305.386 115.583L305.998 114.792ZM307.918 116.28L307.304 117.069L307.304 117.069L307.918 116.28ZM309.262 117.24L308.747 118.098L308.758 118.104L309.262 117.24ZM315.55 119.112L316.52 119.352C316.594 119.053 316.526 118.737 316.337 118.495C316.147 118.253 315.857 118.112 315.55 118.112V119.112ZM314.59 123L314.906 123.949C315.231 123.84 315.478 123.573 315.56 123.24L314.59 123ZM313.15 123.288L313.008 122.298C312.993 122.3 312.978 122.303 312.963 122.306L313.15 123.288ZM297.406 107.88L297.439 108.879C297.45 108.879 297.461 108.879 297.472 108.878L297.406 107.88ZM299.998 107.688L300.081 108.685C300.091 108.684 300.101 108.683 300.111 108.682L299.998 107.688ZM302.926 106.536L302.182 105.867L302.18 105.869L302.926 106.536ZM302.974 100.392L303.765 99.7806L303.765 99.7806L302.974 100.392ZM286.942 99.336V98.336C286.389 98.336 285.942 98.7837 285.942 99.336H286.942ZM286.942 107.688H285.942C285.942 108.214 286.349 108.65 286.874 108.686L286.942 107.688ZM290.83 107.88L290.857 106.88L290.857 106.88L290.83 107.88ZM310.798 122.48C309.619 122.48 308.454 122.304 307.3 121.948L306.712 123.86C308.053 124.272 309.416 124.48 310.798 124.48V122.48ZM307.329 121.958C306.327 121.615 305.064 120.749 303.537 119.221L302.123 120.635C303.731 122.243 305.252 123.361 306.682 123.85L307.329 121.958ZM303.537 119.221L300.081 115.765L298.667 117.179L302.123 120.635L303.537 119.221ZM300.089 115.773C298.593 114.243 296.925 113.103 295.086 112.374L294.349 114.234C295.902 114.849 297.338 115.821 298.659 117.171L300.089 115.773ZM295.092 112.377C293.271 111.641 291.037 111.296 288.43 111.296V113.296C290.878 113.296 292.836 113.623 294.343 114.231L295.092 112.377ZM288.43 111.296H286.942V113.296H288.43V111.296ZM285.942 112.296V123H287.942V112.296H285.942ZM286.942 122H280.606V124H286.942V122ZM281.606 123V98.616H279.606V123H281.606ZM281.598 98.4935L281.118 94.6055L279.133 94.8505L279.613 98.7385L281.598 98.4935ZM280.126 95.728H301.39V93.728H280.126V95.728ZM301.39 95.728C303.37 95.728 304.801 95.9942 305.763 96.4482L306.617 94.6398C305.274 94.0058 303.506 93.728 301.39 93.728V95.728ZM305.772 96.4527C306.819 96.9337 307.509 97.535 307.927 98.223L309.636 97.185C308.966 96.081 307.928 95.2423 306.607 94.6353L305.772 96.4527ZM307.95 98.2587C308.449 99.0076 308.762 99.8014 308.898 100.647L310.873 100.329C310.689 99.1906 310.266 98.1284 309.614 97.1493L307.95 98.2587ZM308.898 100.647C309.051 101.593 309.126 102.483 309.126 103.32H311.126C311.126 102.365 311.04 101.367 310.873 100.329L308.898 100.647ZM309.126 103.32V104.232H311.126V103.32H309.126ZM309.126 104.232C309.126 104.847 309.041 105.557 308.861 106.367L310.814 106.801C311.018 105.883 311.126 105.025 311.126 104.232H309.126ZM308.861 106.367C308.699 107.1 308.383 107.837 307.897 108.581L309.571 109.675C310.172 108.755 310.593 107.796 310.814 106.801L308.861 106.367ZM307.897 108.581C307.455 109.256 306.801 109.857 305.891 110.368L306.872 112.112C308.01 111.471 308.924 110.664 309.571 109.675L307.897 108.581ZM305.879 110.375C305.068 110.846 303.925 111.159 302.387 111.25L302.504 113.246C304.231 113.145 305.711 112.786 306.884 112.105L305.879 110.375ZM301.972 113.128C302.324 113.318 302.806 113.636 303.43 114.104L304.63 112.504C303.973 112.012 303.399 111.626 302.92 111.368L301.972 113.128ZM303.456 114.123C304.075 114.557 304.713 115.038 305.368 115.569L306.627 114.015C305.939 113.458 305.264 112.947 304.603 112.485L303.456 114.123ZM305.386 115.583C306.09 116.127 306.729 116.622 307.304 117.069L308.532 115.491C307.955 115.042 307.314 114.545 306.609 114.001L305.386 115.583ZM307.304 117.069C307.888 117.523 308.374 117.874 308.747 118.097L309.776 116.383C309.509 116.222 309.1 115.933 308.532 115.491L307.304 117.069ZM308.758 118.104C309.954 118.801 311.057 119.307 312.059 119.594L312.608 117.67C311.819 117.445 310.874 117.023 309.765 116.376L308.758 118.104ZM312.059 119.594C312.988 119.859 313.805 120.025 314.486 120.062L314.597 118.066C314.126 118.039 313.471 117.917 312.608 117.67L312.059 119.594ZM314.486 120.062C315.045 120.093 315.418 120.112 315.55 120.112V118.112C315.55 118.112 315.544 118.112 315.528 118.112C315.513 118.111 315.494 118.111 315.47 118.11C315.421 118.108 315.355 118.105 315.273 118.101C315.109 118.093 314.884 118.081 314.597 118.066L314.486 120.062ZM314.579 118.872L313.619 122.76L315.56 123.24L316.52 119.352L314.579 118.872ZM314.273 122.051C314.078 122.117 313.675 122.203 313.008 122.298L313.291 124.278C313.968 124.181 314.526 124.075 314.906 123.949L314.273 122.051ZM312.963 122.306C312.368 122.419 311.649 122.48 310.798 122.48V124.48C311.738 124.48 312.588 124.413 313.337 124.27L312.963 122.306ZM294.142 108.928C295.366 108.928 296.465 108.912 297.439 108.879L297.372 106.881C296.426 106.912 295.349 106.928 294.142 106.928V108.928ZM297.472 108.878C298.436 108.814 299.306 108.749 300.081 108.685L299.915 106.691C299.153 106.755 298.295 106.818 297.339 106.882L297.472 108.878ZM300.111 108.682C301.598 108.513 302.879 108.087 303.671 107.203L302.18 105.869C301.884 106.201 301.213 106.543 299.885 106.694L300.111 108.682ZM303.669 107.205C304.435 106.354 304.79 105.287 304.79 104.088H302.79C302.79 104.873 302.568 105.438 302.182 105.867L303.669 107.205ZM304.79 104.088V102.984H302.79V104.088H304.79ZM304.79 102.984C304.79 101.774 304.464 100.685 303.765 99.7806L302.182 101.003C302.571 101.507 302.79 102.146 302.79 102.984H304.79ZM303.765 99.7806C302.943 98.7166 301.581 98.336 300.046 98.336V100.336C301.326 100.336 301.916 100.659 302.182 101.003L303.765 99.7806ZM300.046 98.336H286.942V100.336H300.046V98.336ZM285.942 99.336V107.688H287.942V99.336H285.942ZM286.874 108.686C288.293 108.782 289.603 108.847 290.803 108.88L290.857 106.88C289.689 106.849 288.406 106.786 287.01 106.69L286.874 108.686ZM290.803 108.88C291.994 108.912 293.107 108.928 294.142 108.928V106.928C293.128 106.928 292.033 106.912 290.857 106.88L290.803 108.88ZM323.716 123H322.716C322.716 123.552 323.163 124 323.716 124V123ZM323.716 94.776V93.776C323.163 93.776 322.716 94.2237 322.716 94.776H323.716ZM353.572 94.776H354.572C354.572 94.2237 354.124 93.776 353.572 93.776V94.776ZM353.572 99.384V100.384C354.124 100.384 354.572 99.9363 354.572 99.384H353.572ZM330.052 99.384V98.384C329.499 98.384 329.052 98.8317 329.052 99.384H330.052ZM330.052 106.008H329.052C329.052 106.56 329.499 107.008 330.052 107.008V106.008ZM348.004 106.008H349.004C349.004 105.456 348.556 105.008 348.004 105.008V106.008ZM348.004 110.76V111.76C348.556 111.76 349.004 111.312 349.004 110.76H348.004ZM330.052 110.76V109.76C329.499 109.76 329.052 110.208 329.052 110.76H330.052ZM330.052 118.392H329.052C329.052 118.944 329.499 119.392 330.052 119.392V118.392ZM353.764 118.392L354.668 117.966C354.504 117.616 354.151 117.392 353.764 117.392V118.392ZM355.684 122.472H356.684C356.684 122.325 356.651 122.179 356.588 122.046L355.684 122.472ZM354.388 122.856L354.498 123.85C354.51 123.849 354.522 123.847 354.534 123.845L354.388 122.856ZM324.716 123V94.776H322.716V123H324.716ZM323.716 95.776H353.572V93.776H323.716V95.776ZM352.572 94.776V99.384H354.572V94.776H352.572ZM353.572 98.384H330.052V100.384H353.572V98.384ZM329.052 99.384V106.008H331.052V99.384H329.052ZM330.052 107.008H348.004V105.008H330.052V107.008ZM347.004 106.008V110.76H349.004V106.008H347.004ZM348.004 109.76H330.052V111.76H348.004V109.76ZM329.052 110.76V118.392H331.052V110.76H329.052ZM330.052 119.392H353.764V117.392H330.052V119.392ZM352.859 118.818L354.779 122.898L356.588 122.046L354.668 117.966L352.859 118.818ZM354.684 122.472C354.684 122.187 354.808 121.983 354.899 121.875C354.984 121.774 355.067 121.723 355.093 121.708C355.145 121.677 355.156 121.681 355.076 121.705C354.929 121.749 354.661 121.805 354.241 121.867L354.534 123.845C354.978 123.779 355.358 123.707 355.644 123.623C355.779 123.583 355.953 123.523 356.112 123.428C356.191 123.381 356.684 123.091 356.684 122.472H354.684ZM354.277 121.862C353.474 121.951 352.036 122 349.924 122V124C352.035 124 353.573 123.953 354.498 123.85L354.277 121.862ZM349.924 122H323.716V124H349.924V122Z" fill="black"/>
<defs>
<clipPath id="clip0_513_86">
<rect width="77" height="75" fill="white" transform="translate(417 492)"/>
</clipPath>
<clipPath id="clip1_513_86">
<rect width="80" height="75" fill="white" transform="translate(212 492)"/>
</clipPath>
<clipPath id="clip2_513_86">
<rect width="139" height="75" fill="white" transform="translate(183 318)"/>
</clipPath>
</defs>
</svg>
