<svg width="180" height="55" viewBox="0 0 180 55" fill="none" xmlns="http://www.w3.org/2000/svg">
<rect x="1" y="1" width="178" height="53" rx="2" fill="#F7A12F" stroke="black" stroke-width="2" stroke-linejoin="round"/>
<path d="M25.744 35L25.72 23.168H19.48V20.864H35.176V23.168H28.912V35H25.744ZM52.9201 35.24C52.2801 35.24 51.6481 35.144 51.0241 34.952C50.4161 34.744 49.7201 34.248 48.9361 33.464L47.2081 31.736C46.5041 31.016 45.7281 30.488 44.8801 30.152C44.0481 29.816 43.0001 29.648 41.7361 29.648H40.9921V35H37.8241V22.808L37.5841 20.864H48.2161C49.2401 20.864 50.0401 21 50.6161 21.272C51.2081 21.544 51.6401 21.904 51.9121 22.352C52.2001 22.784 52.3841 23.248 52.4641 23.744C52.5441 24.24 52.5841 24.712 52.5841 25.16V25.616C52.5841 25.968 52.5361 26.36 52.4401 26.792C52.3441 27.224 52.1601 27.648 51.8881 28.064C51.6161 28.48 51.2241 28.832 50.7121 29.12C50.2161 29.408 49.5601 29.576 48.7441 29.624C48.9521 29.736 49.2161 29.912 49.5361 30.152C49.8561 30.376 50.1841 30.624 50.5201 30.896C50.8721 31.168 51.1921 31.416 51.4801 31.64C51.7681 31.864 51.9921 32.024 52.1521 32.12C52.7281 32.456 53.2401 32.688 53.6881 32.816C54.1361 32.944 54.5041 33.016 54.7921 33.032C55.0801 33.048 55.2481 33.056 55.2961 33.056L54.8161 35C54.6721 35.048 54.4321 35.096 54.0961 35.144C53.7601 35.208 53.3681 35.24 52.9201 35.24ZM44.5921 27.464C45.2001 27.464 45.7441 27.456 46.2241 27.44C46.7041 27.408 47.1361 27.376 47.5201 27.344C48.2241 27.264 48.7121 27.072 48.9841 26.768C49.2721 26.448 49.4161 26.04 49.4161 25.544V24.992C49.4161 24.48 49.2801 24.048 49.0081 23.696C48.7361 23.344 48.2481 23.168 47.5441 23.168H40.9921V27.344C41.6961 27.392 42.3441 27.424 42.9361 27.44C43.5281 27.456 44.0801 27.464 44.5921 27.464ZM61.3334 35V29.144L54.3494 20.888H58.1894L61.7414 25.376L62.8454 26.864H63.0854L64.1894 25.376L67.7414 20.888H71.5814L70.6454 22.328L64.5014 29.24V35H61.3334ZM77.1016 35L84.1336 20.888H88.8616L95.8696 35H92.1736L90.7576 31.952H82.1656L80.6056 35H77.1016ZM83.0296 29.6H89.8696L86.5816 23.048H86.3416L83.0296 29.6ZM101.478 35C100.342 35 99.4543 34.84 98.8143 34.52C98.1743 34.2 97.7263 33.72 97.4703 33.08C97.2143 32.44 97.0863 31.648 97.0863 30.704V25.352C97.0863 23.816 97.4303 22.688 98.1183 21.968C98.8063 21.232 99.9263 20.864 101.478 20.864H108.702C109.806 20.864 110.646 20.928 111.222 21.056C111.814 21.168 112.11 21.288 112.11 21.416L111.63 23.408C111.358 23.36 110.55 23.312 109.206 23.264C107.878 23.2 105.942 23.168 103.398 23.168H102.174C100.894 23.168 100.254 23.736 100.254 24.872V30.992C100.254 31.536 100.39 31.96 100.662 32.264C100.95 32.552 101.454 32.696 102.174 32.696H103.158C104.694 32.696 105.99 32.688 107.046 32.672C108.102 32.64 108.974 32.616 109.662 32.6V29.336L108.222 29.36L105.078 29.6V27.248H112.806V33.992L113.046 34.496C113.046 34.624 112.71 34.744 112.038 34.856C111.366 34.952 110.23 35 108.63 35H101.478ZM114.484 35L121.516 20.888H126.244L133.252 35H129.556L128.14 31.952H119.548L117.988 35H114.484ZM120.412 29.6H127.252L123.964 23.048H123.724L120.412 29.6ZM135.178 35V20.888H138.346V35H135.178ZM142.426 35V22.808L142.186 20.888H145.642L153.802 29.432L154.738 30.728H155.002V20.888H158.17V35H155.122L146.77 26.312L145.834 25.184H145.594V35H142.426Z" fill="white"/>
<path d="M25.744 35L25.244 35.001C25.2446 35.2768 25.4683 35.5 25.744 35.5V35ZM25.72 23.168L26.22 23.167C26.2194 22.8912 25.9957 22.668 25.72 22.668V23.168ZM19.48 23.168H18.98C18.98 23.4441 19.2039 23.668 19.48 23.668V23.168ZM19.48 20.864V20.364C19.2039 20.364 18.98 20.5879 18.98 20.864H19.48ZM35.176 20.864H35.676C35.676 20.5879 35.4521 20.364 35.176 20.364V20.864ZM35.176 23.168V23.668C35.4521 23.668 35.676 23.4441 35.676 23.168H35.176ZM28.912 23.168V22.668C28.6359 22.668 28.412 22.8919 28.412 23.168H28.912ZM28.912 35V35.5C29.1881 35.5 29.412 35.2761 29.412 35H28.912ZM26.244 34.999L26.22 23.167L25.22 23.169L25.244 35.001L26.244 34.999ZM25.72 22.668H19.48V23.668H25.72V22.668ZM19.98 23.168V20.864H18.98V23.168H19.98ZM19.48 21.364H35.176V20.364H19.48V21.364ZM34.676 20.864V23.168H35.676V20.864H34.676ZM35.176 22.668H28.912V23.668H35.176V22.668ZM28.412 23.168V35H29.412V23.168H28.412ZM28.912 34.5H25.744V35.5H28.912V34.5ZM51.0241 34.952L50.8622 35.4251C50.8671 35.4268 50.8721 35.4284 50.877 35.4299L51.0241 34.952ZM48.9361 33.464L48.5825 33.8176L48.5825 33.8176L48.9361 33.464ZM47.2081 31.736L46.8505 32.0856L46.8545 32.0896L47.2081 31.736ZM44.8801 30.152L44.6928 30.6156L44.6959 30.6168L44.8801 30.152ZM40.9921 29.648V29.148C40.7159 29.148 40.4921 29.3719 40.4921 29.648H40.9921ZM40.9921 35V35.5C41.2682 35.5 41.4921 35.2761 41.4921 35H40.9921ZM37.8241 35H37.3241C37.3241 35.2761 37.5479 35.5 37.8241 35.5V35ZM37.8241 22.808H38.3241C38.3241 22.7875 38.3228 22.7671 38.3203 22.7467L37.8241 22.808ZM37.5841 20.864V20.364C37.4408 20.364 37.3044 20.4255 37.2095 20.5328C37.1146 20.6402 37.0703 20.7831 37.0878 20.9253L37.5841 20.864ZM50.6161 21.272L50.4025 21.7241L50.4073 21.7263L50.6161 21.272ZM51.9121 22.352L51.4847 22.6115C51.4883 22.6175 51.4921 22.6235 51.496 22.6293L51.9121 22.352ZM52.4401 26.792L52.9282 26.9005L52.9282 26.9005L52.4401 26.792ZM51.8881 28.064L52.3065 28.3376L52.3065 28.3376L51.8881 28.064ZM50.7121 29.12L50.4669 28.6842L50.461 28.6876L50.7121 29.12ZM48.7441 29.624L48.7147 29.1249C48.4915 29.138 48.3041 29.2977 48.2559 29.5161C48.2076 29.7344 48.3101 29.9582 48.507 30.0642L48.7441 29.624ZM49.5361 30.152L49.2361 30.552C49.2404 30.5553 49.2449 30.5585 49.2493 30.5616L49.5361 30.152ZM50.5201 30.896L50.2054 31.2847L50.2143 31.2916L50.5201 30.896ZM51.4801 31.64L51.1731 32.0347L51.1731 32.0347L51.4801 31.64ZM52.1521 32.12L51.8948 32.5488L51.9001 32.5519L52.1521 32.12ZM55.2961 33.056L55.7815 33.1759C55.8183 33.0266 55.7845 32.8687 55.6897 32.7477C55.5949 32.6267 55.4498 32.556 55.2961 32.556V33.056ZM54.8161 35L54.9742 35.4743C55.1368 35.4201 55.2604 35.2863 55.3015 35.1199L54.8161 35ZM54.0961 35.144L54.0254 34.649C54.0177 34.6501 54.0101 34.6514 54.0025 34.6528L54.0961 35.144ZM46.2241 27.44L46.2407 27.9397C46.2463 27.9395 46.2518 27.9393 46.2573 27.9389L46.2241 27.44ZM47.5201 27.344L47.5616 27.8423C47.5666 27.8419 47.5715 27.8414 47.5765 27.8408L47.5201 27.344ZM48.9841 26.768L48.6124 26.4335L48.6114 26.4346L48.9841 26.768ZM49.0081 23.696L49.4037 23.3903L49.4037 23.3903L49.0081 23.696ZM40.9921 23.168V22.668C40.7159 22.668 40.4921 22.8919 40.4921 23.168H40.9921ZM40.9921 27.344H40.4921C40.4921 27.6069 40.6957 27.825 40.9581 27.8428L40.9921 27.344ZM42.9361 27.44L42.9496 26.9402L42.9496 26.9402L42.9361 27.44ZM52.9201 34.74C52.3309 34.74 51.7484 34.6518 51.1711 34.4741L50.877 35.4299C51.5477 35.6362 52.2292 35.74 52.9201 35.74V34.74ZM51.1859 34.4789C50.6847 34.3074 50.0534 33.8743 49.2896 33.1104L48.5825 33.8176C49.3867 34.6217 50.1474 35.1806 50.8622 35.4251L51.1859 34.4789ZM49.2896 33.1104L47.5616 31.3824L46.8545 32.0896L48.5825 33.8176L49.2896 33.1104ZM47.5656 31.3864C46.8177 30.6215 45.984 30.0516 45.0642 29.6872L44.6959 30.6168C45.4722 30.9244 46.1905 31.4105 46.8506 32.0856L47.5656 31.3864ZM45.0673 29.6884C44.1568 29.3207 43.04 29.148 41.7361 29.148V30.148C42.9602 30.148 43.9393 30.3113 44.6928 30.6156L45.0673 29.6884ZM41.7361 29.148H40.9921V30.148H41.7361V29.148ZM40.4921 29.648V35H41.4921V29.648H40.4921ZM40.9921 34.5H37.8241V35.5H40.9921V34.5ZM38.3241 35V22.808H37.3241V35H38.3241ZM38.3203 22.7467L38.0803 20.8027L37.0878 20.9253L37.3278 22.8693L38.3203 22.7467ZM37.5841 21.364H48.2161V20.364H37.5841V21.364ZM48.2161 21.364C49.206 21.364 49.9218 21.4971 50.4026 21.7241L50.8296 20.8199C50.1583 20.5029 49.2741 20.364 48.2161 20.364V21.364ZM50.4073 21.7263C50.9308 21.9668 51.2758 22.2675 51.4847 22.6115L52.3395 22.0925C52.0043 21.5405 51.4854 21.1212 50.8248 20.8177L50.4073 21.7263ZM51.496 22.6293C51.7457 23.0038 51.9022 23.4007 51.9704 23.8236L52.9577 23.6644C52.8659 23.0953 52.6545 22.5642 52.3281 22.0746L51.496 22.6293ZM51.9704 23.8236C52.0467 24.2964 52.0841 24.7416 52.0841 25.16H53.0841C53.0841 24.6824 53.0414 24.1836 52.9577 23.6644L51.9704 23.8236ZM52.0841 25.16V25.616H53.0841V25.16H52.0841ZM52.0841 25.616C52.0841 25.9236 52.042 26.2785 51.952 26.6835L52.9282 26.9005C53.0301 26.4415 53.0841 26.0124 53.0841 25.616H52.0841ZM51.952 26.6835C51.8705 27.05 51.7126 27.4186 51.4696 27.7904L52.3065 28.3376C52.6075 27.8774 52.8176 27.398 52.9282 26.9005L51.952 26.6835ZM51.4696 27.7904C51.2488 28.128 50.9217 28.4284 50.4669 28.6842L50.9572 29.5558C51.5265 29.2356 51.9833 28.832 52.3065 28.3376L51.4696 27.7904ZM50.461 28.6876C50.0552 28.9232 49.4836 29.0796 48.7147 29.1249L48.7734 30.1231C49.6365 30.0724 50.3769 29.8928 50.9631 29.5524L50.461 28.6876ZM48.507 30.0642C48.6832 30.1591 48.9244 30.3182 49.2361 30.552L49.8361 29.752C49.5078 29.5058 49.221 29.3129 48.9811 29.1838L48.507 30.0642ZM49.2493 30.5616C49.5589 30.7783 49.8776 31.0192 50.2055 31.2846L50.8347 30.5074C50.4906 30.2288 50.1533 29.9737 49.8228 29.7424L49.2493 30.5616ZM50.2143 31.2916C50.566 31.5634 50.8856 31.8111 51.1731 32.0347L51.787 31.2453C51.4985 31.0209 51.1781 30.7726 50.8258 30.5004L50.2143 31.2916ZM51.1731 32.0347C51.465 32.2617 51.7082 32.4368 51.8948 32.5487L52.4093 31.6913C52.2759 31.6112 52.0711 31.4663 51.787 31.2453L51.1731 32.0347ZM51.9001 32.5519C52.4981 32.9007 53.0495 33.1536 53.5507 33.2968L53.8254 32.3352C53.4306 32.2224 52.9581 32.0113 52.404 31.6881L51.9001 32.5519ZM53.5507 33.2968C54.0155 33.4296 54.4237 33.5123 54.7643 33.5312L54.8198 32.5328C54.5845 32.5197 54.2566 32.4584 53.8254 32.3352L53.5507 33.2968ZM54.7643 33.5312C55.0436 33.5467 55.2303 33.556 55.2961 33.556V32.556C55.2961 32.556 55.293 32.556 55.2853 32.5558C55.278 32.5556 55.2683 32.5553 55.2561 32.5548C55.2315 32.5539 55.1989 32.5525 55.1578 32.5506C55.0758 32.5467 54.9633 32.5407 54.8198 32.5328L54.7643 33.5312ZM54.8106 32.9361L54.3306 34.8801L55.3015 35.1199L55.7815 33.1759L54.8106 32.9361ZM54.6579 34.5257C54.5601 34.5583 54.3588 34.6014 54.0254 34.649L54.1668 35.639C54.5053 35.5906 54.784 35.5377 54.9742 35.4743L54.6579 34.5257ZM54.0025 34.6528C53.7051 34.7095 53.3457 34.74 52.9201 34.74V35.74C53.3904 35.74 53.815 35.7065 54.1896 35.6352L54.0025 34.6528ZM44.5921 27.964C45.2042 27.964 45.7539 27.9559 46.2407 27.9397L46.2074 26.9403C45.7342 26.9561 45.1959 26.964 44.5921 26.964V27.964ZM46.2573 27.9389C46.7394 27.9068 47.1743 27.8746 47.5616 27.8423L47.4785 26.8457C47.0979 26.8774 46.6687 26.9092 46.1908 26.9411L46.2573 27.9389ZM47.5765 27.8408C48.3204 27.7563 48.9609 27.5437 49.3567 27.1014L48.6114 26.4346C48.4632 26.6003 48.1278 26.7717 47.4636 26.8472L47.5765 27.8408ZM49.3557 27.1025C49.7388 26.6768 49.9161 26.1435 49.9161 25.544H48.9161C48.9161 25.9365 48.8053 26.2192 48.6124 26.4335L49.3557 27.1025ZM49.9161 25.544V24.992H48.9161V25.544H49.9161ZM49.9161 24.992C49.9161 24.3868 49.7533 23.8427 49.4037 23.3903L48.6124 24.0017C48.8068 24.2533 48.9161 24.5732 48.9161 24.992H49.9161ZM49.4037 23.3903C48.9926 22.8583 48.312 22.668 47.5441 22.668V23.668C48.1842 23.668 48.4795 23.8297 48.6124 24.0017L49.4037 23.3903ZM47.5441 22.668H40.9921V23.668H47.5441V22.668ZM40.4921 23.168V27.344H41.4921V23.168H40.4921ZM40.9581 27.8428C41.6676 27.8912 42.3226 27.9236 42.9226 27.9398L42.9496 26.9402C42.3656 26.9244 41.7245 26.8928 41.0261 26.8452L40.9581 27.8428ZM42.9226 27.9398C43.5184 27.9559 44.0749 27.964 44.5921 27.964V26.964C44.0852 26.964 43.5377 26.9561 42.9496 26.9402L42.9226 27.9398ZM61.3334 35H60.8334C60.8334 35.2761 61.0572 35.5 61.3334 35.5V35ZM61.3334 29.144H61.8334C61.8334 29.0258 61.7915 28.9113 61.7151 28.8211L61.3334 29.144ZM54.3494 20.888V20.388C54.1547 20.388 53.9777 20.501 53.8958 20.6776C53.8139 20.8542 53.8419 21.0623 53.9676 21.2109L54.3494 20.888ZM58.1894 20.888L58.5814 20.5777C58.4866 20.4579 58.3422 20.388 58.1894 20.388V20.888ZM61.7414 25.376L62.1429 25.0781C62.1398 25.0739 62.1367 25.0698 62.1334 25.0657L61.7414 25.376ZM62.8454 26.864L62.4438 27.1619C62.5381 27.289 62.6871 27.364 62.8454 27.364V26.864ZM63.0854 26.864V27.364C63.2437 27.364 63.3926 27.289 63.4869 27.1619L63.0854 26.864ZM64.1894 25.376L63.7973 25.0657C63.7941 25.0698 63.7909 25.0739 63.7878 25.0781L64.1894 25.376ZM67.7414 20.888V20.388C67.5886 20.388 67.4441 20.4579 67.3493 20.5777L67.7414 20.888ZM71.5814 20.888L72.0006 21.1605C72.1005 21.0068 72.1083 20.8107 72.0208 20.6495C71.9334 20.4884 71.7647 20.388 71.5814 20.388V20.888ZM70.6454 22.328L71.0191 22.6602C71.0357 22.6415 71.0509 22.6215 71.0646 22.6005L70.6454 22.328ZM64.5014 29.24L64.1277 28.9078C64.0463 28.9993 64.0014 29.1175 64.0014 29.24H64.5014ZM64.5014 35V35.5C64.7775 35.5 65.0014 35.2761 65.0014 35H64.5014ZM61.8334 35V29.144H60.8334V35H61.8334ZM61.7151 28.8211L54.7311 20.5651L53.9676 21.2109L60.9516 29.4669L61.7151 28.8211ZM54.3494 21.388H58.1894V20.388H54.3494V21.388ZM57.7973 21.1983L61.3493 25.6863L62.1334 25.0657L58.5814 20.5777L57.7973 21.1983ZM61.3398 25.6739L62.4438 27.1619L63.2469 26.5661L62.1429 25.0781L61.3398 25.6739ZM62.8454 27.364H63.0854V26.364H62.8454V27.364ZM63.4869 27.1619L64.5909 25.6739L63.7878 25.0781L62.6838 26.5661L63.4869 27.1619ZM64.5814 25.6863L68.1334 21.1983L67.3493 20.5777L63.7973 25.0657L64.5814 25.6863ZM67.7414 21.388H71.5814V20.388H67.7414V21.388ZM71.1622 20.6155L70.2262 22.0555L71.0646 22.6005L72.0006 21.1605L71.1622 20.6155ZM70.2717 21.9958L64.1277 28.9078L64.8751 29.5722L71.0191 22.6602L70.2717 21.9958ZM64.0014 29.24V35H65.0014V29.24H64.0014ZM64.5014 34.5H61.3334V35.5H64.5014V34.5ZM77.1016 35L76.654 34.777C76.5768 34.932 76.5853 35.1159 76.6764 35.2632C76.7676 35.4104 76.9284 35.5 77.1016 35.5V35ZM84.1336 20.888V20.388C83.9439 20.388 83.7706 20.4953 83.686 20.665L84.1336 20.888ZM88.8616 20.888L89.3094 20.6656C89.2249 20.4956 89.0514 20.388 88.8616 20.388V20.888ZM95.8696 35V35.5C96.0426 35.5 96.2034 35.4105 96.2945 35.2634C96.3857 35.1164 96.3944 34.9326 96.3174 34.7776L95.8696 35ZM92.1736 35L91.7201 35.2107C91.8021 35.3871 91.979 35.5 92.1736 35.5V35ZM90.7576 31.952L91.211 31.7413C91.129 31.5649 90.9521 31.452 90.7576 31.452V31.952ZM82.1656 31.952V31.452C81.9779 31.452 81.806 31.5571 81.7205 31.7242L82.1656 31.952ZM80.6056 35V35.5C80.7933 35.5 80.9651 35.3949 81.0507 35.2278L80.6056 35ZM83.0296 29.6L82.5833 29.3744C82.505 29.5294 82.5127 29.714 82.6037 29.8619C82.6946 30.0099 82.8559 30.1 83.0296 30.1V29.6ZM89.8696 29.6V30.1C90.043 30.1 90.204 30.0101 90.2951 29.8626C90.3861 29.715 90.3942 29.5307 90.3164 29.3757L89.8696 29.6ZM86.5816 23.048L87.0284 22.8237C86.9436 22.6547 86.7707 22.548 86.5816 22.548V23.048ZM86.3416 23.048V22.548C86.153 22.548 85.9804 22.6541 85.8953 22.8224L86.3416 23.048ZM77.5491 35.223L84.5811 21.111L83.686 20.665L76.654 34.777L77.5491 35.223ZM84.1336 21.388H88.8616V20.388H84.1336V21.388ZM88.4137 21.1104L95.4217 35.2224L96.3174 34.7776L89.3094 20.6656L88.4137 21.1104ZM95.8696 34.5H92.1736V35.5H95.8696V34.5ZM92.627 34.7893L91.211 31.7413L90.3041 32.1627L91.7201 35.2107L92.627 34.7893ZM90.7576 31.452H82.1656V32.452H90.7576V31.452ZM81.7205 31.7242L80.1605 34.7722L81.0507 35.2278L82.6107 32.1798L81.7205 31.7242ZM80.6056 34.5H77.1016V35.5H80.6056V34.5ZM83.0296 30.1H89.8696V29.1H83.0296V30.1ZM90.3164 29.3757L87.0284 22.8237L86.1347 23.2723L89.4227 29.8243L90.3164 29.3757ZM86.5816 22.548H86.3416V23.548H86.5816V22.548ZM85.8953 22.8224L82.5833 29.3744L83.4758 29.8256L86.7878 23.2736L85.8953 22.8224ZM98.8143 34.52L98.5906 34.9672L98.5906 34.9672L98.8143 34.52ZM97.4703 33.08L97.9345 32.8943L97.9345 32.8943L97.4703 33.08ZM98.1183 21.968L98.4798 22.3134L98.4835 22.3094L98.1183 21.968ZM111.222 21.056L111.114 21.5441C111.119 21.5452 111.124 21.5463 111.129 21.5473L111.222 21.056ZM112.11 21.416L112.596 21.5331C112.606 21.4948 112.61 21.4555 112.61 21.416H112.11ZM111.63 23.408L111.543 23.9004C111.803 23.9463 112.054 23.7819 112.116 23.5251L111.63 23.408ZM109.206 23.264L109.182 23.7635L109.188 23.7637L109.206 23.264ZM100.662 32.264L100.29 32.5974C100.296 32.6043 100.302 32.611 100.309 32.6176L100.662 32.264ZM107.046 32.672L107.054 33.172L107.061 33.1718L107.046 32.672ZM109.662 32.6L109.674 33.0999C109.945 33.0935 110.162 32.8716 110.162 32.6H109.662ZM109.662 29.336H110.162C110.162 29.2019 110.108 29.0735 110.013 28.9795C109.917 28.8855 109.788 28.8338 109.654 28.8361L109.662 29.336ZM108.222 29.36L108.214 28.8601C108.204 28.8602 108.194 28.8607 108.184 28.8615L108.222 29.36ZM105.078 29.6H104.578C104.578 29.7392 104.636 29.8721 104.738 29.9668C104.841 30.0614 104.977 30.1091 105.116 30.0985L105.078 29.6ZM105.078 27.248V26.748C104.802 26.748 104.578 26.9719 104.578 27.248H105.078ZM112.806 27.248H113.306C113.306 26.9719 113.082 26.748 112.806 26.748V27.248ZM112.806 33.992H112.306C112.306 34.0664 112.323 34.1398 112.355 34.207L112.806 33.992ZM113.046 34.496H113.546C113.546 34.4216 113.53 34.3482 113.498 34.281L113.046 34.496ZM112.038 34.856L112.109 35.3511L112.12 35.3492L112.038 34.856ZM101.478 34.5C100.379 34.5 99.5794 34.3435 99.0379 34.0728L98.5906 34.9672C99.3291 35.3365 100.305 35.5 101.478 35.5V34.5ZM99.0379 34.0728C98.5028 33.8053 98.1431 33.4159 97.9345 32.8943L97.006 33.2657C97.3094 34.0241 97.8457 34.5947 98.5906 34.9672L99.0379 34.0728ZM97.9345 32.8943C97.7091 32.3308 97.5863 31.6064 97.5863 30.704H96.5863C96.5863 31.6896 96.7194 32.5492 97.006 33.2657L97.9345 32.8943ZM97.5863 30.704V25.352H96.5863V30.704H97.5863ZM97.5863 25.352C97.5863 23.8769 97.9184 22.9009 98.4797 22.3134L97.7568 21.6226C96.9421 22.4751 96.5863 23.7551 96.5863 25.352H97.5863ZM98.4835 22.3094C99.0362 21.7182 99.9908 21.364 101.478 21.364V20.364C99.8617 20.364 98.5763 20.7458 97.753 21.6266L98.4835 22.3094ZM101.478 21.364H108.702V20.364H101.478V21.364ZM108.702 21.364C109.795 21.364 110.592 21.4281 111.114 21.5441L111.331 20.5679C110.701 20.4279 109.817 20.364 108.702 20.364V21.364ZM111.129 21.5473C111.416 21.6015 111.599 21.6523 111.7 21.6934C111.753 21.7148 111.754 21.722 111.734 21.7048C111.716 21.6898 111.61 21.5942 111.61 21.416H112.61C112.61 21.1738 112.468 21.0152 112.376 20.9382C112.281 20.859 112.171 20.8052 112.076 20.7666C111.881 20.6877 111.621 20.6225 111.315 20.5647L111.129 21.5473ZM111.624 21.2989L111.144 23.2909L112.116 23.5251L112.596 21.5331L111.624 21.2989ZM111.717 22.9156C111.402 22.86 110.551 22.8117 109.224 22.7643L109.188 23.7637C110.55 23.8123 111.314 23.86 111.543 23.9004L111.717 22.9156ZM109.23 22.7646C107.89 22.7 105.944 22.668 103.398 22.668V23.668C105.94 23.668 107.866 23.7 109.182 23.7634L109.23 22.7646ZM103.398 22.668H102.174V23.668H103.398V22.668ZM102.174 22.668C101.471 22.668 100.85 22.8228 100.402 23.22C99.9433 23.6274 99.7543 24.2104 99.7543 24.872H100.754C100.754 24.3976 100.885 24.1286 101.066 23.968C101.259 23.7972 101.598 23.668 102.174 23.668V22.668ZM99.7543 24.872V30.992H100.754V24.872H99.7543ZM99.7543 30.992C99.7543 31.6173 99.9115 32.1748 100.29 32.5974L101.035 31.9306C100.869 31.7452 100.754 31.4547 100.754 30.992H99.7543ZM100.309 32.6176C100.741 33.0495 101.415 33.196 102.174 33.196V32.196C101.493 32.196 101.16 32.0545 101.016 31.9104L100.309 32.6176ZM102.174 33.196H103.158V32.196H102.174V33.196ZM103.158 33.196C104.696 33.196 105.994 33.188 107.054 33.1719L107.039 32.1721C105.986 32.188 104.693 32.196 103.158 32.196V33.196ZM107.061 33.1718C108.117 33.1398 108.987 33.1158 109.674 33.0999L109.651 32.1001C108.961 32.1162 108.088 32.1402 107.031 32.1722L107.061 33.1718ZM110.162 32.6V29.336H109.162V32.6H110.162ZM109.654 28.8361L108.214 28.8601L108.231 29.8599L109.671 29.8359L109.654 28.8361ZM108.184 28.8615L105.04 29.1015L105.116 30.0985L108.26 29.8585L108.184 28.8615ZM105.578 29.6V27.248H104.578V29.6H105.578ZM105.078 27.748H112.806V26.748H105.078V27.748ZM112.306 27.248V33.992H113.306V27.248H112.306ZM112.355 34.207L112.595 34.711L113.498 34.281L113.258 33.777L112.355 34.207ZM112.546 34.496C112.546 34.2902 112.681 34.1918 112.686 34.1882C112.702 34.1768 112.692 34.1877 112.626 34.2111C112.501 34.2559 112.284 34.3081 111.956 34.3628L112.12 35.3492C112.464 35.2919 112.752 35.2281 112.962 35.1529C113.065 35.1163 113.181 35.0662 113.28 34.9928C113.369 34.9272 113.546 34.7658 113.546 34.496H112.546ZM111.968 34.361C111.334 34.4515 110.23 34.5 108.63 34.5V35.5C110.231 35.5 111.398 35.4525 112.109 35.351L111.968 34.361ZM108.63 34.5H101.478V35.5H108.63V34.5ZM114.484 35L114.037 34.777C113.96 34.932 113.968 35.1159 114.059 35.2632C114.15 35.4104 114.311 35.5 114.484 35.5V35ZM121.516 20.888V20.388C121.327 20.388 121.153 20.4953 121.069 20.665L121.516 20.888ZM126.244 20.888L126.692 20.6656C126.608 20.4956 126.434 20.388 126.244 20.388V20.888ZM133.252 35V35.5C133.425 35.5 133.586 35.4105 133.677 35.2634C133.769 35.1164 133.777 34.9326 133.7 34.7776L133.252 35ZM129.556 35L129.103 35.2107C129.185 35.3871 129.362 35.5 129.556 35.5V35ZM128.14 31.952L128.594 31.7413C128.512 31.5649 128.335 31.452 128.14 31.452V31.952ZM119.548 31.952V31.452C119.361 31.452 119.189 31.5571 119.103 31.7242L119.548 31.952ZM117.988 35V35.5C118.176 35.5 118.348 35.3949 118.433 35.2278L117.988 35ZM120.412 29.6L119.966 29.3744C119.888 29.5294 119.895 29.714 119.986 29.8619C120.077 30.0099 120.239 30.1 120.412 30.1V29.6ZM127.252 29.6V30.1C127.426 30.1 127.587 30.0101 127.678 29.8626C127.769 29.715 127.777 29.5307 127.699 29.3757L127.252 29.6ZM123.964 23.048L124.411 22.8237C124.326 22.6547 124.153 22.548 123.964 22.548V23.048ZM123.724 23.048V22.548C123.536 22.548 123.363 22.6541 123.278 22.8224L123.724 23.048ZM114.932 35.223L121.964 21.111L121.069 20.665L114.037 34.777L114.932 35.223ZM121.516 21.388H126.244V20.388H121.516V21.388ZM125.797 21.1104L132.805 35.2224L133.7 34.7776L126.692 20.6656L125.797 21.1104ZM133.252 34.5H129.556V35.5H133.252V34.5ZM130.01 34.7893L128.594 31.7413L127.687 32.1627L129.103 35.2107L130.01 34.7893ZM128.14 31.452H119.548V32.452H128.14V31.452ZM119.103 31.7242L117.543 34.7722L118.433 35.2278L119.993 32.1798L119.103 31.7242ZM117.988 34.5H114.484V35.5H117.988V34.5ZM120.412 30.1H127.252V29.1H120.412V30.1ZM127.699 29.3757L124.411 22.8237L123.517 23.2723L126.805 29.8243L127.699 29.3757ZM123.964 22.548H123.724V23.548H123.964V22.548ZM123.278 22.8224L119.966 29.3744L120.859 29.8256L124.171 23.2736L123.278 22.8224ZM135.178 35H134.678C134.678 35.2761 134.902 35.5 135.178 35.5V35ZM135.178 20.888V20.388C134.902 20.388 134.678 20.6119 134.678 20.888H135.178ZM138.346 20.888H138.846C138.846 20.6119 138.622 20.388 138.346 20.388V20.888ZM138.346 35V35.5C138.622 35.5 138.846 35.2761 138.846 35H138.346ZM135.678 35V20.888H134.678V35H135.678ZM135.178 21.388H138.346V20.388H135.178V21.388ZM137.846 20.888V35H138.846V20.888H137.846ZM138.346 34.5H135.178V35.5H138.346V34.5ZM142.426 35H141.926C141.926 35.2761 142.149 35.5 142.426 35.5V35ZM142.426 22.808H142.926C142.926 22.7873 142.924 22.7666 142.922 22.746L142.426 22.808ZM142.186 20.888V20.388C142.042 20.388 141.906 20.4496 141.811 20.5571C141.716 20.6646 141.672 20.8077 141.689 20.95L142.186 20.888ZM145.642 20.888L146.003 20.5427C145.909 20.4439 145.778 20.388 145.642 20.388V20.888ZM153.802 29.432L154.207 29.1393C154.194 29.1207 154.179 29.1032 154.163 29.0867L153.802 29.432ZM154.738 30.728L154.332 31.0207C154.426 31.1509 154.577 31.228 154.738 31.228V30.728ZM155.002 30.728V31.228C155.278 31.228 155.502 31.0041 155.502 30.728H155.002ZM155.002 20.888V20.388C154.725 20.388 154.502 20.6119 154.502 20.888H155.002ZM158.17 20.888H158.67C158.67 20.6119 158.446 20.388 158.17 20.388V20.888ZM158.17 35V35.5C158.446 35.5 158.67 35.2761 158.67 35H158.17ZM155.122 35L154.761 35.3465C154.855 35.4446 154.986 35.5 155.122 35.5V35ZM146.77 26.312L146.385 26.6313C146.393 26.6407 146.401 26.6497 146.409 26.6585L146.77 26.312ZM145.834 25.184L146.218 24.8647C146.123 24.7502 145.982 24.684 145.834 24.684V25.184ZM145.594 25.184V24.684C145.317 24.684 145.094 24.9079 145.094 25.184H145.594ZM145.594 35V35.5C145.87 35.5 146.094 35.2761 146.094 35H145.594ZM142.926 35V22.808H141.926V35H142.926ZM142.922 22.746L142.682 20.826L141.689 20.95L141.929 22.87L142.922 22.746ZM142.186 21.388H145.642V20.388H142.186V21.388ZM145.28 21.2333L153.44 29.7773L154.163 29.0867L146.003 20.5427L145.28 21.2333ZM153.396 29.7247L154.332 31.0207L155.143 30.4353L154.207 29.1393L153.396 29.7247ZM154.738 31.228H155.002V30.228H154.738V31.228ZM155.502 30.728V20.888H154.502V30.728H155.502ZM155.002 21.388H158.17V20.388H155.002V21.388ZM157.67 20.888V35H158.67V20.888H157.67ZM158.17 34.5H155.122V35.5H158.17V34.5ZM155.482 34.6535L147.13 25.9655L146.409 26.6585L154.761 35.3465L155.482 34.6535ZM147.154 25.9927L146.218 24.8647L145.449 25.5033L146.385 26.6313L147.154 25.9927ZM145.834 24.684H145.594V25.684H145.834V24.684ZM145.094 25.184V35H146.094V25.184H145.094ZM145.594 34.5H142.426V35.5H145.594V34.5Z" fill="black"/>
</svg>
