<svg width="229" height="66" viewBox="0 0 229 66" fill="none" xmlns="http://www.w3.org/2000/svg">
<rect x="1" y="1" width="227" height="64" rx="2" fill="#F7A12F" stroke="black" stroke-width="2" stroke-linejoin="round"/>
<path d="M28.992 43L28.96 27.224H20.64V24.152H41.568V27.224H33.216V43H28.992ZM65.2268 43.32C64.3734 43.32 63.5308 43.192 62.6988 42.936C61.8881 42.6587 60.9601 41.9973 59.9148 40.952L57.6108 38.648C56.6721 37.688 55.6374 36.984 54.5068 36.536C53.3974 36.088 52.0001 35.864 50.3148 35.864H49.3228V43H45.0988V26.744L44.7788 24.152H58.9548C60.3201 24.152 61.3868 24.3333 62.1548 24.696C62.9441 25.0587 63.5201 25.5387 63.8828 26.136C64.2668 26.712 64.5121 27.3307 64.6188 27.992C64.7254 28.6533 64.7788 29.2827 64.7788 29.88V30.488C64.7788 30.9573 64.7148 31.48 64.5868 32.056C64.4588 32.632 64.2134 33.1973 63.8508 33.752C63.4881 34.3067 62.9654 34.776 62.2828 35.16C61.6214 35.544 60.7468 35.768 59.6588 35.832C59.9361 35.9813 60.2881 36.216 60.7148 36.536C61.1414 36.8347 61.5788 37.1653 62.0268 37.528C62.4961 37.8907 62.9228 38.2213 63.3068 38.52C63.6908 38.8187 63.9894 39.032 64.2028 39.16C64.9708 39.608 65.6534 39.9173 66.2508 40.088C66.8481 40.2587 67.3388 40.3547 67.7228 40.376C68.1068 40.3973 68.3308 40.408 68.3948 40.408L67.7548 43C67.5628 43.064 67.2428 43.128 66.7948 43.192C66.3468 43.2773 65.8241 43.32 65.2268 43.32ZM54.1228 32.952C54.9334 32.952 55.6588 32.9413 56.2988 32.92C56.9388 32.8773 57.5148 32.8347 58.0268 32.792C58.9654 32.6853 59.6161 32.4293 59.9788 32.024C60.3628 31.5973 60.5548 31.0533 60.5548 30.392V29.656C60.5548 28.9733 60.3734 28.3973 60.0108 27.928C59.6481 27.4587 58.9974 27.224 58.0588 27.224H49.3228V32.792C50.2614 32.856 51.1254 32.8987 51.9148 32.92C52.7041 32.9413 53.4401 32.952 54.1228 32.952ZM76.4445 43V35.192L67.1325 24.184H72.2525L76.9885 30.168L78.4605 32.152H78.7805L80.2525 30.168L84.9885 24.184H90.1085L88.8605 26.104L80.6685 35.32V43H76.4445ZM97.4688 43L106.845 24.184H113.149L122.493 43H117.565L115.677 38.936H104.221L102.141 43H97.4688ZM105.373 35.8H114.493L110.109 27.064H109.789L105.373 35.8ZM129.971 43C128.456 43 127.272 42.7867 126.419 42.36C125.566 41.9333 124.968 41.2933 124.627 40.44C124.286 39.5867 124.115 38.5307 124.115 37.272V30.136C124.115 28.088 124.574 26.584 125.491 25.624C126.408 24.6427 127.902 24.152 129.971 24.152H139.603C141.075 24.152 142.195 24.2373 142.963 24.408C143.752 24.5573 144.147 24.7173 144.147 24.888L143.507 27.544C143.144 27.48 142.067 27.416 140.275 27.352C138.504 27.2667 135.923 27.224 132.531 27.224H130.899C129.192 27.224 128.339 27.9813 128.339 29.496V37.656C128.339 38.3813 128.52 38.9467 128.883 39.352C129.267 39.736 129.939 39.928 130.899 39.928H132.211C134.259 39.928 135.987 39.9173 137.395 39.896C138.803 39.8533 139.966 39.8213 140.883 39.8V35.448L138.963 35.48L134.771 35.8V32.664H145.075V41.656L145.395 42.328C145.395 42.4987 144.947 42.6587 144.051 42.808C143.155 42.936 141.64 43 139.507 43H129.971ZM147.312 43L156.689 24.184H162.993L172.337 43H167.409L165.521 38.936H154.065L151.985 43H147.312ZM155.217 35.8H164.337L159.953 27.064H159.633L155.217 35.8ZM174.904 43V24.184H179.128V43H174.904ZM184.568 43V26.744L184.248 24.184H188.856L199.736 35.576L200.984 37.304H201.336V24.184H205.56V43H201.496L190.36 31.416L189.112 29.912H188.792V43H184.568Z" fill="white"/>
<path d="M28.992 43L28.492 43.001C28.4926 43.2768 28.7163 43.5 28.992 43.5V43ZM28.96 27.224L29.46 27.223C29.4594 26.9472 29.2357 26.724 28.96 26.724V27.224ZM20.64 27.224H20.14C20.14 27.5001 20.3639 27.724 20.64 27.724V27.224ZM20.64 24.152V23.652C20.3639 23.652 20.14 23.8759 20.14 24.152H20.64ZM41.568 24.152H42.068C42.068 23.8759 41.8441 23.652 41.568 23.652V24.152ZM41.568 27.224V27.724C41.8441 27.724 42.068 27.5001 42.068 27.224H41.568ZM33.216 27.224V26.724C32.9399 26.724 32.716 26.9479 32.716 27.224H33.216ZM33.216 43V43.5C33.4921 43.5 33.716 43.2761 33.716 43H33.216ZM29.492 42.999L29.46 27.223L28.46 27.225L28.492 43.001L29.492 42.999ZM28.96 26.724H20.64V27.724H28.96V26.724ZM21.14 27.224V24.152H20.14V27.224H21.14ZM20.64 24.652H41.568V23.652H20.64V24.652ZM41.068 24.152V27.224H42.068V24.152H41.068ZM41.568 26.724H33.216V27.724H41.568V26.724ZM32.716 27.224V43H33.716V27.224H32.716ZM33.216 42.5H28.992V43.5H33.216V42.5ZM62.6988 42.936L62.5369 43.4091C62.5418 43.4108 62.5468 43.4124 62.5517 43.4139L62.6988 42.936ZM59.9148 40.952L59.5612 41.3056L59.5612 41.3056L59.9148 40.952ZM57.6108 38.648L57.2532 38.9976L57.2572 39.0016L57.6108 38.648ZM54.5068 36.536L54.3195 36.9996L54.3226 37.0008L54.5068 36.536ZM49.3228 35.864V35.364C49.0466 35.364 48.8228 35.5879 48.8228 35.864H49.3228ZM49.3228 43V43.5C49.5989 43.5 49.8228 43.2761 49.8228 43H49.3228ZM45.0988 43H44.5988C44.5988 43.2761 44.8226 43.5 45.0988 43.5V43ZM45.0988 26.744H45.5988C45.5988 26.7235 45.5975 26.7031 45.595 26.6827L45.0988 26.744ZM44.7788 24.152V23.652C44.6355 23.652 44.4991 23.7135 44.4042 23.8208C44.3093 23.9282 44.265 24.0711 44.2825 24.2133L44.7788 24.152ZM62.1548 24.696L61.9412 25.1481L61.946 25.1503L62.1548 24.696ZM63.8828 26.136L63.4554 26.3955C63.459 26.4015 63.4628 26.4075 63.4667 26.4133L63.8828 26.136ZM64.5868 32.056L65.0748 32.1645L65.0748 32.1645L64.5868 32.056ZM63.8508 33.752L64.2692 34.0256L64.2692 34.0256L63.8508 33.752ZM62.2828 35.16L62.0376 34.7242L62.0317 34.7276L62.2828 35.16ZM59.6588 35.832L59.6294 35.3329C59.4062 35.346 59.2188 35.5057 59.1705 35.7241C59.1223 35.9424 59.2248 36.1662 59.4217 36.2722L59.6588 35.832ZM60.7148 36.536L60.4148 36.936C60.4191 36.9393 60.4235 36.9425 60.428 36.9456L60.7148 36.536ZM62.0268 37.528L61.7121 37.9167L61.721 37.9236L62.0268 37.528ZM63.3068 38.52L62.9998 38.9147L62.9998 38.9147L63.3068 38.52ZM64.2028 39.16L63.9455 39.5888L63.9508 39.5919L64.2028 39.16ZM68.3948 40.408L68.8802 40.5279C68.917 40.3786 68.8832 40.2207 68.7884 40.0997C68.6936 39.9787 68.5485 39.908 68.3948 39.908V40.408ZM67.7548 43L67.9129 43.4743C68.0755 43.4201 68.1991 43.2863 68.2402 43.1199L67.7548 43ZM66.7948 43.192L66.724 42.697C66.7164 42.6981 66.7088 42.6994 66.7012 42.7008L66.7948 43.192ZM56.2988 32.92L56.3154 33.4197C56.3209 33.4195 56.3265 33.4193 56.332 33.4189L56.2988 32.92ZM58.0268 32.792L58.0683 33.2903C58.0733 33.2899 58.0782 33.2894 58.0832 33.2888L58.0268 32.792ZM59.9788 32.024L59.6071 31.6895L59.6061 31.6906L59.9788 32.024ZM60.0108 27.928L60.4064 27.6223L60.4064 27.6223L60.0108 27.928ZM49.3228 27.224V26.724C49.0466 26.724 48.8228 26.9479 48.8228 27.224H49.3228ZM49.3228 32.792H48.8228C48.8228 33.0549 49.0264 33.273 49.2887 33.2908L49.3228 32.792ZM51.9148 32.92L51.9283 32.4202L51.9283 32.4202L51.9148 32.92ZM65.2268 42.82C64.4243 42.82 63.6311 42.6998 62.8458 42.4581L62.5517 43.4139C63.4304 43.6842 64.3226 43.82 65.2268 43.82V42.82ZM62.8606 42.4629C62.1567 42.2221 61.2935 41.6236 60.2683 40.5984L59.5612 41.3056C60.6267 42.3711 61.6195 43.0952 62.5369 43.4091L62.8606 42.4629ZM60.2683 40.5984L57.9643 38.2944L57.2572 39.0016L59.5612 41.3056L60.2683 40.5984ZM57.9683 38.2984C56.9857 37.2935 55.8933 36.5476 54.6909 36.0712L54.3226 37.0008C55.3815 37.4204 56.3585 38.0825 57.2532 38.9976L57.9683 38.2984ZM54.694 36.0724C53.5062 35.5927 52.04 35.364 50.3148 35.364V36.364C51.9602 36.364 53.2887 36.5833 54.3195 36.9996L54.694 36.0724ZM50.3148 35.364H49.3228V36.364H50.3148V35.364ZM48.8228 35.864V43H49.8228V35.864H48.8228ZM49.3228 42.5H45.0988V43.5H49.3228V42.5ZM45.5988 43V26.744H44.5988V43H45.5988ZM45.595 26.6827L45.275 24.0907L44.2825 24.2133L44.6025 26.8053L45.595 26.6827ZM44.7788 24.652H58.9548V23.652H44.7788V24.652ZM58.9548 24.652C60.2861 24.652 61.2685 24.8304 61.9412 25.1481L62.3683 24.2439C61.505 23.8362 60.3541 23.652 58.9548 23.652V24.652ZM61.946 25.1503C62.6668 25.4815 63.1558 25.9022 63.4554 26.3955L64.3101 25.8765C63.8843 25.1752 63.2214 24.6358 62.3635 24.2417L61.946 25.1503ZM63.4667 26.4133C63.8124 26.9318 64.0303 27.4834 64.1251 28.0716L65.1124 27.9124C64.9939 27.178 64.7211 26.4922 64.2988 25.8586L63.4667 26.4133ZM64.1251 28.0716C64.2281 28.7097 64.2788 29.3123 64.2788 29.88H65.2788C65.2788 29.253 65.2228 28.5969 65.1124 27.9124L64.1251 28.0716ZM64.2788 29.88V30.488H65.2788V29.88H64.2788ZM64.2788 30.488C64.2788 30.9129 64.2207 31.3985 64.0987 31.9475L65.0748 32.1645C65.2088 31.5615 65.2788 31.0017 65.2788 30.488H64.2788ZM64.0987 31.9475C63.9852 32.458 63.766 32.968 63.4323 33.4784L64.2692 34.0256C64.6608 33.4267 64.9323 32.806 65.0748 32.1645L64.0987 31.9475ZM63.4323 33.4784C63.1209 33.9546 62.663 34.3724 62.0376 34.7242L62.5279 35.5958C63.2678 35.1796 63.8553 34.6587 64.2692 34.0256L63.4323 33.4784ZM62.0317 34.7276C61.4606 35.0592 60.6703 35.2716 59.6294 35.3329L59.6881 36.3311C60.8232 36.2644 61.7823 36.0288 62.5338 35.5924L62.0317 34.7276ZM59.4217 36.2722C59.6672 36.4044 59.9964 36.6222 60.4148 36.936L61.0148 36.136C60.5798 35.8098 60.205 35.5582 59.8958 35.3918L59.4217 36.2722ZM60.428 36.9456C60.8442 37.237 61.2723 37.5605 61.7122 37.9166L62.3414 37.1394C61.8852 36.7702 61.4386 36.4324 61.0015 36.1264L60.428 36.9456ZM61.721 37.9236C62.19 38.2861 62.6163 38.6164 62.9998 38.9147L63.6137 38.1253C63.2292 37.8263 62.8021 37.4953 62.3325 37.1324L61.721 37.9236ZM62.9998 38.9147C63.3877 39.2164 63.7056 39.4448 63.9455 39.5887L64.46 38.7313C64.2733 38.6192 63.9938 38.4209 63.6137 38.1253L62.9998 38.9147ZM63.9508 39.5919C64.7408 40.0527 65.4629 40.3829 66.1134 40.5688L66.3881 39.6072C65.844 39.4518 65.2007 39.1633 64.4547 38.7281L63.9508 39.5919ZM66.1134 40.5688C66.7275 40.7442 67.2584 40.851 67.695 40.8752L67.7505 39.8768C67.4192 39.8584 66.9687 39.7731 66.3881 39.6072L66.1134 40.5688ZM67.695 40.8752C68.0703 40.8961 68.313 40.908 68.3948 40.908V39.908C68.3485 39.908 68.1432 39.8986 67.7505 39.8768L67.695 40.8752ZM67.9093 40.2881L67.2693 42.8801L68.2402 43.1199L68.8802 40.5279L67.9093 40.2881ZM67.5966 42.5257C67.4508 42.5743 67.1695 42.6334 66.724 42.697L66.8655 43.687C67.316 43.6226 67.6747 43.5537 67.9129 43.4743L67.5966 42.5257ZM66.7012 42.7008C66.2918 42.7788 65.8017 42.82 65.2268 42.82V43.82C65.8464 43.82 66.4017 43.7759 66.8883 43.6832L66.7012 42.7008ZM54.1228 33.452C54.9376 33.452 55.6686 33.4413 56.3154 33.4197L56.2821 32.4203C55.6489 32.4414 54.9292 32.452 54.1228 32.452V33.452ZM56.332 33.4189C56.9741 33.3761 57.5529 33.3332 58.0683 33.2903L57.9852 32.2937C57.4766 32.3361 56.9034 32.3786 56.2655 32.4211L56.332 33.4189ZM58.0832 33.2888C59.0617 33.1776 59.8649 32.9011 60.3514 32.3574L59.6061 31.6906C59.3673 31.9576 58.8691 32.1931 57.9703 32.2952L58.0832 33.2888ZM60.3504 32.3585C60.8295 31.8261 61.0548 31.1568 61.0548 30.392H60.0548C60.0548 30.9499 59.896 31.3685 59.6071 31.6895L60.3504 32.3585ZM61.0548 30.392V29.656H60.0548V30.392H61.0548ZM61.0548 29.656C61.0548 28.8801 60.8467 28.192 60.4064 27.6223L59.6151 28.2337C59.9002 28.6026 60.0548 29.0665 60.0548 29.656H61.0548ZM60.4064 27.6223C59.9047 26.973 59.0613 26.724 58.0588 26.724V27.724C58.9335 27.724 59.3915 27.9443 59.6151 28.2337L60.4064 27.6223ZM58.0588 26.724H49.3228V27.724H58.0588V26.724ZM48.8228 27.224V32.792H49.8228V27.224H48.8228ZM49.2887 33.2908C50.233 33.3552 51.1039 33.3983 51.9012 33.4198L51.9283 32.4202C51.1469 32.3991 50.2898 32.3568 49.3568 32.2932L49.2887 33.2908ZM51.9012 33.4198C52.6944 33.4413 53.4349 33.452 54.1228 33.452V32.452C53.4452 32.452 52.7138 32.4414 51.9283 32.4202L51.9012 33.4198ZM76.4445 43H75.9445C75.9445 43.2761 76.1684 43.5 76.4445 43.5V43ZM76.4445 35.192H76.9445C76.9445 35.0738 76.9026 34.9593 76.8262 34.8691L76.4445 35.192ZM67.1325 24.184V23.684C66.9378 23.684 66.7608 23.797 66.6789 23.9736C66.597 24.1502 66.625 24.3583 66.7508 24.5069L67.1325 24.184ZM72.2525 24.184L72.6446 23.8737C72.5497 23.7539 72.4053 23.684 72.2525 23.684V24.184ZM76.9885 30.168L77.39 29.8701C77.387 29.8659 77.3838 29.8618 77.3806 29.8577L76.9885 30.168ZM78.4605 32.152L78.059 32.4499C78.1533 32.577 78.3022 32.652 78.4605 32.652V32.152ZM78.7805 32.152V32.652C78.9388 32.652 79.0877 32.577 79.182 32.4499L78.7805 32.152ZM80.2525 30.168L79.8604 29.8577C79.8572 29.8618 79.854 29.8659 79.851 29.8701L80.2525 30.168ZM84.9885 24.184V23.684C84.8357 23.684 84.6913 23.7539 84.5964 23.8737L84.9885 24.184ZM90.1085 24.184L90.5277 24.4565C90.6276 24.3028 90.6354 24.1067 90.548 23.9455C90.4605 23.7844 90.2919 23.684 90.1085 23.684V24.184ZM88.8605 26.104L89.2342 26.4362C89.2509 26.4175 89.2661 26.3975 89.2797 26.3765L88.8605 26.104ZM80.6685 35.32L80.2948 34.9878C80.2134 35.0793 80.1685 35.1975 80.1685 35.32H80.6685ZM80.6685 43V43.5C80.9446 43.5 81.1685 43.2761 81.1685 43H80.6685ZM76.9445 43V35.192H75.9445V43H76.9445ZM76.8262 34.8691L67.5142 23.8611L66.7508 24.5069L76.0628 35.5149L76.8262 34.8691ZM67.1325 24.684H72.2525V23.684H67.1325V24.684ZM71.8604 24.4943L76.5964 30.4783L77.3806 29.8577L72.6446 23.8737L71.8604 24.4943ZM76.587 30.4659L78.059 32.4499L78.862 31.8541L77.39 29.8701L76.587 30.4659ZM78.4605 32.652H78.7805V31.652H78.4605V32.652ZM79.182 32.4499L80.654 30.4659L79.851 29.8701L78.379 31.8541L79.182 32.4499ZM80.6446 30.4783L85.3806 24.4943L84.5964 23.8737L79.8604 29.8577L80.6446 30.4783ZM84.9885 24.684H90.1085V23.684H84.9885V24.684ZM89.6893 23.9115L88.4413 25.8315L89.2797 26.3765L90.5277 24.4565L89.6893 23.9115ZM88.4868 25.7718L80.2948 34.9878L81.0422 35.6522L89.2342 26.4362L88.4868 25.7718ZM80.1685 35.32V43H81.1685V35.32H80.1685ZM80.6685 42.5H76.4445V43.5H80.6685V42.5ZM97.4688 43L97.0212 42.777C96.944 42.932 96.9525 43.1159 97.0436 43.2632C97.1347 43.4104 97.2956 43.5 97.4688 43.5V43ZM106.845 24.184V23.684C106.655 23.684 106.482 23.7913 106.397 23.961L106.845 24.184ZM113.149 24.184L113.597 23.9616C113.512 23.7916 113.339 23.684 113.149 23.684V24.184ZM122.493 43V43.5C122.666 43.5 122.827 43.4105 122.918 43.2634C123.009 43.1164 123.018 42.9326 122.941 42.7776L122.493 43ZM117.565 43L117.111 43.2107C117.193 43.3871 117.37 43.5 117.565 43.5V43ZM115.677 38.936L116.13 38.7253C116.048 38.5489 115.871 38.436 115.677 38.436V38.936ZM104.221 38.936V38.436C104.033 38.436 103.861 38.5411 103.776 38.7082L104.221 38.936ZM102.141 43V43.5C102.328 43.5 102.5 43.3949 102.586 43.2278L102.141 43ZM105.373 35.8L104.927 35.5744C104.848 35.7294 104.856 35.914 104.947 36.0619C105.038 36.2099 105.199 36.3 105.373 36.3V35.8ZM114.493 35.8V36.3C114.666 36.3 114.827 36.2101 114.918 36.0626C115.009 35.915 115.017 35.7307 114.94 35.5757L114.493 35.8ZM110.109 27.064L110.556 26.8397C110.471 26.6707 110.298 26.564 110.109 26.564V27.064ZM109.789 27.064V26.564C109.6 26.564 109.428 26.6701 109.343 26.8384L109.789 27.064ZM97.9163 43.223L107.292 24.407L106.397 23.961L97.0212 42.777L97.9163 43.223ZM106.845 24.684H113.149V23.684H106.845V24.684ZM112.701 24.4064L122.045 43.2224L122.941 42.7776L113.597 23.9616L112.701 24.4064ZM122.493 42.5H117.565V43.5H122.493V42.5ZM118.018 42.7893L116.13 38.7253L115.223 39.1467L117.111 43.2107L118.018 42.7893ZM115.677 38.436H104.221V39.436H115.677V38.436ZM103.776 38.7082L101.696 42.7722L102.586 43.2278L104.666 39.1638L103.776 38.7082ZM102.141 42.5H97.4688V43.5H102.141V42.5ZM105.373 36.3H114.493V35.3H105.373V36.3ZM114.94 35.5757L110.556 26.8397L109.662 27.2883L114.046 36.0243L114.94 35.5757ZM110.109 26.564H109.789V27.564H110.109V26.564ZM109.343 26.8384L104.927 35.5744L105.819 36.0256L110.235 27.2896L109.343 26.8384ZM126.419 42.36L126.195 42.8072L126.195 42.8072L126.419 42.36ZM124.627 40.44L125.091 40.2543L125.091 40.2543L124.627 40.44ZM125.491 25.624L125.853 25.9694L125.856 25.9654L125.491 25.624ZM142.963 24.408L142.855 24.8961C142.86 24.8972 142.865 24.8983 142.87 24.8993L142.963 24.408ZM144.147 24.888L144.633 25.0051C144.642 24.9668 144.647 24.9275 144.647 24.888H144.147ZM143.507 27.544L143.42 28.0364C143.68 28.0823 143.931 27.9179 143.993 27.6611L143.507 27.544ZM140.275 27.352L140.251 27.8515L140.257 27.8517L140.275 27.352ZM128.883 39.352L128.51 39.6854C128.517 39.6923 128.523 39.699 128.529 39.7056L128.883 39.352ZM137.395 39.896L137.403 40.396L137.41 40.3958L137.395 39.896ZM140.883 39.8L140.895 40.2999C141.166 40.2935 141.383 40.0716 141.383 39.8H140.883ZM140.883 35.448H141.383C141.383 35.3139 141.329 35.1855 141.234 35.0915C141.138 34.9975 141.009 34.9458 140.875 34.9481L140.883 35.448ZM138.963 35.48L138.955 34.9801C138.945 34.9802 138.935 34.9807 138.925 34.9814L138.963 35.48ZM134.771 35.8H134.271C134.271 35.9392 134.329 36.0721 134.431 36.1668C134.533 36.2614 134.67 36.3091 134.809 36.2985L134.771 35.8ZM134.771 32.664V32.164C134.495 32.164 134.271 32.3879 134.271 32.664H134.771ZM145.075 32.664H145.575C145.575 32.3879 145.351 32.164 145.075 32.164V32.664ZM145.075 41.656H144.575C144.575 41.7304 144.592 41.8038 144.624 41.871L145.075 41.656ZM145.395 42.328H145.895C145.895 42.2536 145.878 42.1802 145.846 42.113L145.395 42.328ZM144.051 42.808L144.122 43.3031L144.133 43.3012L144.051 42.808ZM129.971 42.5C128.493 42.5 127.397 42.2902 126.643 41.9128L126.195 42.8072C127.147 43.2831 128.42 43.5 129.971 43.5V42.5ZM126.643 41.9128C125.894 41.5386 125.385 40.9893 125.091 40.2543L124.163 40.6257C124.551 41.5974 125.237 42.3281 126.195 42.8072L126.643 41.9128ZM125.091 40.2543C124.781 39.4775 124.615 38.489 124.615 37.272H123.615C123.615 38.5723 123.791 39.6959 124.163 40.6257L125.091 40.2543ZM124.615 37.272V30.136H123.615V37.272H124.615ZM124.615 30.136C124.615 28.1489 125.062 26.7969 125.852 25.9694L125.13 25.2786C124.085 26.3711 123.615 28.0271 123.615 30.136H124.615ZM125.856 25.9654C126.638 25.1289 127.966 24.652 129.971 24.652V23.652C127.837 23.652 126.178 24.1564 125.126 25.2826L125.856 25.9654ZM129.971 24.652H139.603V23.652H129.971V24.652ZM139.603 24.652C141.064 24.652 142.141 24.7374 142.855 24.8961L143.071 23.9199C142.249 23.7372 141.086 23.652 139.603 23.652V24.652ZM142.87 24.8993C143.255 24.9722 143.512 25.0423 143.663 25.1034C143.741 25.1348 143.76 25.1521 143.752 25.1453C143.746 25.1406 143.647 25.0555 143.647 24.888H144.647C144.647 24.6351 144.498 24.4661 144.394 24.3787C144.287 24.2892 144.159 24.2252 144.039 24.1766C143.795 24.0777 143.46 23.9931 143.056 23.9167L142.87 24.8993ZM143.661 24.7709L143.021 27.4269L143.993 27.6611L144.633 25.0051L143.661 24.7709ZM143.594 27.0516C143.188 26.98 142.067 26.9157 140.293 26.8523L140.257 27.8517C142.067 27.9163 143.1 27.98 143.42 28.0364L143.594 27.0516ZM140.299 26.8526C138.516 26.7667 135.925 26.724 132.531 26.724V27.724C135.921 27.724 138.493 27.7667 140.251 27.8514L140.299 26.8526ZM132.531 26.724H130.899V27.724H132.531V26.724ZM130.899 26.724C129.982 26.724 129.201 26.9261 128.647 27.418C128.081 27.9201 127.839 28.6451 127.839 29.496H128.839C128.839 28.8322 129.023 28.4213 129.311 28.166C129.61 27.9006 130.109 27.724 130.899 27.724V26.724ZM127.839 29.496V37.656H128.839V29.496H127.839ZM127.839 37.656C127.839 38.4627 128.042 39.1615 128.51 39.6854L129.256 39.0186C128.999 38.7319 128.839 38.3 128.839 37.656H127.839ZM128.529 39.7056C129.057 40.2335 129.9 40.428 130.899 40.428V39.428C129.978 39.428 129.477 39.2385 129.237 38.9984L128.529 39.7056ZM130.899 40.428H132.211V39.428H130.899V40.428ZM132.211 40.428C134.261 40.428 135.991 40.4173 137.403 40.3959L137.387 39.3961C135.983 39.4173 134.257 39.428 132.211 39.428V40.428ZM137.41 40.3958C138.818 40.3531 139.979 40.3212 140.895 40.2999L140.871 39.3001C139.952 39.3215 138.788 39.3535 137.38 39.3962L137.41 40.3958ZM141.383 39.8V35.448H140.383V39.8H141.383ZM140.875 34.9481L138.955 34.9801L138.971 35.9799L140.891 35.9479L140.875 34.9481ZM138.925 34.9814L134.733 35.3015L134.809 36.2985L139.001 35.9785L138.925 34.9814ZM135.271 35.8V32.664H134.271V35.8H135.271ZM134.771 33.164H145.075V32.164H134.771V33.164ZM144.575 32.664V41.656H145.575V32.664H144.575ZM144.624 41.871L144.944 42.543L145.846 42.113L145.526 41.441L144.624 41.871ZM144.895 42.328C144.895 42.2337 144.927 42.16 144.958 42.1141C144.986 42.0725 145.012 42.0534 145.014 42.0517C145.016 42.0506 144.984 42.0717 144.891 42.1051C144.71 42.1699 144.409 42.2415 143.969 42.3148L144.133 43.3012C144.589 43.2252 144.96 43.1421 145.227 43.0469C145.358 43.0003 145.494 42.9401 145.608 42.8563C145.711 42.7804 145.895 42.6085 145.895 42.328H144.895ZM143.98 42.313C143.123 42.4355 141.64 42.5 139.507 42.5V43.5C141.641 43.5 143.187 43.4365 144.122 43.303L143.98 42.313ZM139.507 42.5H129.971V43.5H139.507V42.5ZM147.312 43L146.865 42.777C146.788 42.932 146.796 43.1159 146.887 43.2632C146.978 43.4104 147.139 43.5 147.312 43.5V43ZM156.689 24.184V23.684C156.499 23.684 156.326 23.7913 156.241 23.961L156.689 24.184ZM162.993 24.184L163.44 23.9616C163.356 23.7916 163.182 23.684 162.993 23.684V24.184ZM172.337 43V43.5C172.51 43.5 172.67 43.4105 172.761 43.2634C172.853 43.1164 172.861 42.9326 172.784 42.7776L172.337 43ZM167.409 43L166.955 43.2107C167.037 43.3871 167.214 43.5 167.409 43.5V43ZM165.521 38.936L165.974 38.7253C165.892 38.5489 165.715 38.436 165.521 38.436V38.936ZM154.065 38.936V38.436C153.877 38.436 153.705 38.5411 153.619 38.7082L154.065 38.936ZM151.985 43V43.5C152.172 43.5 152.344 43.3949 152.43 43.2278L151.985 43ZM155.217 35.8L154.77 35.5744C154.692 35.7294 154.7 35.914 154.791 36.0619C154.882 36.2099 155.043 36.3 155.217 36.3V35.8ZM164.337 35.8V36.3C164.51 36.3 164.671 36.2101 164.762 36.0626C164.853 35.915 164.861 35.7307 164.783 35.5757L164.337 35.8ZM159.953 27.064L160.399 26.8397C160.315 26.6707 160.142 26.564 159.953 26.564V27.064ZM159.633 27.064V26.564C159.444 26.564 159.271 26.6701 159.186 26.8384L159.633 27.064ZM147.76 43.223L157.136 24.407L156.241 23.961L146.865 42.777L147.76 43.223ZM156.689 24.684H162.993V23.684H156.689V24.684ZM162.545 24.4064L171.889 43.2224L172.784 42.7776L163.44 23.9616L162.545 24.4064ZM172.337 42.5H167.409V43.5H172.337V42.5ZM167.862 42.7893L165.974 38.7253L165.067 39.1467L166.955 43.2107L167.862 42.7893ZM165.521 38.436H154.065V39.436H165.521V38.436ZM153.619 38.7082L151.539 42.7722L152.43 43.2278L154.51 39.1638L153.619 38.7082ZM151.985 42.5H147.312V43.5H151.985V42.5ZM155.217 36.3H164.337V35.3H155.217V36.3ZM164.783 35.5757L160.399 26.8397L159.506 27.2883L163.89 36.0243L164.783 35.5757ZM159.953 26.564H159.633V27.564H159.953V26.564ZM159.186 26.8384L154.77 35.5744L155.663 36.0256L160.079 27.2896L159.186 26.8384ZM174.904 43H174.404C174.404 43.2761 174.628 43.5 174.904 43.5V43ZM174.904 24.184V23.684C174.628 23.684 174.404 23.9079 174.404 24.184H174.904ZM179.128 24.184H179.628C179.628 23.9079 179.404 23.684 179.128 23.684V24.184ZM179.128 43V43.5C179.404 43.5 179.628 43.2761 179.628 43H179.128ZM175.404 43V24.184H174.404V43H175.404ZM174.904 24.684H179.128V23.684H174.904V24.684ZM178.628 24.184V43H179.628V24.184H178.628ZM179.128 42.5H174.904V43.5H179.128V42.5ZM184.568 43H184.068C184.068 43.2761 184.291 43.5 184.568 43.5V43ZM184.568 26.744H185.068C185.068 26.7233 185.066 26.7026 185.064 26.682L184.568 26.744ZM184.248 24.184V23.684C184.104 23.684 183.968 23.7456 183.873 23.8531C183.778 23.9606 183.734 24.1037 183.751 24.246L184.248 24.184ZM188.856 24.184L189.217 23.8387C189.123 23.7399 188.992 23.684 188.856 23.684V24.184ZM199.736 35.576L200.141 35.2833C200.127 35.2647 200.113 35.2472 200.097 35.2307L199.736 35.576ZM200.984 37.304L200.578 37.5967C200.672 37.7269 200.823 37.804 200.984 37.804V37.304ZM201.336 37.304V37.804C201.612 37.804 201.836 37.5801 201.836 37.304H201.336ZM201.336 24.184V23.684C201.059 23.684 200.836 23.9079 200.836 24.184H201.336ZM205.56 24.184H206.06C206.06 23.9079 205.836 23.684 205.56 23.684V24.184ZM205.56 43V43.5C205.836 43.5 206.06 43.2761 206.06 43H205.56ZM201.496 43L201.135 43.3465C201.229 43.4446 201.359 43.5 201.496 43.5V43ZM190.36 31.416L189.975 31.7353C189.982 31.7447 189.991 31.7537 189.999 31.7625L190.36 31.416ZM189.112 29.912L189.496 29.5927C189.401 29.4782 189.26 29.412 189.112 29.412V29.912ZM188.792 29.912V29.412C188.515 29.412 188.292 29.6359 188.292 29.912H188.792ZM188.792 43V43.5C189.068 43.5 189.292 43.2761 189.292 43H188.792ZM185.068 43V26.744H184.068V43H185.068ZM185.064 26.682L184.744 24.122L183.751 24.246L184.071 26.806L185.064 26.682ZM184.248 24.684H188.856V23.684H184.248V24.684ZM188.494 24.5293L199.374 35.9213L200.097 35.2307L189.217 23.8387L188.494 24.5293ZM199.33 35.8687L200.578 37.5967L201.389 37.0113L200.141 35.2833L199.33 35.8687ZM200.984 37.804H201.336V36.804H200.984V37.804ZM201.836 37.304V24.184H200.836V37.304H201.836ZM201.336 24.684H205.56V23.684H201.336V24.684ZM205.06 24.184V43H206.06V24.184H205.06ZM205.56 42.5H201.496V43.5H205.56V42.5ZM201.856 42.6535L190.72 31.0695L189.999 31.7625L201.135 43.3465L201.856 42.6535ZM190.744 31.0967L189.496 29.5927L188.727 30.2313L189.975 31.7353L190.744 31.0967ZM189.112 29.412H188.792V30.412H189.112V29.412ZM188.292 29.912V43H189.292V29.912H188.292ZM188.792 42.5H184.568V43.5H188.792V42.5Z" fill="black"/>
</svg>
