<svg width="525" height="70" viewBox="0 0 525 70" fill="none" xmlns="http://www.w3.org/2000/svg">
<g clip-path="url(#clip0_309_2)">
<path d="M34.9941 64.5948C18.602 64.5948 5.31358 51.3004 5.31358 34.9009C5.31358 18.5013 18.602 5.20691 34.9941 5.20691C51.3861 5.20691 64.6746 18.5013 64.6746 34.9009C64.6746 51.3004 51.3861 64.5948 34.9941 64.5948Z" fill="#D31A1A"/>
<path d="M506.7 21.6506H61.879C58.8695 15.5808 53.8974 10.707 47.7702 7.82082C41.6429 4.93459 34.7203 4.20537 28.1266 5.7516C21.5329 7.29782 15.6553 11.0287 11.4482 16.3383C7.24113 21.6479 4.95166 28.2245 4.95166 35C4.95166 41.7755 7.24113 48.352 11.4482 53.6617C15.6553 58.9713 21.5329 62.7021 28.1266 64.2484C34.7203 65.7946 41.6429 65.0654 47.7702 62.1791C53.8974 59.2929 58.8695 54.4192 61.879 48.3494H506.7C510.239 48.3494 513.633 46.9429 516.135 44.4394C518.637 41.9359 520.043 38.5405 520.043 35C520.043 31.4595 518.637 28.064 516.135 25.5605C513.633 23.057 510.239 21.6506 506.7 21.6506Z" stroke="#282630" stroke-width="10" stroke-linejoin="round"/>
<path d="M39.083 25.608C35.8469 22.9826 34.8589 18.8366 36.8763 16.3478C38.8937 13.859 43.1524 13.9698 46.3886 16.5953C49.6247 19.2208 50.6127 23.3667 48.5953 25.8555C46.5779 28.3443 42.3191 28.2335 39.083 25.608Z" fill="white"/>
</g>
<defs>
<clipPath id="clip0_309_2">
<rect width="525" height="70" fill="white" transform="matrix(-1 0 0 1 525 0)"/>
</clipPath>
</defs>
</svg>
