<svg width="291" height="94" viewBox="0 0 291 94" fill="none" xmlns="http://www.w3.org/2000/svg">
<path d="M291 93.99C290.814 84.4572 288.255 75.1231 283.557 66.8401C278.859 58.5571 272.17 51.5891 264.103 46.5724C256.036 41.5556 246.847 38.6501 237.376 38.121C227.904 37.5919 218.451 39.4561 209.881 43.5435C204.898 30.6412 196.129 19.5669 184.738 11.7902C173.348 4.01352 159.873 -0.0978381 146.103 0.00176796C132.334 0.101374 118.919 4.40724 107.641 12.3479C96.363 20.2886 87.7539 31.4886 82.9565 44.4616C74.3836 39.985 64.8162 37.7807 55.1593 38.0571C45.5024 38.3335 36.0753 41.0815 27.7699 46.0412C19.4644 51.0009 12.5552 58.0083 7.69586 66.4004C2.8365 74.7926 0.187723 84.2919 0 94L291 93.99Z" fill="#CDE9FC"/>
</svg>
