<svg width="623" height="200" viewBox="0 0 623 200" fill="none" xmlns="http://www.w3.org/2000/svg">
<path d="M623 200C622.609 179.715 617.135 159.851 607.078 142.223C597.021 124.595 582.702 109.764 565.429 99.086C548.156 88.4076 528.479 82.2219 508.196 81.0937C487.913 79.9656 467.67 83.931 449.316 92.6278C438.648 65.1789 419.874 41.6193 395.485 25.0761C371.096 8.533 342.247 -0.21129 312.766 0.00387757C283.285 0.219045 254.567 9.3835 230.423 26.2808C206.279 43.1782 187.851 67.0093 177.586 94.6111C160.275 85.5896 141.034 80.8877 121.508 80.9069C89.6722 80.9065 59.1072 93.3828 36.3851 115.653C13.6629 137.924 0.598226 168.21 0 200H623Z" fill="white"/>
</svg>
