<svg width="2849" height="961" viewBox="0 0 2849 961" fill="none" xmlns="http://www.w3.org/2000/svg">
<path opacity="0.45" d="M1426.46 0.389893H713.61V805.07H721.14L1426.46 1.22989V0.389893Z" fill="url(#paint0_linear_130_2)"/>
<path opacity="0.45" d="M1426.46 155.28L721.14 958.68H1426.46V155.28Z" fill="url(#paint1_linear_130_2)"/>
<path opacity="0.45" d="M712.86 0.389893H0V805.07H7.54L712.86 1.22989V0.389893Z" fill="url(#paint2_linear_130_2)"/>
<path opacity="0.45" d="M712.86 155.28L7.54004 958.68H712.86V155.28Z" fill="url(#paint3_linear_130_2)"/>
<path opacity="0.45" d="M2137.07 0.389893H1424.21V805.07H1431.75L2137.07 1.22989V0.389893Z" fill="url(#paint4_linear_130_2)"/>
<path opacity="0.45" d="M2137.07 155.28L1431.75 958.68H2137.07V155.28Z" fill="url(#paint5_linear_130_2)"/>
<path d="M716.69 0H707.56V960.64H716.69V0Z" fill="#302E38"/>
<path d="M1430.54 0H1421.41V960.64H1430.54V0Z" fill="#302E38"/>
<path opacity="0.45" d="M2848.07 0.389893H2135.21V805.07H2142.75L2848.07 1.22989V0.389893Z" fill="url(#paint6_linear_130_2)"/>
<path opacity="0.45" d="M2848.07 155.28L2142.75 958.68H2848.07V155.28Z" fill="url(#paint7_linear_130_2)"/>
<path d="M2141.54 0H2132.41V960.64H2141.54V0Z" fill="#302E38"/>
<defs>
<linearGradient id="paint0_linear_130_2" x1="1070.01" y1="4.79989" x2="1066.05" y2="782.99" gradientUnits="userSpaceOnUse">
<stop stop-color="white"/>
<stop offset="1" stop-color="white" stop-opacity="0"/>
</linearGradient>
<linearGradient id="paint1_linear_130_2" x1="1077.87" y1="158.88" x2="1073.91" y2="936.65" gradientUnits="userSpaceOnUse">
<stop stop-color="white"/>
<stop offset="1" stop-color="white" stop-opacity="0"/>
</linearGradient>
<linearGradient id="paint2_linear_130_2" x1="356.41" y1="4.79989" x2="352.45" y2="782.99" gradientUnits="userSpaceOnUse">
<stop stop-color="white"/>
<stop offset="1" stop-color="white" stop-opacity="0"/>
</linearGradient>
<linearGradient id="paint3_linear_130_2" x1="364.27" y1="158.88" x2="360.31" y2="936.65" gradientUnits="userSpaceOnUse">
<stop stop-color="white"/>
<stop offset="1" stop-color="white" stop-opacity="0"/>
</linearGradient>
<linearGradient id="paint4_linear_130_2" x1="1780.62" y1="4.79989" x2="1776.66" y2="782.99" gradientUnits="userSpaceOnUse">
<stop stop-color="white"/>
<stop offset="1" stop-color="white" stop-opacity="0"/>
</linearGradient>
<linearGradient id="paint5_linear_130_2" x1="1788.48" y1="158.88" x2="1784.52" y2="936.65" gradientUnits="userSpaceOnUse">
<stop stop-color="white"/>
<stop offset="1" stop-color="white" stop-opacity="0"/>
</linearGradient>
<linearGradient id="paint6_linear_130_2" x1="2491.62" y1="4.79989" x2="2487.66" y2="782.99" gradientUnits="userSpaceOnUse">
<stop stop-color="white"/>
<stop offset="1" stop-color="white" stop-opacity="0"/>
</linearGradient>
<linearGradient id="paint7_linear_130_2" x1="2499.48" y1="158.88" x2="2495.52" y2="936.65" gradientUnits="userSpaceOnUse">
<stop stop-color="white"/>
<stop offset="1" stop-color="white" stop-opacity="0"/>
</linearGradient>
</defs>
</svg>
