<svg width="290" height="329" viewBox="0 0 290 329" fill="none" xmlns="http://www.w3.org/2000/svg">
<g clip-path="url(#clip0_126_2)">
<path d="M121.156 7.03017C121.156 7.03017 127.489 6.69159 129.919 10.8041C129.302 6.37294 130.268 3.24627 132.528 0.99585" stroke="#232323" stroke-width="2" stroke-miterlimit="10" stroke-linecap="round"/>
<path d="M144.457 5.38696H145.144C149.524 5.38566 153.861 6.24734 157.908 7.92277C161.954 9.59821 165.631 12.0546 168.728 15.1515C171.825 18.2484 174.282 21.9252 175.957 25.9717C177.633 30.0183 178.494 34.3554 178.493 38.7351V93.024H111.119V38.7351C111.117 34.3562 111.979 30.02 113.654 25.974C115.328 21.9281 117.784 18.2518 120.88 15.155C123.976 12.0582 127.651 9.60165 131.697 7.92563C135.742 6.24961 140.078 5.38696 144.457 5.38696Z" fill="#282630" stroke="#232323" stroke-width="2" stroke-linecap="round" stroke-linejoin="round"/>
<path d="M201.605 123.206H90.7351V194.861H201.605V123.206Z" fill="#282630" stroke="#232323" stroke-width="2" stroke-linecap="round" stroke-linejoin="round"/>
<path d="M148.709 292.396H140.882C140.084 292.467 139.346 292.849 138.828 293.461C138.31 294.072 138.053 294.863 138.114 295.662V307.561C138.077 307.958 138.12 308.357 138.24 308.737C138.36 309.117 138.555 309.469 138.813 309.772C139.071 310.075 139.387 310.324 139.742 310.504C140.097 310.683 140.485 310.79 140.882 310.817H148.709C149.507 310.749 150.246 310.369 150.766 309.759C151.286 309.15 151.545 308.36 151.487 307.561V295.662C151.545 294.862 151.287 294.071 150.767 293.46C150.247 292.849 149.508 292.467 148.709 292.396Z" fill="#4D4C56" stroke="#232323" stroke-width="2" stroke-linecap="round" stroke-linejoin="round"/>
<path d="M88.6541 292.276C86.8245 292.276 85.0359 292.819 83.5146 293.835C81.9933 294.852 80.8076 296.297 80.1075 297.987C79.4073 299.677 79.2241 301.537 79.5811 303.332C79.938 305.126 80.8191 306.774 82.1128 308.068C83.4065 309.362 85.0549 310.243 86.8494 310.6C88.6438 310.957 90.5038 310.774 92.1942 310.073C93.8845 309.373 95.3293 308.188 96.3458 306.666C97.3623 305.145 97.9049 303.357 97.9049 301.527C97.9049 299.074 96.9302 296.721 95.1954 294.986C93.4605 293.251 91.1075 292.276 88.6541 292.276Z" fill="#4D4C56" stroke="#232323" stroke-width="2" stroke-linecap="round" stroke-linejoin="round"/>
<path d="M199.185 292.276C197.355 292.276 195.567 292.819 194.046 293.835C192.524 294.852 191.339 296.297 190.639 297.987C189.938 299.677 189.755 301.537 190.112 303.332C190.469 305.126 191.35 306.774 192.644 308.068C193.938 309.362 195.586 310.243 197.38 310.6C199.175 310.957 201.035 310.774 202.725 310.073C204.416 309.373 205.86 308.188 206.877 306.666C207.893 305.145 208.436 303.357 208.436 301.527C208.436 299.074 207.461 296.721 205.726 294.986C203.992 293.251 201.639 292.276 199.185 292.276Z" fill="#4D4C56" stroke="#232323" stroke-width="2" stroke-linecap="round" stroke-linejoin="round"/>
<path d="M195.202 283.563H149.277V267.024H140.235V283.563H94.5192C93.3925 283.563 92.2767 283.785 91.2359 284.217C90.195 284.648 89.2495 285.281 88.4532 286.078C87.6569 286.875 87.0256 287.821 86.5953 288.863C86.1651 289.904 85.9443 291.02 85.9456 292.147H203.826C203.826 291.016 203.602 289.897 203.168 288.853C202.735 287.809 202.099 286.861 201.297 286.063C200.496 285.266 199.545 284.634 198.499 284.205C197.453 283.776 196.333 283.558 195.202 283.563Z" fill="#4D4C56" stroke="#232323" stroke-width="2" stroke-linecap="round" stroke-linejoin="round"/>
<path opacity="0.5" d="M280.938 329H8.93213L29.6443 311.833H261.212L280.938 329Z" fill="black"/>
<path d="M28.7182 311.355L9.95776 326.77V170.017L28.7182 170.534V311.355Z" fill="#D6D6D6" stroke="#232323" stroke-width="2" stroke-miterlimit="10"/>
<path d="M261.282 311.355L280.042 326.77V170.017L261.282 170.534V311.355Z" fill="#D6D6D6" stroke="#232323" stroke-width="2" stroke-miterlimit="10"/>
<path d="M133.464 229.703H108.828V301.258C105.644 303.217 103.015 305.959 101.19 309.222C99.3649 312.485 98.4054 316.16 98.4026 319.899L133.494 319.759L133.464 229.703Z" fill="#282630" stroke="#232323" stroke-width="2" stroke-linecap="round" stroke-linejoin="round"/>
<path d="M155.979 229.703H180.654V301.258C183.836 303.219 186.464 305.961 188.287 309.224C190.11 312.486 191.068 316.161 191.07 319.899L155.979 319.759V229.703Z" fill="#282630" stroke="#232323" stroke-width="2" stroke-linecap="round" stroke-linejoin="round"/>
<path d="M282.084 167.866H7.90649V266.785H282.084V167.866Z" fill="#E8CFAF" stroke="#232323" stroke-width="2" stroke-miterlimit="10"/>
<path d="M129.6 58.6704C132.52 58.6704 135.321 57.5118 137.388 55.4489C139.454 53.386 140.618 50.5873 140.623 47.6672H118.587C118.592 50.5856 119.755 53.3827 121.819 55.4454C123.884 57.508 126.682 58.6678 129.6 58.6704Z" fill="white" stroke="#232323" stroke-width="2" stroke-miterlimit="10"/>
<path d="M159.294 58.6704C162.213 58.6678 165.011 57.508 167.075 55.4454C169.14 53.3827 170.302 50.5856 170.308 47.6672H148.271C148.276 50.5873 149.44 53.386 151.507 55.4489C153.573 57.5118 156.374 58.6704 159.294 58.6704Z" fill="white" stroke="#232323" stroke-width="2" stroke-miterlimit="10"/>
<path d="M145.553 55.6333H8.25488V140.602H145.553V55.6333Z" fill="#4C4C4C" stroke="#232323" stroke-width="2" stroke-miterlimit="10"/>
<path d="M77.4516 103.47H77.6707C81.0326 103.47 84.2569 104.805 86.6341 107.182C89.0114 109.56 90.3469 112.784 90.3469 116.146V167.925H64.7256V116.146C64.7256 112.784 66.0611 109.56 68.4384 107.182C70.8156 104.805 74.0399 103.47 77.4018 103.47H77.4516Z" fill="#4C4C4C" stroke="#232323" stroke-width="2" stroke-miterlimit="10"/>
<path d="M104.178 157.251H50.4958V164.201H104.178V157.251Z" fill="#4C4C4C" stroke="#232323" stroke-width="2" stroke-miterlimit="10"/>
<path d="M283 55.6333H145.702V140.602H283V55.6333Z" fill="#4C4C4C" stroke="#232323" stroke-width="2" stroke-miterlimit="10"/>
<path d="M213.644 103.47H213.903C217.265 103.47 220.489 104.805 222.866 107.182C225.244 109.56 226.579 112.784 226.579 116.146V167.925H200.958V116.146C200.958 114.48 201.286 112.831 201.924 111.293C202.561 109.754 203.496 108.356 204.674 107.179C205.852 106.002 207.251 105.068 208.79 104.432C210.329 103.795 211.978 103.468 213.644 103.47Z" fill="#4C4C4C" stroke="#232323" stroke-width="2" stroke-miterlimit="10"/>
<path d="M240.371 157.251H186.688V164.201H240.371V157.251Z" fill="#4C4C4C" stroke="#232323" stroke-width="2" stroke-miterlimit="10"/>
<path d="M289.004 163.972H0.99585V172.147H289.004V163.972Z" fill="#E8CFAF" stroke="#232323" stroke-width="2" stroke-miterlimit="10"/>
</g>
<defs>
<clipPath id="clip0_126_2">
<rect width="290" height="329" fill="white"/>
</clipPath>
</defs>
</svg>
