<svg width="290" height="312" viewBox="0 0 290 312" fill="none" xmlns="http://www.w3.org/2000/svg">
<g clip-path="url(#clip0_126_25)">
<path d="M121.156 7.02853C121.156 7.02853 127.489 6.69003 129.919 10.8016C129.302 6.37146 130.267 3.24551 132.528 0.995605" stroke="#232323" stroke-width="2" stroke-miterlimit="10" stroke-linecap="round"/>
<path d="M144.457 5.38574H145.144C149.524 5.38444 153.861 6.24592 157.908 7.92097C161.954 9.59601 165.631 12.0518 168.728 15.148C171.825 18.2442 174.282 21.9201 175.957 25.9658C177.633 30.0114 178.494 34.3474 178.493 38.7261V93.0026H111.119V38.7261C111.117 34.3483 111.979 30.0131 113.654 25.9681C115.328 21.9231 117.784 18.2476 120.88 15.1515C123.976 12.0555 127.651 9.59946 131.697 7.92382C135.742 6.24819 140.078 5.38574 144.457 5.38574Z" fill="#282630" stroke="#232323" stroke-width="2" stroke-linecap="round" stroke-linejoin="round"/>
<path d="M201.605 106.253H90.7351V177.892H201.605V106.253Z" fill="#282630" stroke="#232323" stroke-width="2" stroke-linecap="round" stroke-linejoin="round"/>
<path d="M148.709 275.404H140.883C140.084 275.475 139.346 275.858 138.828 276.469C138.31 277.08 138.053 277.871 138.114 278.67V290.566C138.077 290.963 138.12 291.362 138.24 291.742C138.36 292.122 138.555 292.473 138.813 292.777C139.071 293.08 139.387 293.329 139.742 293.508C140.098 293.688 140.485 293.794 140.883 293.822H148.709C149.507 293.753 150.246 293.373 150.766 292.764C151.286 292.155 151.545 291.365 151.487 290.566V278.67C151.546 277.87 151.287 277.079 150.767 276.468C150.247 275.857 149.508 275.475 148.709 275.404Z" fill="#4D4C56" stroke="#232323" stroke-width="2" stroke-linecap="round" stroke-linejoin="round"/>
<path d="M88.654 275.285C86.8243 275.285 85.0358 275.827 83.5145 276.843C81.9932 277.86 80.8075 279.304 80.1074 280.994C79.4072 282.684 79.224 284.543 79.581 286.337C79.9379 288.131 80.8189 289.779 82.1127 291.073C83.4064 292.366 85.0548 293.247 86.8492 293.604C88.6437 293.961 90.5037 293.778 92.1941 293.078C93.8844 292.378 95.3292 291.192 96.3457 289.671C97.3622 288.15 97.9047 286.362 97.9047 284.533C97.9047 282.08 96.9301 279.728 95.1952 277.993C93.4604 276.259 91.1074 275.285 88.654 275.285Z" fill="#4D4C56" stroke="#232323" stroke-width="2" stroke-linecap="round" stroke-linejoin="round"/>
<path d="M199.185 275.285C197.355 275.285 195.567 275.827 194.046 276.843C192.524 277.86 191.339 279.304 190.639 280.994C189.938 282.684 189.755 284.543 190.112 286.337C190.469 288.131 191.35 289.779 192.644 291.073C193.938 292.366 195.586 293.247 197.38 293.604C199.175 293.961 201.035 293.778 202.725 293.078C204.416 292.378 205.86 291.192 206.877 289.671C207.893 288.15 208.436 286.362 208.436 284.533C208.436 282.08 207.461 279.728 205.726 277.993C203.992 276.259 201.639 275.285 199.185 275.285Z" fill="#4D4C56" stroke="#232323" stroke-width="2" stroke-linecap="round" stroke-linejoin="round"/>
<path d="M195.202 266.574H149.277V250.038H140.235V266.574H94.5191C93.3923 266.574 92.2766 266.796 91.2358 267.227C90.1949 267.659 89.2494 268.291 88.4531 269.088C87.6568 269.885 87.0255 270.831 86.5952 271.872C86.1649 272.913 85.9441 274.029 85.9454 275.155H203.825C203.825 274.025 203.602 272.906 203.168 271.862C202.734 270.818 202.099 269.871 201.297 269.073C200.496 268.276 199.545 267.645 198.499 267.216C197.453 266.787 196.333 266.569 195.202 266.574Z" fill="#4D4C56" stroke="#232323" stroke-width="2" stroke-linecap="round" stroke-linejoin="round"/>
<path opacity="0.5" d="M280.938 312H8.93213L29.6443 294.837H261.212L280.938 312Z" fill="black"/>
<path d="M28.7182 294.359L9.95776 309.77V153.053L28.7182 153.571V294.359Z" fill="#D6D6D6" stroke="#232323" stroke-width="2" stroke-miterlimit="10"/>
<path d="M261.282 294.359L280.042 309.77V153.053L261.282 153.571V294.359Z" fill="#D6D6D6" stroke="#232323" stroke-width="2" stroke-miterlimit="10"/>
<path d="M133.464 212.726H108.828V284.265C105.644 286.223 103.015 288.964 101.19 292.226C99.3649 295.489 98.4054 299.163 98.4026 302.901L133.494 302.762L133.464 212.726Z" fill="#282630" stroke="#232323" stroke-width="2" stroke-linecap="round" stroke-linejoin="round"/>
<path d="M155.978 212.726H180.654V284.265C183.836 286.225 186.464 288.966 188.287 292.228C190.11 295.49 191.068 299.164 191.07 302.901L155.978 302.762V212.726Z" fill="#282630" stroke="#232323" stroke-width="2" stroke-linecap="round" stroke-linejoin="round"/>
<path d="M282.084 150.903H7.90649V249.799H282.084V150.903Z" fill="#E8CFAF" stroke="#232323" stroke-width="2" stroke-miterlimit="10"/>
<path d="M145.553 38.6963H8.25488V123.645H145.553V38.6963Z" fill="#4C4C4C" stroke="#232323" stroke-width="2" stroke-miterlimit="10"/>
<path d="M77.4515 86.5218H77.6706C79.3403 86.5153 80.9948 86.8386 82.5391 87.4731C84.0835 88.1077 85.4872 89.041 86.6697 90.2196C87.8523 91.3981 88.7902 92.7985 89.4298 94.3405C90.0694 95.8825 90.3979 97.5356 90.3966 99.2049V150.973H64.7255V99.2049C64.7241 97.5356 65.0527 95.8825 65.6923 94.3405C66.3318 92.7985 67.2698 91.3981 68.4523 90.2196C69.6348 89.041 71.0386 88.1077 72.5829 87.4731C74.1273 86.8386 75.7818 86.5153 77.4515 86.5218Z" fill="#4C4C4C" stroke="#232323" stroke-width="2" stroke-miterlimit="10"/>
<path d="M104.178 140.291H50.4958V147.239H104.178V140.291Z" fill="#4C4C4C" stroke="#232323" stroke-width="2" stroke-miterlimit="10"/>
<path d="M283 38.6963H145.702V123.645H283V38.6963Z" fill="#4C4C4C" stroke="#232323" stroke-width="2" stroke-miterlimit="10"/>
<path d="M213.644 86.5217H213.903C217.265 86.5217 220.489 87.8569 222.866 90.2336C225.243 92.6103 226.579 95.8337 226.579 99.1949V150.963H200.958V99.1949C200.958 97.5298 201.286 95.881 201.924 94.3428C202.561 92.8045 203.496 91.407 204.674 90.2301C205.852 89.0531 207.251 88.1199 208.79 87.4836C210.329 86.8473 211.978 86.5204 213.644 86.5217Z" fill="#4C4C4C" stroke="#232323" stroke-width="2" stroke-miterlimit="10"/>
<path d="M240.371 140.291H186.688V147.239H240.371V140.291Z" fill="#4C4C4C" stroke="#232323" stroke-width="2" stroke-miterlimit="10"/>
<path d="M289.004 147.01H0.99585V155.184H289.004V147.01Z" fill="#E8CFAF" stroke="#232323" stroke-width="2" stroke-miterlimit="10"/>
</g>
<defs>
<clipPath id="clip0_126_25">
<rect width="290" height="312" fill="white"/>
</clipPath>
</defs>
</svg>
