<svg width="94" height="98" viewBox="0 0 94 98" fill="none" xmlns="http://www.w3.org/2000/svg">
<g clip-path="url(#clip0_126_46)">
<path d="M3.50562 39.3835H90.6324L75.4581 96.5305H18.6701L3.50562 39.3835Z" fill="#E5BD9A" stroke="black" stroke-width="2.97" stroke-linecap="round" stroke-linejoin="round"/>
<path d="M23.8298 40.4092L33.3618 95.7709" stroke="black" stroke-width="2.97" stroke-linecap="round" stroke-linejoin="round"/>
<path d="M47.4629 96.5304L47.8469 40.4092" stroke="black" stroke-width="2.97" stroke-linecap="round" stroke-linejoin="round"/>
<path d="M61.5637 95.771L69.9534 40.0247" stroke="black" stroke-width="2.97" stroke-linecap="round" stroke-linejoin="round"/>
<path d="M38.3051 1.46949H55.695C60.5348 1.4669 65.3276 2.41931 69.7998 4.27232C74.272 6.12533 78.3359 8.84265 81.7595 12.2691C85.1831 15.6955 87.8993 19.7639 89.7528 24.2419C91.6064 28.7199 92.5611 33.5198 92.5624 38.3674C92.5624 38.629 92.4587 38.8799 92.274 39.0649C92.0893 39.2498 91.8389 39.3537 91.5777 39.3537H2.48153C2.22037 39.3537 1.96991 39.2498 1.78524 39.0649C1.60057 38.8799 1.49683 38.629 1.49683 38.3674C1.49943 28.5874 5.37733 19.2083 12.2788 12.29C19.1803 5.37169 28.541 1.47994 38.3051 1.46949Z" fill="#F29555" stroke="black" stroke-width="2.97" stroke-linecap="round" stroke-linejoin="round"/>
<path d="M64.9709 12.0923C68.2254 13.2827 71.2977 14.9227 74.0991 16.9647" stroke="black" stroke-width="2.97" stroke-linecap="round" stroke-linejoin="round"/>
<path d="M35.3115 11.1748C39.1514 10.3581 43.0954 10.1484 47 10.5535" stroke="black" stroke-width="2.97" stroke-linecap="round" stroke-linejoin="round"/>
<path d="M46.5176 17.7043C48.5983 17.5315 50.6898 17.5315 52.7705 17.7043C55.0343 17.8759 57.2785 18.2489 59.4763 18.8188" stroke="black" stroke-width="2.97" stroke-linecap="round" stroke-linejoin="round"/>
<path d="M26.1045 14.3213L26.7741 13.8774" stroke="black" stroke-width="2.97" stroke-linecap="round" stroke-linejoin="round"/>
</g>
<defs>
<clipPath id="clip0_126_46">
<rect width="94" height="98" fill="white"/>
</clipPath>
</defs>
</svg>
