<svg width="101" height="90" viewBox="0 0 101 90" fill="none" xmlns="http://www.w3.org/2000/svg">
<path d="M66.1224 55.5217L66.1215 55.5227C64.2109 57.5364 62.7192 60.0149 62.1988 62.8881C61.6758 65.776 62.1502 68.9757 64.0302 72.3816L64.0306 72.3824C65.4935 75.027 67.1899 76.8091 68.7617 78.351C68.9682 78.5535 69.1709 78.7506 69.3698 78.9439C70.705 80.2418 71.8646 81.3689 72.7811 82.8194C73.8488 84.5092 74.314 85.8585 74.5845 86.7846C74.6252 86.9239 74.6658 87.0704 74.7057 87.2145C74.7852 87.5017 74.8621 87.7795 74.9324 87.9729C74.9867 88.1225 75.082 88.3601 75.2571 88.565C75.4766 88.8219 75.8345 89.0357 76.2909 88.9952L76.2919 88.9951C76.567 88.9704 76.8021 88.8598 76.9518 88.7782C77.1209 88.6861 77.2898 88.5695 77.4509 88.4444C77.7746 88.1931 78.1293 87.8584 78.4814 87.4753C79.1831 86.7118 79.942 85.6824 80.4644 84.5844C80.9754 83.5214 81.1487 82.5083 81.2836 81.7196C81.2923 81.669 81.3008 81.6194 81.3092 81.5706C81.4595 80.7011 81.5767 80.2455 81.8534 79.9139L81.8534 79.9138C81.9398 79.8103 82.1402 79.6628 82.5704 79.4661C82.8552 79.3359 83.1602 79.2176 83.5129 79.0807C83.6924 79.011 83.8842 78.9366 84.092 78.8534C85.2488 78.3901 86.6977 77.7308 87.7856 76.441C88.8028 75.235 89.2476 74.1148 89.6207 73.1753L89.6371 73.1341C90.012 72.1903 90.306 71.4805 90.9905 70.7826L90.9906 70.7826C91.6776 70.0821 92.5258 69.6045 93.5361 69.0358C93.5848 69.0083 93.6338 68.9807 93.6833 68.9528C94.717 68.3701 95.8953 67.6873 96.8604 66.5847C97.7342 65.5863 98.5732 64.4459 99.1545 63.4627C99.4425 62.9755 99.6884 62.4918 99.8372 62.0629C99.9111 61.85 99.9749 61.6116 99.9941 61.3702C100.012 61.1455 100.002 60.7884 99.786 60.4535L99.786 60.4535C99.5024 60.013 99.0743 59.8321 98.7478 59.7368C98.4533 59.6508 98.0823 59.592 97.7039 59.5321C97.6821 59.5286 97.6603 59.5252 97.6385 59.5217C96.7958 59.388 95.5428 59.1873 93.6574 58.6327C92.7638 58.3699 91.6061 57.8734 90.2323 57.2379C89.6881 56.9861 89.1035 56.7095 88.4951 56.4215C87.6116 56.0034 86.6777 55.5614 85.7436 55.1372C82.5779 53.6993 79.0157 52.2751 75.9009 52.054C73.7609 51.8998 71.9581 52.0693 70.3506 52.6463C68.7351 53.2261 67.3877 54.1918 66.1224 55.5217Z" fill="#E0E0E0" stroke="black" stroke-width="2"/>
<path d="M10.7554 15.5507L10.7541 15.5527C9.77097 16.9625 9.29381 18.485 8.9308 19.8191C8.86641 20.0558 8.80616 20.2832 8.74823 20.5019C8.46346 21.5768 8.23468 22.4403 7.84477 23.1511C7.42831 23.9102 6.66022 24.5228 5.67324 25.1986C5.53713 25.2917 5.3947 25.3873 5.24834 25.4855C4.42638 26.0368 3.48057 26.6713 2.83525 27.4374C2.43156 27.9159 1.95215 28.5413 1.58964 29.1807C1.40829 29.5005 1.24161 29.8492 1.1326 30.2035C1.02642 30.5486 0.952636 30.9704 1.03587 31.4031C1.15215 32.01 1.57431 32.3752 1.91366 32.5848C2.24952 32.7922 2.6532 32.94 3.00707 33.0588C3.17911 33.1165 3.34918 33.1709 3.51713 33.2247C4.11156 33.415 4.67955 33.5968 5.21516 33.8862C5.76675 34.1848 6.3087 34.4938 6.85518 34.8053C9.97967 36.5864 13.2522 38.452 19.3188 38.9506C23.886 39.3285 27.369 37.48 29.6778 35.5772C30.8316 34.6264 31.7032 33.6541 32.2876 32.9182C32.5804 32.5496 32.8028 32.2382 32.954 32.0156C33.0296 31.9042 33.0876 31.8149 33.1278 31.7515C33.1455 31.7235 33.1598 31.7006 33.1706 31.683C33.1713 31.682 33.1721 31.6809 33.1728 31.6799C33.1902 31.655 33.2129 31.6217 33.2403 31.5798C33.2951 31.496 33.3684 31.378 33.4541 31.2259C33.6255 30.9215 33.8465 30.4803 34.0677 29.9022C34.5105 28.7443 34.9513 27.0439 34.9982 24.8051C35.0475 22.4524 34.0717 19.6116 32.8984 16.8819C32.1937 15.2422 31.3633 13.5283 30.5869 11.9259C30.0779 10.8753 29.5921 9.87259 29.1801 8.97017C28.2577 6.94947 27.6285 5.36948 27.1579 4.18769C27.0821 3.99756 27.0105 3.81775 26.9425 3.64806C26.7014 3.04715 26.4904 2.53632 26.296 2.15675C26.1983 1.96617 26.0874 1.77357 25.9583 1.60601C25.8366 1.44818 25.6405 1.23506 25.3483 1.10628C24.9466 0.92879 24.5654 1.01111 24.3505 1.08354C24.1183 1.16174 23.9057 1.28636 23.7278 1.40855C23.3673 1.65621 22.9831 2.01068 22.6142 2.39743C21.8691 3.17875 21.0592 4.22713 20.445 5.21161L21.2934 5.74093L20.4449 5.21161C19.7868 6.26648 19.3204 7.64806 19.0234 8.70566C18.8855 9.19679 18.779 9.63721 18.7037 9.97206C18.6398 9.98808 18.5721 10.0057 18.5008 10.025C17.9612 10.1713 17.2148 10.4168 16.3618 10.8174C14.6547 11.6191 12.5097 13.0479 10.7554 15.5507Z" fill="#E0E0E0" stroke="black" stroke-width="2"/>
<circle cx="49.5" cy="44.5" r="22.5" fill="#FF5960"/>
<circle cx="49.5" cy="44.5" r="21" stroke="#FF9FA3" stroke-opacity="0.75" stroke-width="3"/>
<circle cx="49.5" cy="44.5" r="23.5" stroke="black" stroke-width="2"/>
<path d="M45.3657 27.4277C40.9408 28.3856 36.4589 31.4605 35.3365 34.2375C34.1977 37.0549 36.158 38.4555 38.102 37.8678C40.0461 37.2722 42.6652 34.4951 46.8542 33.7546C51.0432 33.014 54.5978 33.4246 56.3548 33.8995C58.1117 34.3744 59.5515 34.2375 59.9175 32.9013C60.2672 31.6296 59.5677 29.915 56.6151 28.4178C53.3614 26.7757 48.6194 26.7274 45.3657 27.4277Z" fill="white"/>
<path d="M24.2553 9.00208C23.6777 8.93255 22.897 10.6219 23.0112 11.8108C23.1254 12.9997 24.0586 14.8977 25.1123 17.3449C26.3563 20.237 27.2831 24.2833 28.4574 23.9843C29.6253 23.6853 28.6922 19.6878 27.683 16.6218C26.661 13.5558 24.9916 9.08549 24.2553 9.00208Z" fill="white"/>
<path d="M21.3748 24.8809C22.47 24.335 21.9628 21.8638 21.1028 18.8466C20.2427 15.8296 19.7062 14.3968 18.0448 14.0633C16.4277 13.7373 15.303 14.7153 14.443 15.9661C13.5829 17.2168 12.9581 18.7027 13.0022 19.5365C13.0463 20.3704 13.2741 20.9314 14.4871 21.4393C15.2148 21.7425 16.3248 22.1064 17.4127 22.8341C18.6697 23.668 20.1546 25.4798 21.3748 24.8809Z" fill="white"/>
<path d="M7.80269 27C6.64058 27 4.68678 28.5471 5.04267 29.6853C5.44215 30.9647 8.14407 30.8902 11.3544 31.5523C16.4241 32.6011 19.511 33.7987 19.9831 32.2812C20.2954 31.277 16.2063 29.596 13.715 28.7257C11.8483 28.086 9.22628 27 7.80269 27Z" fill="white"/>
<path d="M74.0392 58.772C73.4778 59.7996 79.0788 61.0715 82.1357 63.0836C85.1928 65.0957 86.898 67 88.0626 67C89.2272 67 92.2287 65.2466 91.9861 63.9891C91.7435 62.7315 89.7748 62.7674 88.9222 62.5016C87.9586 62.1926 83.7509 60.1086 82.3021 59.4475C80.2087 58.4774 74.9404 57.1265 74.0392 58.772Z" fill="white"/>
<path d="M73.1167 63.1162C72.5232 63.8059 74.2387 65.7178 77.2355 69.0316C80.4857 72.6303 82.0347 73.8598 83.4535 72.3978C84.7419 71.0633 83.6779 69.4963 81.043 67.4421C79.1248 65.9426 73.8189 62.3064 73.1167 63.1162Z" fill="white"/>
<path d="M72.2617 69.0161C71.3258 69.373 73.1545 74.2182 73.7663 76.2991C74.3783 78.3875 75.5518 81 76.7758 81C77.9996 81 79.1731 79.4128 78.9788 77.7952C78.7844 76.1776 76.243 73.3373 75.5518 72.4488C74.5727 71.1881 72.8737 68.7807 72.2617 69.0161Z" fill="white"/>
</svg>
