<svg width="93" height="93" viewBox="0 0 93 93" fill="none" xmlns="http://www.w3.org/2000/svg">
<path d="M19.283 11.4071C19.283 11.4071 19.8569 8.30463 20.9976 6.51002C22.1383 4.71542 24.0201 2.67377 24.5869 2.92081C25.1608 3.16784 25.7276 5.44924 27.8564 10.0266C29.9852 14.6039 33.5744 20.8015 33.4873 24.8848C33.4001 28.9681 31.8525 31.0097 31.8525 31.0097C31.8525 31.0097 27.4568 38.2681 19.1376 37.5924C12.3806 37.0474 9.36538 34.7878 5.65991 32.8189C4.11233 31.9978 2.20874 31.9107 2.04889 31.0896C1.88905 30.2759 2.84811 28.9463 3.60374 28.0671C4.87522 26.5849 7.57077 25.684 8.63881 23.7732C9.70686 21.8623 9.71413 18.9633 11.4433 16.5293C14.6548 12.0319 19.283 11.4071 19.283 11.4071Z" fill="#E0E0E0"/>
<path d="M24.1437 9.93943C23.4825 9.86677 22.5889 11.6323 22.7197 12.8747C22.8504 14.1172 23.9185 16.1007 25.1246 18.6582C26.5486 21.6807 27.6094 25.9093 28.9536 25.5969C30.2904 25.2844 29.2224 21.1067 28.0672 17.9026C26.8974 14.6984 24.9865 10.0266 24.1437 9.93943Z" fill="white"/>
<path d="M21.1939 25.4733C22.2764 24.9501 21.7751 22.5816 20.925 19.6898C20.0749 16.7981 19.5446 15.4249 17.9025 15.1052C16.3041 14.7928 15.1924 15.7301 14.3424 16.9289C13.4923 18.1277 12.8747 19.5518 12.9183 20.351C12.9619 21.1502 13.1871 21.6879 14.386 22.1747C15.1053 22.4653 16.2024 22.8141 17.2777 23.5116C18.5201 24.3108 19.9878 26.0473 21.1939 25.4733Z" fill="white"/>
<path d="M7.94864 26.9264C6.78614 26.9264 4.83169 28.4376 5.1877 29.5493C5.58731 30.799 8.29013 30.7263 11.5015 31.373C16.5729 32.3974 19.6608 33.5672 20.1331 32.085C20.4455 31.1041 16.355 29.4621 13.8629 28.612C11.9956 27.9872 9.3727 26.9264 7.94864 26.9264Z" fill="white"/>
<path d="M59.3819 59.3238C55.8581 63.0802 54.0272 68.4131 57.4929 74.7633C60.2029 79.7185 63.7776 81.4622 65.9791 84.986C68.1806 88.5099 67.919 90.6605 68.4858 90.6096C69.0452 90.5588 70.8398 88.7714 71.7553 86.8242C72.678 84.8843 72.3147 83.1406 73.2375 82.0217C74.1602 80.9028 77.2263 80.7429 79.0136 78.5996C80.801 76.4562 80.5467 74.6616 82.1815 72.976C83.8162 71.2903 86.2211 70.7745 87.8559 68.8854C89.4907 66.9963 90.9729 64.5914 90.6169 64.032C90.2608 63.4725 88.9821 63.7777 85.1967 62.6515C81.4113 61.5253 73.7969 56.621 68.1225 56.2142C64.1336 55.9235 61.6851 56.8753 59.3819 59.3238Z" fill="#E0E0E0"/>
<path d="M65.2018 60.6098C64.6133 61.6488 70.4839 62.9348 73.688 64.9692C76.8922 67.0036 78.6795 68.929 79.9001 68.929C81.1208 68.929 84.2668 67.1562 84.0125 65.8847C83.7582 64.6132 81.6947 64.6495 80.8011 64.3807C79.7911 64.0683 75.3809 61.9612 73.8624 61.2928C71.6682 60.3119 66.1463 58.946 65.2018 60.6098Z" fill="white"/>
<path d="M64.8892 65.3035C64.2935 65.9719 66.0154 67.8247 69.0234 71.0361C72.2857 74.5236 73.8405 75.7151 75.2646 74.2983C76.5578 73.0051 75.4898 71.4865 72.8451 69.4958C70.9197 68.0426 65.594 64.5188 64.8892 65.3035Z" fill="white"/>
<path d="M63.7631 70.8834C62.8186 71.2249 64.6641 75.8604 65.2816 77.8512C65.8992 79.8492 67.0835 82.3486 68.3187 82.3486C69.5538 82.3486 70.7381 80.8301 70.542 79.2825C70.3458 77.7349 67.781 75.0176 67.0835 74.1675C66.0954 72.9614 64.3807 70.6582 63.7631 70.8834Z" fill="white"/>
<path d="M28.4013 32.5645C23.7005 37.447 22.1311 42.4312 22.6615 49.2536C23.3517 58.0232 32.9133 69.1324 44.4366 68.8781C53.7366 68.6746 59.0332 64.0101 61.4454 60.6171C63.6687 57.4928 66.742 52.6467 65.9646 45.2721C65.0346 36.4225 55.8218 25.8293 44.7127 25.7639C35.8341 25.7057 32.0123 28.8154 28.4013 32.5645Z" fill="#FF5960"/>
<path d="M29.6583 39.2344C26.4469 46.2748 22.6179 48.5707 22.6179 48.5707C22.6179 48.5707 22.6906 50.0093 22.9812 51.3389C23.3227 52.901 23.8676 54.1362 23.8676 54.1362C23.8676 54.1362 27.9727 51.1064 30.5011 46.7107C33.2475 41.9372 35.0058 37.8975 35.696 34.2938C36.3863 30.69 36.6914 26.8683 36.6914 26.8683C36.6914 26.8683 35.4781 27.2461 34.025 28.0017C32.8697 28.6048 32.2885 29.0843 32.2885 29.0843C32.2885 29.0843 32.3393 33.3638 29.6583 39.2344Z" fill="#FE7C84"/>
<path d="M41.6611 25.8875C41.6611 25.8875 42.206 28.8591 40.811 34.5335C40.1353 37.28 39.0237 40.8837 37.1491 44.8653C35.4708 48.44 33.8578 50.9902 32.4555 53.1045C29.1642 58.0814 26.8973 59.491 26.8973 59.491C26.8973 59.491 27.6312 60.5082 28.3795 61.3219C29.1279 62.1357 30.1015 63.0221 30.1015 63.0221C30.1015 63.0221 33.9523 60.9223 39.0455 51.7967C44.1387 42.671 45.5046 36.9603 46.0568 33.0514C46.6162 29.1425 46.5218 25.8657 46.5218 25.8657C46.5218 25.8657 45.2212 25.7494 44.1023 25.7567C42.7146 25.7639 41.6611 25.8875 41.6611 25.8875Z" fill="#FE7C84"/>
<path d="M51.6077 27.1661C51.6077 27.1661 51.2808 38.6822 46.1803 48.745C41.4359 58.1032 34.1194 66.0227 34.1194 66.0227C34.1194 66.0227 35.1366 66.6839 36.488 67.2724C38.0283 67.9408 39.3506 68.246 39.3506 68.246C39.3506 68.246 41.0145 66.7202 43.4775 63.1964C45.5409 60.232 48.5271 56.0397 51.1863 49.9729C53.3588 45.025 54.296 41.2542 55.0371 38.0428C56.2214 32.9205 56.0398 29.6001 56.0398 29.6001C56.0398 29.6001 55.2333 28.9462 53.8964 28.2414C52.5959 27.5439 51.6077 27.1661 51.6077 27.1661Z" fill="#FE7C84"/>
<path d="M60.5226 33.6616C60.5226 33.6616 60.2393 41.494 55.2042 52.8719C53.2497 57.2822 51.5423 60.094 49.8857 62.5062C46.8269 66.9527 44.4365 68.8781 44.4365 68.8781C44.4365 68.8781 46.4636 68.8127 48.0693 68.5584C49.8494 68.2751 51.2444 67.8173 51.2444 67.8173C51.2444 67.8173 55.2914 63.6904 59.1349 55.1969C62.8258 47.0449 64.061 38.9583 64.061 38.9583C64.061 38.9583 63.5161 37.6795 62.4843 36.1828C61.6851 35.0203 60.5226 33.6616 60.5226 33.6616Z" fill="#FE7C84"/>
<path d="M40.4695 30.4575C36.517 31.3221 32.5136 34.0976 31.511 36.6042C30.4938 39.1472 32.2448 40.4114 33.9813 39.881C35.7178 39.3434 38.0573 36.8367 41.7991 36.1683C45.5409 35.4998 48.716 35.8704 50.2854 36.2991C51.8547 36.7277 53.1408 36.6042 53.4677 35.3981C53.7801 34.2502 53.1553 32.7026 50.5179 31.3512C47.6116 29.869 43.3758 29.8254 40.4695 30.4575Z" fill="white"/>
<path opacity="0.5" d="M65.9719 45.2721C65.0419 36.4225 55.8291 25.8293 44.7199 25.7639C35.8341 25.7057 32.0123 28.8227 28.4013 32.5718C23.7005 37.4543 22.1311 42.4385 22.6615 49.2609C23.3517 58.0305 32.9133 69.1396 44.4366 68.8853C53.7366 68.6819 59.0332 64.0174 61.4454 60.6243C63.6759 57.4928 66.7493 52.6467 65.9719 45.2721ZM59.0405 58.8079C56.948 61.7432 52.3706 65.7829 44.3203 65.9573C34.3519 66.1753 26.0763 56.5628 25.4733 48.9703C25.0083 43.0706 26.367 38.7548 30.4357 34.5262C33.5599 31.2785 36.8658 28.5902 44.5528 28.641C54.1652 28.6992 62.1429 37.8684 62.9421 45.5264C63.6251 51.9128 60.9586 56.1051 59.0405 58.8079Z" fill="white"/>
</svg>
