<svg width="104" height="102" viewBox="0 0 104 102" fill="none" xmlns="http://www.w3.org/2000/svg">
<g clip-path="url(#clip0_314_120)">
<path d="M61.5143 25.5836H82.2319C86.3066 25.5862 90.2141 27.2075 93.0981 30.0922C95.9821 32.9769 97.6074 36.8897 97.6178 40.9732V60.4954C97.6178 62.5216 97.2196 64.5279 96.4459 66.3998C95.6722 68.2718 94.5381 69.9726 93.1085 71.4053C91.6789 72.838 89.9817 73.9745 88.1138 74.7499C86.2459 75.5253 84.2438 75.9243 82.222 75.9243H61.5143V25.5836Z" stroke="black" stroke-width="13" stroke-linecap="round" stroke-linejoin="round"/>
<path d="M61.5143 25.5836H82.2319C86.3066 25.5862 90.2141 27.2075 93.0981 30.0922C95.9821 32.9769 97.6074 36.8897 97.6178 40.9732V60.4954C97.6178 62.5216 97.2196 64.5279 96.4459 66.3998C95.6722 68.2718 94.5381 69.9726 93.1085 71.4053C91.6789 72.838 89.9817 73.9745 88.1138 74.7499C86.2459 75.5253 84.2438 75.9243 82.222 75.9243H61.5143V25.5836Z" stroke="#F7F3ED" stroke-width="6" stroke-linecap="round" stroke-linejoin="round"/>
<path d="M76.213 89.2673C76.2407 90.6005 75.846 91.9082 75.0856 93.0025C74.3253 94.0969 73.2384 94.9216 71.9811 95.3581C50.4134 102.267 27.2332 102.267 5.66539 95.3581C4.41438 94.9184 3.33423 94.0934 2.57942 93.0011C1.82461 91.9089 1.43385 90.6054 1.46301 89.2771V13.5791C1.43933 12.2897 1.80812 11.0238 2.52027 9.94972C3.23243 8.87568 4.25415 8.04451 5.44941 7.5669C26.9761 -0.507001 50.6901 -0.507001 72.2168 7.5669C73.4011 8.05096 74.4107 8.88406 75.112 9.95591C75.8133 11.0278 76.1734 12.2878 76.1443 13.5692L76.213 89.2673Z" fill="#F7F3ED" stroke="black" stroke-width="2.97" stroke-linecap="round" stroke-linejoin="round"/>
<path d="M39.4811 20.2111C48.1879 20.0738 56.7775 18.1761 64.7349 14.6319C60.503 11.8374 50.2424 9.86938 38.2243 9.86938C26.5008 9.86938 16.4365 11.7488 12.0279 14.4449C20.6472 18.3586 30.0191 20.327 39.4811 20.2111Z" fill="#422A26" stroke="black" stroke-width="2.97" stroke-linecap="round" stroke-linejoin="round"/>
<path d="M7.57025 12.2113C17.0738 17.4632 27.7497 20.2176 38.6023 20.2176C49.455 20.2176 60.131 17.4632 69.6345 12.2113" stroke="black" stroke-width="2.97" stroke-linecap="round" stroke-linejoin="round"/>
<path d="M17.0159 56.5793C16.034 59.4525 14.0702 61.4008 11.8709 61.4008C8.64049 61.4008 5.97961 57.2877 5.97961 52.2005C5.97961 47.1133 8.60122 43.0002 11.8709 43.0002C13.8935 43.0002 15.6805 44.6238 16.7802 47.0838" stroke="black" stroke-width="2.97" stroke-linecap="round" stroke-linejoin="round"/>
<path d="M26.4222 61.4008C30.0283 61.4008 32.9517 57.2817 32.9517 52.2005C32.9517 47.1193 30.0283 43.0002 26.4222 43.0002C22.8161 43.0002 19.8928 47.1193 19.8928 52.2005C19.8928 57.2817 22.8161 61.4008 26.4222 61.4008Z" stroke="black" stroke-width="2.97" stroke-linecap="round" stroke-linejoin="round"/>
<path d="M70.0468 58.4488C69.5561 59.3036 68.8597 60.0215 68.021 60.5371C67.1823 61.0528 66.2281 61.3497 65.2454 61.4008C61.6419 61.4008 58.716 57.2877 58.716 52.2005C58.716 47.1133 61.6616 43.0002 65.2454 43.0002C68.8293 43.0002 71.7749 47.1232 71.7749 52.2005V52.6433" stroke="black" stroke-width="2.97" stroke-linecap="round" stroke-linejoin="round"/>
<path d="M36.722 61.5188V50.2325C36.722 46.2965 39.2945 43.1084 42.4758 43.1084H46.1186" stroke="black" stroke-width="2.97" stroke-linecap="round" stroke-linejoin="round"/>
<path d="M47.7976 61.5188V50.2325C47.7976 46.2965 50.3799 43.1084 53.5514 43.1084H57.6163" stroke="black" stroke-width="2.97" stroke-linecap="round" stroke-linejoin="round"/>
<path d="M36.7319 52.8597H43.8014" stroke="black" stroke-width="2.97" stroke-linecap="round" stroke-linejoin="round"/>
<path d="M47.7976 52.8597H54.7689" stroke="black" stroke-width="2.97" stroke-linecap="round" stroke-linejoin="round"/>
<path d="M58.8633 52.8597H71.7749" stroke="black" stroke-width="2.97" stroke-linecap="round" stroke-linejoin="round"/>
</g>
<defs>
<clipPath id="clip0_314_120">
<rect width="104" height="102" fill="white"/>
</clipPath>
</defs>
</svg>
