<svg width="114" height="100" viewBox="0 0 114 100" fill="none" xmlns="http://www.w3.org/2000/svg">
<g clip-path="url(#clip0_101_14)">
<path d="M57.1228 98.5483C57.1228 98.5483 20.5968 70.7307 10.1805 58.3325C-1.14975 44.8259 -1.70005 24.4237 10.1805 11.486L10.4458 11.1918C22.631 -2.07945 42.5006 -1.6773 54.2338 12.0745L57.5159 15.9294L59.4813 13.3399C71.0375 -1.58903 91.9095 -2.4522 104.429 11.486C116.113 24.4531 114.314 43.639 104.232 58.1167C95.4471 70.7307 57.1228 98.5483 57.1228 98.5483Z" fill="#CE0B0B" stroke="black" stroke-width="2.97" stroke-linecap="round" stroke-linejoin="round"/>
<path d="M21.7466 46.6111C21.6778 46.4345 21.5992 46.2579 21.5206 46.0912" stroke="#FF8D8D" stroke-width="15.08" stroke-linecap="round" stroke-linejoin="round"/>
<path d="M21.7466 26.6798C23.3483 22.9426 27.6426 19.3919 31.1017 18.1069" stroke="#FF8D8D" stroke-width="15.16" stroke-linecap="round" stroke-linejoin="round"/>
</g>
<defs>
<clipPath id="clip0_101_14">
<rect width="114" height="100" fill="white"/>
</clipPath>
</defs>
</svg>
