<svg width="172" height="93" viewBox="0 0 172 93" fill="none" xmlns="http://www.w3.org/2000/svg">
<g clip-path="url(#clip0_101_6)">
<path d="M125.73 30.1216H149.308C154.937 30.1216 160.335 32.3603 164.315 36.3453C168.295 40.3302 170.531 45.735 170.531 51.3705V52.0515C170.531 54.842 169.982 57.6051 168.916 60.1832C167.849 62.7612 166.286 65.1037 164.315 67.0768C162.345 69.05 160.005 70.6152 157.43 71.683C154.855 72.7509 152.095 73.3005 149.308 73.3005H125.73C125.512 73.3005 125.297 73.2576 125.096 73.1743C124.895 73.091 124.713 72.9688 124.559 72.8149C124.405 72.6609 124.283 72.4781 124.2 72.2769C124.117 72.0758 124.074 71.8602 124.074 71.6424V31.7797C124.074 31.5619 124.117 31.3463 124.2 31.1451C124.283 30.944 124.405 30.7612 124.559 30.6072C124.713 30.4533 124.895 30.3311 125.096 30.2478C125.297 30.1645 125.512 30.1216 125.73 30.1216Z" fill="#DB7165" stroke="black" stroke-width="2.97" stroke-linecap="round" stroke-linejoin="round"/>
<path d="M111.171 10.9255H59.6859C37.8064 10.9255 20.0695 28.6843 20.0695 50.5909V51.874C20.0695 73.7806 37.8064 91.5394 59.6859 91.5394H111.171C133.05 91.5394 150.787 73.7806 150.787 51.874V50.5909C150.787 28.6843 133.05 10.9255 111.171 10.9255Z" fill="#FCC26D" stroke="black" stroke-width="2.97" stroke-linecap="round" stroke-linejoin="round"/>
<path d="M22.6718 29.6084H33.9682C35.7934 29.6084 37.6006 29.9688 39.2864 30.669C40.9722 31.3692 42.5035 32.3954 43.7927 33.689C45.0819 34.9825 46.1036 36.5179 46.7993 38.2073C47.4951 39.8967 47.8512 41.7069 47.8473 43.5342V58.9306C47.8473 60.7555 47.4883 62.5625 46.7908 64.2484C46.0933 65.9344 45.071 67.4663 43.7822 68.7567C42.4934 70.0471 40.9634 71.0707 39.2795 71.769C37.5956 72.4674 35.7909 72.8268 33.9682 72.8268H22.6718C17.0466 72.8216 11.6535 70.5805 7.67776 66.5961C3.70198 62.6118 1.46872 57.21 1.46873 51.5778V50.8968C1.46354 48.1047 2.00801 45.339 3.071 42.7577C4.13399 40.1763 5.69466 37.8301 7.66381 35.853C9.63295 33.8759 11.972 32.3068 14.5471 31.2353C17.1223 30.1638 19.8831 29.611 22.6718 29.6084Z" fill="#DB7165" stroke="black" stroke-width="2.97" stroke-linecap="round" stroke-linejoin="round"/>
<path d="M47.522 11.6361C51.1013 11.614 54.6499 12.298 57.9651 13.6491C61.2803 15.0001 64.2973 16.9917 66.8438 19.5101C69.3902 22.0286 71.4163 25.0246 72.8063 28.3271C74.1963 31.6295 74.9231 35.1738 74.945 38.7574V50.0382" stroke="black" stroke-width="2.97" stroke-linecap="round" stroke-linejoin="round"/>
<path d="M74.3043 11.6361C81.5312 11.5941 88.479 14.4276 93.6197 19.5136C98.7604 24.5996 101.673 31.5215 101.717 38.7574V50.0382" stroke="black" stroke-width="2.97" stroke-linecap="round" stroke-linejoin="round"/>
<path d="M100.574 11.6361C107.801 11.5941 114.749 14.4276 119.889 19.5136C125.03 24.5996 127.943 31.5215 127.987 38.7574V50.0382" stroke="black" stroke-width="2.97" stroke-linecap="round" stroke-linejoin="round"/>
<path d="M148.737 12.5638L143.897 7.72779C141.954 5.74995 139.637 4.17914 137.082 3.10689C134.526 2.03464 131.783 1.48242 129.012 1.48242C126.242 1.48242 123.498 2.03464 120.943 3.10689C118.388 4.17914 116.071 5.74995 114.128 7.72779L113.803 8.05349C111.895 9.90572 109.343 10.9416 106.686 10.9416C104.029 10.9416 101.476 9.90572 99.5686 8.05349C97.6241 6.07655 95.3063 4.50659 92.7501 3.43498C90.1939 2.36336 87.4504 1.81149 84.6792 1.81149C81.9079 1.81149 79.1644 2.36336 76.6082 3.43498C74.052 4.50659 71.7342 6.07655 69.7897 8.05349L69.632 8.22127C67.7231 10.0741 65.1688 11.1103 62.5101 11.1103C59.8514 11.1103 57.2971 10.0741 55.3882 8.22127L55.2305 8.07323C53.181 5.99284 50.7183 4.36625 48.0015 3.29861C45.2848 2.23097 42.3745 1.74605 39.4588 1.87521C34.1748 2.10518 29.1708 4.31785 25.4418 8.07323L25.2741 8.25087C23.5952 10.0589 22.1178 12.0445 20.868 14.1726C20.0157 15.7265 19.7344 17.5303 20.073 19.2704C20.4116 21.0105 21.3486 22.5767 22.7211 23.6966C23.6384 24.3819 24.7506 24.7555 25.8952 24.7625C26.9477 24.7358 27.973 24.422 28.8606 23.8551C29.7482 23.2881 30.4644 22.4894 30.9322 21.545C31.633 20.457 32.4244 19.4302 33.298 18.4756C35.0819 16.7711 37.4282 15.7808 39.8925 15.6925C41.2824 15.6235 42.6715 15.8431 43.9726 16.3373C45.2737 16.8315 46.4586 17.5898 47.4531 18.5645L47.6108 18.7224C49.5551 20.6978 51.8723 22.2665 54.4276 23.3372C56.9829 24.408 59.7253 24.9594 62.4953 24.9594C65.2653 24.9594 68.0077 24.408 70.563 23.3372C73.1183 22.2665 75.4355 20.6978 77.3798 18.7224L77.5474 18.5645C79.4575 16.7139 82.0113 15.6793 84.6693 15.6793C87.3272 15.6793 89.8811 16.7139 91.7912 18.5645C93.7349 20.5411 96.0518 22.1109 98.6072 23.1824C101.163 24.2538 103.905 24.8057 106.676 24.8057C109.446 24.8057 112.189 24.2538 114.744 23.1824C117.3 22.1109 119.617 20.5411 121.56 18.5645L121.886 18.2486C123.794 16.3987 126.346 15.3644 129.003 15.3644C131.659 15.3644 134.211 16.3987 136.119 18.2486L140.94 23.0748C141.498 23.6602 142.18 24.1128 142.936 24.3995C143.693 24.6861 144.503 24.7996 145.309 24.7314C146.114 24.6632 146.894 24.4152 147.592 24.0056C148.289 23.5959 148.886 23.0351 149.338 22.3642C150.397 20.9175 150.916 19.1453 150.806 17.3552C150.697 15.5651 149.964 13.8699 148.737 12.5638Z" fill="#D3222B" stroke="black" stroke-width="3" stroke-miterlimit="10"/>
</g>
<defs>
<clipPath id="clip0_101_6">
<rect width="172" height="93" fill="white"/>
</clipPath>
</defs>
</svg>
